<svg xmlns="http://www.w3.org/2000/svg" xmlns:xlink="http://www.w3.org/1999/xlink" width="213.389" height="178.99" viewBox="0 0 213.389 178.99">
  <defs>
    <linearGradient id="linear-gradient" x1="-0.196" y1="-1.31" x2="0.959" y2="-1.31" gradientUnits="objectBoundingBox">
      <stop offset="0" stop-color="#42e8e0"/>
      <stop offset="0.019" stop-color="#40ddd9"/>
      <stop offset="0.115" stop-color="#36adbc"/>
      <stop offset="0.217" stop-color="#2e82a2"/>
      <stop offset="0.322" stop-color="#275e8c"/>
      <stop offset="0.432" stop-color="#21407a"/>
      <stop offset="0.548" stop-color="#1d296c"/>
      <stop offset="0.673" stop-color="#1a1962"/>
      <stop offset="0.813" stop-color="#18105c"/>
      <stop offset="1" stop-color="#180d5b"/>
    </linearGradient>
    <linearGradient id="linear-gradient-2" x1="-0.041" y1="-1.275" x2="1.114" y2="-1.275" xlink:href="#linear-gradient"/>
    <linearGradient id="linear-gradient-3" x1="0.134" y1="-1.234" x2="1.289" y2="-1.234" gradientUnits="objectBoundingBox">
      <stop offset="0" stop-color="#5761d7"/>
      <stop offset="0.178" stop-color="#5b65d8"/>
      <stop offset="0.388" stop-color="#6a72de"/>
      <stop offset="0.613" stop-color="#8188e8"/>
      <stop offset="0.849" stop-color="#a2a6f5"/>
      <stop offset="1" stop-color="#bcbeff"/>
    </linearGradient>
    <radialGradient id="radial-gradient" cx="0.765" cy="0.34" fx="0.31513699889183044" fy="0.17055803537368774" r="0.509" gradientUnits="objectBoundingBox">
      <stop offset="0" stop-color="#2b237c"/>
      <stop offset="1" stop-color="#180d5b"/>
    </radialGradient>
    <linearGradient id="linear-gradient-4" x1="0.803" y1="0.5" x2="1.803" y2="0.5" xlink:href="#linear-gradient-3"/>
    <linearGradient id="linear-gradient-5" x1="0.552" y1="-1.136" x2="1.706" y2="-1.136" gradientUnits="objectBoundingBox">
      <stop offset="0" stop-color="#c0bff6"/>
      <stop offset="0.294" stop-color="#c4c3f6"/>
      <stop offset="0.64" stop-color="#d2d2f9"/>
      <stop offset="1" stop-color="#e9e9fd"/>
    </linearGradient>
  </defs>
  <g id="Group_218" data-name="Group 218" transform="translate(-6177.433 -1253.435)">
    <path id="Path_975" data-name="Path 975" d="M275.433,179.407a44.256,44.256,0,0,1,10.926,9.215c4.578-14.709,18.545-19.272,35.071-9.73,13.671,7.893,25.586,23.418,31.889,39.866a14.848,14.848,0,0,1,6.88,2.177c8.922,5.151,16.154,17.678,16.154,27.978,0,.222-.022.425-.029.641a19.534,19.534,0,0,1,8.315,2.784c11.411,6.587,20.66,22.609,20.66,35.784s-9.25,18.516-20.66,11.927L275.433,237c-13.773-7.952-24.938-27.291-24.938-43.195S261.66,171.455,275.433,179.407Z" transform="translate(5985.521 1079.55)" opacity="0.4" fill="url(#linear-gradient)" style="mix-blend-mode: lighten;isolation: isolate"/>
    <path id="Path_976" data-name="Path 976" d="M263.433,187.3a44.254,44.254,0,0,1,10.926,9.215c4.578-14.709,18.546-19.272,35.071-9.73,13.671,7.893,25.586,23.418,31.889,39.866a14.848,14.848,0,0,1,6.88,2.177c8.922,5.151,16.154,17.678,16.154,27.978,0,.222-.022.425-.029.641a19.533,19.533,0,0,1,8.315,2.784c11.411,6.587,20.661,22.609,20.661,35.784s-9.25,18.516-20.661,11.927l-109.206-63.05C249.66,236.937,238.5,217.6,238.5,201.694S249.66,179.345,263.433,187.3Z" transform="translate(5986.373 1078.99)" opacity="0.6" fill="url(#linear-gradient-2)" style="mix-blend-mode: lighten;isolation: isolate"/>
    <g id="Group_40" data-name="Group 40" transform="translate(6177.433 1268.697)">
      <g id="Group_13" data-name="Group 13" transform="translate(0 0)">
        <path id="Path_118" data-name="Path 118" d="M339.238,358.388a4.531,4.531,0,0,1-2.2-.483l-149.078-86.07a1,1,0,0,1-.529-.7c0-.342.54-.725.992-.986l30.983-17.887a6.331,6.331,0,0,1,3.079-.758,4.5,4.5,0,0,1,2.2.49l149.076,86.069c.158.092.529.333.529.6,0,.192-.209.635-.991,1.086l-30.982,17.888A6.393,6.393,0,0,1,339.238,358.388ZM188.009,271.144a.644.644,0,0,0,.228.214l149.079,86.07a5.544,5.544,0,0,0,4.727-.268l30.983-17.887a1.9,1.9,0,0,0,.681-.574,1.128,1.128,0,0,0-.218-.156L224.41,252.472a3.942,3.942,0,0,0-1.923-.415,5.842,5.842,0,0,0-2.8.683h0L188.7,270.627A2.51,2.51,0,0,0,188.009,271.144ZM219.547,252.5h0Z" transform="translate(-187.433 -194.659)" fill="#42e8e0"/>
        <g id="Group_12" data-name="Group 12" transform="translate(4.864)">
          <path id="Path_119" data-name="Path 119" d="M249.909,195.836a44.231,44.231,0,0,1,10.926,9.214c4.578-14.709,18.546-19.271,35.071-9.73,13.671,7.893,25.586,23.418,31.889,39.866a14.846,14.846,0,0,1,6.88,2.177c8.922,5.151,16.154,17.678,16.154,27.979,0,.222-.022.424-.029.641a19.533,19.533,0,0,1,8.315,2.783c11.411,6.587,20.66,22.61,20.66,35.784s-9.25,18.515-20.66,11.928L249.909,253.427c-13.773-7.952-24.938-27.291-24.938-43.194S236.136,187.884,249.909,195.836Z" transform="translate(-194.963 -190.313)" fill="url(#linear-gradient-3)"/>
          <path id="Path_120" data-name="Path 120" d="M249.909,195.836a39.963,39.963,0,0,1,6.561,4.807l12.211-7.056,0,0c6.709-4.717,16.42-4.511,27.227,1.728,13.671,7.893,25.586,23.419,31.889,39.866a14.847,14.847,0,0,1,6.88,2.177c8.922,5.151,16.154,17.678,16.154,27.979,0,.222-.022.425-.029.641a19.529,19.529,0,0,1,8.315,2.783c11.411,6.587,20.66,22.61,20.66,35.784,0,6.53-2.277,11.127-5.958,13.31l.009,0-.094.055-.019.01L343.8,335.292l-6.533-31.427-87.361-50.438c-13.773-7.952-24.938-27.291-24.938-43.194S236.136,187.884,249.909,195.836Z" transform="translate(-194.963 -190.313)" fill="url(#radial-gradient)"/>
          <path id="Path_121" data-name="Path 121" d="M200.066,211.775l30.306-17.608,0,.006c4.524-2.694,10.813-2.356,17.77,1.662a39.964,39.964,0,0,1,6.561,4.807l12.21-7.056,0,0c6.709-4.717,16.42-4.511,27.227,1.728,13.671,7.893,25.586,23.419,31.889,39.866a14.846,14.846,0,0,1,6.88,2.177c8.922,5.151,16.154,17.678,16.154,27.979,0,.222-.022.425-.029.641a19.529,19.529,0,0,1,8.315,2.783c11.411,6.587,20.661,22.61,20.661,35.784,0,6.53-2.277,11.127-5.958,13.31l.009,0-.094.055-.019.01-29.912,17.364L335.5,303.865l-87.361-50.438c-11.165-6.445-20.613-20.374-23.792-33.89Z" transform="translate(-193.194 -190.313)" fill="url(#linear-gradient-4)"/>
          <path id="Path_122" data-name="Path 122" d="M217.607,214.585a44.236,44.236,0,0,1,10.926,9.215c4.579-14.709,18.546-19.272,35.072-9.731,13.671,7.894,25.585,23.419,31.888,39.866a14.847,14.847,0,0,1,6.88,2.178c8.922,5.15,16.154,17.677,16.154,27.978,0,.222-.022.425-.029.641a19.528,19.528,0,0,1,8.315,2.783c11.411,6.588,20.66,22.61,20.66,35.784s-9.25,18.516-20.66,11.928l-109.206-63.05c-13.773-7.952-24.938-27.292-24.938-43.195S203.834,206.633,217.607,214.585Z" transform="translate(-192.669 -191.645)" fill="url(#linear-gradient-5)"/>
          <g id="Group_11" data-name="Group 11" transform="translate(6.611 17.422)">
            <path id="Path_123" data-name="Path 123" d="M228.038,224.561a44.267,44.267,0,0,0-10.925-9.215c-6.735-3.889-12.841-4.326-17.328-1.907,4.557-3.07,11.08-2.878,18.328,1.307a43.683,43.683,0,0,1,10.345,8.575C228.311,223.727,228.17,224.139,228.038,224.561Z" transform="translate(-199.785 -209.229)" fill="#fff"/>
            <path id="Path_124" data-name="Path 124" d="M349.858,323.9c0-13.176-9.25-29.2-20.66-35.785a19.528,19.528,0,0,0-8.315-2.783c.007-.216.029-.419.029-.641,0-10.3-7.232-22.828-16.154-27.978a14.848,14.848,0,0,0-6.88-2.178c-6.3-16.448-18.217-31.973-31.888-39.866-9.995-5.77-19.05-6.374-25.661-2.7,6.683-4.322,16.153-3.966,26.662,2.1,13.671,7.894,25.585,23.419,31.888,39.866a14.837,14.837,0,0,1,6.88,2.178c8.922,5.15,16.154,17.677,16.154,27.978,0,.222-.022.425-.029.641a19.528,19.528,0,0,1,8.315,2.783c11.411,6.587,20.661,22.61,20.661,35.784,0,6.767-2.443,11.46-6.363,13.538C347.828,334.525,349.858,330.072,349.858,323.9Z" transform="translate(-202.664 -209.068)" fill="#fff"/>
          </g>
        </g>
      </g>
    </g>
  </g>
</svg>
