<svg id="cloud_black_24dp" xmlns="http://www.w3.org/2000/svg" width="36" height="36" viewBox="0 0 36 36">
  <path id="Path_25" data-name="Path 25" d="M0,0H36V36H0Z" fill="none"/>
  <path id="Path_26" data-name="Path 26" d="M18,7.5c3.93,0,7.32,3.255,8.085,7.753l.45,2.625,2.3.192c2.34.175,4.17,2.468,4.17,5.18,0,2.887-2.025,5.25-4.5,5.25H9c-3.315,0-6-3.133-6-7,0-3.587,2.3-6.58,5.34-6.948l1.6-.192.75-1.663A8.154,8.154,0,0,1,18,7.5M18,4c-4.335,0-8.1,2.87-9.975,7.07C3.51,11.63,0,16.092,0,21.5,0,27.292,4.035,32,9,32H28.5c4.14,0,7.5-3.92,7.5-8.75,0-4.62-3.075-8.365-6.975-8.68C28.005,8.533,23.46,4,18,4Z"/>
</svg>
