<svg xmlns="http://www.w3.org/2000/svg" width="36" height="23" viewBox="0 0 36 23">
  <path id="Icon_material-group" data-name="Icon material-group" d="M26.045,17.357a4.929,4.929,0,1,0-4.909-4.929A4.9,4.9,0,0,0,26.045,17.357Zm-13.091,0a4.929,4.929,0,1,0-4.909-4.929A4.9,4.9,0,0,0,12.955,17.357Zm0,3.286c-3.813,0-11.455,1.922-11.455,5.75V30.5H24.409V26.393C24.409,22.565,16.767,20.643,12.955,20.643Zm13.091,0c-.475,0-1.015.033-1.587.082a6.938,6.938,0,0,1,3.224,5.668V30.5H37.5V26.393C37.5,22.565,29.858,20.643,26.045,20.643Z" transform="translate(-1.5 -7.5)"/>
</svg>
