<svg width="436" height="110" xmlns="http://www.w3.org/2000/svg" xml:space="preserve" version="1.1">

 <g>
  <title>Layer 1</title>
  <path id="svg_1" fill="#231F20" clip-rule="evenodd" fill-rule="evenodd" d="m412.2,13.20001c-4.4,0 -10.2,0.4 -12.3,0.4c-1.2,0 -5.9,-0.2 -7.3,-0.2l0,1.1c2.4,0.5 3.8,1.3 3.8,3.6l0,32.4c0,2.3 -1.4,3.3 -3.9,3.7l0,1.2c1.4,0 5.7,-0.2 7,-0.2c2,0 7.5,0.4 11.9,0.4c15.4,0 24.8,-9.1 24.8,-21.5c0,-12.6 -9,-20.9 -24,-20.9l0,0zm-182.2,0.1c-2.3,0 -8.1,0.3 -10.2,0.3c-1.3,0 -5.7,-0.2 -7.1,-0.2l0,1.1c2.7,0.4 3.7,1.7 3.7,3.7l0,32.2c0,2.3 -1.4,3.4 -3.7,3.8l0,1.2c1.4,0 5.9,-0.2 7,-0.2c1.3,0 5.9,0.2 7.3,0.2l0,-1.2c-2.5,-0.5 -3.9,-1.7 -3.9,-3.8l0,-14.3c0.7,0.1 1.3,0.2 2,0.3c3.2,0.5 5,2 6.4,3.8c2.3,2.9 6.5,8.8 8.7,11.6c2.7,3.2 5.3,4.4 8.8,4.4c1.6,0 3.7,-0.2 5,-0.5l0,-0.9c-2.7,-0.1 -5.3,-2.9 -7.2,-5.3c-2,-2.4 -7,-9.4 -8.8,-11.5c-1.5,-1.7 -2.9,-2.5 -2.9,-2.5c6.4,-1.6 10.6,-5.3 10.6,-10.9c0,-7.1 -5.7,-11.3 -15.7,-11.3l0,0zm132.4,0c-2.3,0 -8.1,0.3 -10.2,0.3c-1.3,0 -5.7,-0.2 -7.1,-0.2l0,1.1c2.7,0.4 3.7,1.7 3.7,3.7l0,32.2c0,2.3 -1.4,3.4 -3.7,3.8l0,1.2c1.4,0 5.9,-0.2 7,-0.2c1.3,0 5.9,0.2 7.3,0.2l0,-1.2c-2.5,-0.5 -3.9,-1.7 -3.9,-3.8l0,-14.3c0.7,0.1 1.3,0.2 2,0.3c3.2,0.5 5,2 6.4,3.8c2.3,2.9 6.3,8.8 8.6,11.6c2.6,3.2 5.4,4.4 8.8,4.4c1.6,0 3.7,-0.2 5,-0.5l0,-0.9c-2.7,-0.1 -5.2,-2.9 -7.2,-5.3c-2,-2.4 -6.9,-9.4 -8.7,-11.5c-1.5,-1.7 -2.9,-2.5 -2.9,-2.5c6.4,-1.6 10.6,-5.3 10.6,-10.9c-0.1,-7.1 -5.7,-11.3 -15.7,-11.3l0,0zm-180.1,0c0,0 -0.7,2.7 -1.3,4.1l-13.4,32.3c-1,2.3 -2.4,4 -5.1,4.6l0,1.1l6.1,-0.1c0.9,0 4.5,0.1 5.9,0.1l0,-1.1c-2.4,-0.6 -3,-1.6 -3,-2.7c0,-0.8 0.4,-1.9 0.7,-2.7l2.8,-6.9l15.7,0l3,6.9c0.4,1 0.8,2 0.8,2.9c0,1 -0.6,2.1 -2.7,2.6l0,1.1c1.6,0 6.1,-0.1 7.2,-0.1c1.1,0 5.8,0.1 7.4,0.1l0,-1.1c-2.8,-0.7 -3.9,-2.3 -4.9,-4.6l-14.3,-32.4c-0.6,-1.3 -1.2,-4.1 -1.2,-4.1l-3.7,0zm133,0c0,0 -0.7,2.7 -1.2,4.1l-13.4,32.3c-1,2.3 -2.4,4 -5,4.6l0,1.1l6.2,-0.1c0.9,0 4.4,0.1 5.8,0.1l0,-1.1c-2.3,-0.6 -2.9,-1.6 -2.9,-2.7c0,-0.8 0.3,-1.9 0.7,-2.7l2.8,-6.9l15.7,0l3,6.9c0.4,1 0.8,2 0.8,2.9c0,1 -0.6,2.1 -2.7,2.6l0,1.1c1.5,0 6.1,-0.1 7.2,-0.1c1.1,0 5.9,0.1 7.4,0.1l0,-1.1c-2.8,-0.7 -3.9,-2.3 -4.9,-4.6l-14.2,-32.4c-0.6,-1.3 -1.3,-4.1 -1.3,-4.1l-4,0zm-204.1,0.2l0,1.1c2.1,0.5 3.4,1.4 3.4,3.6l0,32.6c0,2.2 -1.4,3.1 -3.4,3.6l0,1.1l6.5,-0.1c1.3,0 6,0.1 7,0.1l0,-1.1c-2.1,-0.5 -3.4,-1.3 -3.4,-3.6l0,-15.4l24.3,0l0,15.4c0,2.2 -1.4,3.1 -3.3,3.6l0,1.1c1,0 5.6,-0.1 6.9,-0.1l6.7,0.1l0,-1.1c-2.1,-0.5 -3.5,-1.4 -3.5,-3.6l0,-32.6c0,-2.2 1.5,-3.1 3.5,-3.6l0,-1.1l-6.7,0.2c-1.3,0 -5.9,-0.2 -6.9,-0.2l0,1.1c2.1,0.5 3.3,1.4 3.3,3.6l0,13.6l-24.3,0l0,-13.6c0,-2.2 1.5,-3.1 3.4,-3.6l0,-1.1c-1,0 -5.7,0.2 -7,0.2c-1,-0.1 -5.5,-0.2 -6.5,-0.2zm141.6,0.1l0,1.2c2.4,0.5 3.8,2 4.7,4.1l16.5,36.9l3.2,0l15.1,-35.6c1.4,-3.3 3,-4.7 5.5,-5.4l0,-1.2c-1.5,0 -5.4,0.2 -6.4,0.2c-1,0 -4.3,-0.2 -5.7,-0.2l0,1.2c1.7,0.3 2.9,1.2 2.9,2.5c0,1.2 -0.6,2.7 -1.4,4.7l-10.2,24.6l-10.8,-24.6c-1.2,-2.6 -1.8,-3.9 -1.8,-4.9c0,-1.4 1.6,-2.1 2.9,-2.4l0,-1.2c-1.5,0 -6,0.2 -7,0.2c-1.1,0.1 -6,-0.1 -7.5,-0.1l0,0zm-24.8,2.4c6.9,0 10.7,3.5 10.7,9.2c0,4 -2.5,8.5 -10.3,8.5c-1.9,0 -3.9,-0.1 -5.2,-0.2l0,-17c1.6,-0.3 3.2,-0.5 4.8,-0.5l0,0zm132.4,0c6.9,0 10.7,3.5 10.7,9.2c0,4 -2.5,8.5 -10.3,8.5c-1.9,0 -3.9,-0.1 -5.2,-0.2l0,-17c1.5,-0.3 3.2,-0.5 4.8,-0.5l0,0zm49.8,0c11.7,0 18.6,7.7 18.6,18.6c0,10.5 -6.5,18.1 -19.1,18.1c-2.2,0 -5,-0.2 -6.5,-0.4l0,-35.8c1.6,-0.3 4.6,-0.5 7,-0.5l0,0zm-227.6,7.1l6.7,15.6l-12.9,0l6.2,-15.6zm133,0l6.6,15.6l-12.9,0l6.3,-15.6z" class="st0"/>
  <path id="svg_2" fill="#A62131" clip-rule="evenodd" fill-rule="evenodd" d="m45.5,0.60001l-45.1,0l-0.2,36.1c0,44.3 44.4,72.5 44.8,72.7l0.1,0.1c0.1,0 0.4,-0.2 0.4,-0.2c7.6,-4.9 45.2,-31.6 45.2,-72.4l0,-36.3c0,0 -45.2,0 -45.2,0" class="st1"/>
  <path id="svg_3" fill="#231F20" clip-rule="evenodd" fill-rule="evenodd" d="m91.7,2.10001c0,12.2 0.2,24.2 0,36.5c-0.2,8.4 -2,16.7 -5.1,24.5c-7.3,18.3 -21.3,33.6 -37.1,44.5c-1.3,0.9 -2.7,1.8 -4,2.6c-9.3,-6 -17.6,-13.7 -24.8,-22.1c-11.8,-14 -20.3,-31.2 -20.7,-50.3l0,-0.2l0,-37.6l91.7,0l0,2.1zm-90.1,35.1c0.2,22.3 12.8,43.6 28.8,58.8c4.7,4.5 9.6,8.6 15,12.2l0.1,0c8.6,-5.3 16.4,-12.3 23.2,-19.8c12.5,-14 21.3,-31.8 21.4,-51.3c0,-11.7 0,-23.4 0,-35.2l0,-0.5l-88.5,0l0,34.4l0,1.4z" class="st0"/>
  <path id="svg_4" fill="#FFFFFF" clip-rule="evenodd" fill-rule="evenodd" d="m68.1,43.20001c0,0 -0.8,2.5 -4.2,-0.1l-11.8,-0.3c0,0 -1.5,0.5 -1.8,-1.1c0,0 0.3,-3.2 0.1,-3.5c0,0 0.1,-0.9 -1.5,-0.9c0,0 -2.4,0.3 -2.4,-1.8c0,0 -0.4,-2.2 2.9,-2.2c0,0 1.1,0.5 1.1,-0.8c0,0 -0.1,-9.1 -0.1,-9.8c0,0 0.3,-0.8 -1.3,-1c0,0 -2.3,0.5 -2.6,-1c0,0 -0.1,-2.3 1.4,-2.5c0,0 1.9,0.1 2.2,-0.3c0,0 0.4,0.3 0.4,-1.4l0.1,-2.9c0,0 0.2,-0.8 1.4,-0.7c0,0 2.2,0.1 2.5,-0.1c0,0 0.5,-0.6 0.6,-0.9c0,0 1.1,-0.1 1.3,0.2c0,0 1.7,1.1 8.1,0.7c0,0 1,0 1.2,0.3c0,0 1.2,0.9 1.9,-0.1c0,0 1.1,-0.2 4.2,-0.1c0,0 3.4,0.9 5.8,-1.1l0.8,0.1c0,0 1,1.6 1.7,1.1c0,0 2.1,-0.2 2.5,0.2c0,0 0.7,1 0.3,3.8c0,0 -0.4,1.2 1.6,1.2c0,0 2.3,-0.4 2,1.7c0,0 0.6,2.5 -3.2,2.1c0,0 -0.5,0.7 -0.4,1.2c0,0 -0.1,8 -0.1,8.9c0,0 -0.1,1.3 1.6,1.2c0,0 2.2,-0.1 2.3,1.9c0,0 0.3,2.7 -2.9,2.2c0,0 -1,0.1 -1.1,0.8l-0.1,3.5c0,0 0.1,1.8 -1.9,1.3c-0.3,0 -10.9,0.2 -11.8,-0.1c-0.2,0.1 -0.7,0 -0.8,0.3" class="st2"/>
  <path id="svg_5" fill="#FFFFFF" clip-rule="evenodd" fill-rule="evenodd" d="m45.5,54.90001c0,0 0.5,-0.2 0.6,-0.6c0,0 1.5,-0.1 1.7,-0.4l4.6,0.4c0,0 4.6,0.3 6.5,-1.1c0,0 0.7,0 1.2,0.2c0,0 1,0.2 1.3,0.6l2.7,-0.1c0,0 1.5,0.5 1.4,1.5l0,1.3c0,0 -0.3,2.5 0.4,2.7l2,0c0,0 1.7,0.8 1.5,1.7c0,0 0.1,1.4 -1.4,1.7c0,0 -1.5,0.4 -2,0.4c0,0 -0.5,0.6 -0.6,1.4l-0.2,9.2c0,0 -0.1,1 1.3,0.8c0,0 2.2,-0.2 2.8,1c0,0 0.6,2 -0.6,2.4l-0.8,0.4l-1.8,0.3c0,0 -0.8,0.1 -0.8,1.4l0,2.4c0,0 0.1,1.7 -1.3,1.7l-2,0.1c0,0 -0.5,0.4 -1.5,0.1c0,0 -11.9,0.2 -12.3,0.1l-1.4,0.3c0,0 -1.5,1.4 -2.8,0.3l-1,-0.8c0,0 -0.7,0.1 -1,0.1c-0.3,-0.1 -13.2,0.1 -13.2,0.1s-2.7,0.3 -2.9,-0.6c0,0 -0.3,-3.6 -0.2,-4c0,0 0,-1 -0.6,-1.1c0,0 -2.7,-0.1 -2.8,-0.4c0,0 -1.5,-1 -1.1,-2.1c0,0 0.5,-1.4 2,-1.5c0,0 2.2,0.4 2.2,-0.3c0,0 0.1,-0.4 0.1,-1.1c0,0 0.1,-8.3 0.1,-8.9c0,0 0.2,-1.1 -0.7,-1.1c0,0 -1,0.3 -1.6,-0.1c0,0 -1.7,0.1 -2,-1.3c0,0 -0.3,-0.8 0.1,-1.5c0,0 0.8,-1.5 3,-1c0,0 1.3,0.4 1.4,-0.6l-0.1,-3.4c0,0 -0.3,-0.9 1.5,-1.4c0,0 2.2,0.6 2.9,-0.5c0,0 0.8,-1.5 1.4,-0.5c0,0 1.3,1.3 5,1.1c0,0 6.3,-0.5 6.4,-0.2c0,0 1.5,0.2 2,0.7l0.6,0.2zm-19.1,-11.7c0,0 -0.8,2.5 -4.2,-0.1l-11.8,-0.3c0,0 -1.5,0.5 -1.8,-1.1c0,0 0.3,-3.2 0.1,-3.5c0,0 0.1,-0.9 -1.5,-0.9c0,0 -2.4,0.3 -2.4,-1.8c0,0 -0.4,-2.3 2.9,-2.2c0,0 1,0.5 1.1,-0.8c0,0 -0.1,-9.1 -0.1,-9.8c0,0 0.3,-0.8 -1.3,-1c0,0 -2.3,0.5 -2.6,-1.1c0,0 -0.1,-2.3 1.4,-2.5c0,0 1.9,0.1 2.2,-0.3c0,0 0.4,0.3 0.3,-1.4l0.1,-2.9c0,0 0.2,-0.8 1.4,-0.7c0,0 2.2,0.1 2.5,-0.1c0,0 0.5,-0.6 0.6,-0.9c0,0 1.1,-0.1 1.3,0.2c0,0 1.7,1.1 8.1,0.7c0,0 1,0 1.2,0.3c0,0 1.2,0.9 1.9,-0.1c0,0 1.1,-0.2 4.2,-0.1c0,0 3.4,0.9 5.8,-1l0.8,0.1c0,0 1,1.6 1.7,1.1c0,0 2.1,-0.2 2.5,0.2c0,0 0.7,1.1 0.3,3.8c0,0 -0.4,1.2 1.6,1.2c0,0 2.3,-0.4 2,1.7c0,0 0.6,2.5 -3.2,2.1c0,0 -0.5,0.7 -0.4,1.2c0,0 -0.1,8 -0.1,8.9c0,0 -0.1,1.3 1.6,1.2c0,0 2.2,-0.1 2.3,1.9c0,0 0.3,2.7 -2.9,2.2c0,0 -1,0.1 -1.1,0.8l-0.1,3.5c0,0 0.1,1.8 -1.9,1.3c-0.3,0 -10.9,0.2 -11.8,-0.1c-0.1,0.1 -0.5,0 -0.7,0.3" class="st2"/>
  <path id="svg_6" fill="#231F20" clip-rule="evenodd" fill-rule="evenodd" d="m68.1,43.20001c0,0 -0.8,2.5 -4.2,-0.1l-11.8,-0.3c0,0 -1.5,0.5 -1.8,-1.1c0,0 0.3,-3.2 0.1,-3.5c0,0 0.1,-0.9 -1.5,-0.9c0,0 -2.4,0.3 -2.4,-1.8c0,0 -0.4,-2.2 2.9,-2.2c0,0 1.1,0.5 1.1,-0.8c0,0 -0.1,-9.1 -0.1,-9.8c0,0 0.3,-0.8 -1.3,-1c0,0 -2.3,0.5 -2.6,-1c0,0 -0.1,-2.3 1.4,-2.5c0,0 1.9,0.1 2.2,-0.3c0,0 0.4,0.3 0.4,-1.4l0.1,-2.9c0,0 0.2,-0.8 1.4,-0.7c0,0 2.2,0.1 2.5,-0.1c0,0 0.5,-0.6 0.6,-0.9c0,0 1.1,-0.1 1.3,0.2c0,0 1.7,1.1 8.1,0.7c0,0 1,0 1.2,0.3c0,0 1.2,0.9 1.9,-0.1c0,0 1.1,-0.2 4.2,-0.1c0,0 3.4,0.9 5.8,-1.1l0.8,0.1c0,0 1,1.6 1.7,1.1c0,0 2.1,-0.2 2.5,0.2c0,0 0.7,1 0.3,3.8c0,0 -0.4,1.2 1.6,1.2c0,0 2.3,-0.4 2,1.7c0,0 0.6,2.5 -3.2,2.1c0,0 -0.5,0.7 -0.4,1.2c0,0 -0.1,8 -0.1,8.9c0,0 -0.1,1.3 1.6,1.2c0,0 2.2,-0.1 2.3,1.9c0,0 0.3,2.7 -2.9,2.2c0,0 -1,0.1 -1.1,0.8l-0.1,3.5c0,0 0.1,1.8 -1.9,1.3c-0.3,0 -10.9,0.2 -11.8,-0.1c-0.2,0.1 -0.7,0 -0.8,0.3" class="st0"/>
  <path id="svg_7" fill="#FFFFFF" clip-rule="evenodd" fill-rule="evenodd" d="m66.6,39.80001c0,0 -1.3,0 -1.3,1.8c0,0 0.1,1.3 1.5,1.3c0,0 1.3,-0.2 1.1,-1.6c0.1,0 -0.6,-1.8 -1.3,-1.5zm15.9,-18.7c0,0 -0.7,0.4 -0.5,1.3l-0.2,10.2c0,0 -0.1,1.7 1.5,1.7c0,0 1.7,-0.1 2.1,0.5c0,0 1.2,1.8 -1.4,1.6c0,0 -1.6,-0.1 -2,0.2c0,0 -0.3,0.3 -0.5,3.6c0,0 0.1,2 -1.3,1.7c0,0 -9.7,0.1 -10.7,-0.1c0,0 -1,0.3 -1.1,-0.5c0,0 0,-0.6 1,-0.6l9.8,-0.1c0,0 0.9,0.5 0.9,-1.2c0,0 0.4,-7.6 0.4,-16c0,-2.5 0.1,-5.1 0,-7.6c0,0 -0.2,-1.1 -0.5,-1.3c0,0 0,-1.1 1.2,-0.7c0,0 1.1,0.1 0.8,1.7l0.1,2.4c0,0 -0.2,1.1 1.7,0.8c0,0 1.9,0.3 2,1c0,0 0.6,1.4 -1.7,1.3l-1.6,0l0,0.1zm-29.8,20.8c-1.4,-0.1 -1.3,-1.1 -1.3,-1.1l0,-2.7c0.1,-1.4 -1.4,-1.7 -1.4,-1.7c-2,0.4 -2.5,-0.8 -2.5,-0.8c-0.1,-1.5 2.3,-1.3 2.3,-1.3c2,0 1.4,-1.8 1.4,-1.8l0.1,-10.6c-0.1,-1 -2.7,-1 -2.7,-1c-1.6,0.3 -1.2,-1.3 -1.2,-1.3c0.8,-0.8 2.5,-0.7 2.5,-0.7c1.5,0.1 1.5,-1.5 1.5,-1.5l0.1,-2.9c1.6,-1.5 1.9,-0.3 1.9,-0.3c-0.9,1.4 -0.7,4.8 -0.7,4.8l-0.1,-0.3c0.1,0.3 -0.1,20.1 -0.1,20.1c0.1,2.2 1.6,1.7 1.6,1.7l9.1,0.1c0.8,0 0.9,0.6 0.9,0.6c0,0.7 -0.6,0.6 -0.6,0.6l-10.8,0l0,0.1zm1.9,-3.1c0,0 -0.3,1 0.8,0.8l7.2,0l2,0.4c0,0 2,-0.5 0,-1.6c0,0 -6.4,0.1 -7,-0.1l-1.6,-0.4c0,0 -0.7,-0.2 -1.4,0.9l0,0zm13,0.3c0,0 0.6,-0.7 1.1,-0.7c0,0 7,0.6 8.2,-0.2c0,0 1.1,-0.2 1.3,0c0,0 1,0.8 1,1.3c0,0 -0.1,0.6 -1.3,0.3c0,0 -7.9,0.1 -8.3,0.1c0,0 -2.2,0.5 -2,-0.8zm-14,-0.4c-0.1,0 -0.3,0 -0.4,-0.8l0.1,-21c0,0 0.1,-2.6 1.5,-2.5c0,0 0.1,1.4 0.1,1.8c0,0.3 -0.2,20.3 -0.2,20.3s0.3,1.4 -1.1,2.2l0,0l0,0zm26.4,-20.6l-0.3,19.2c-0.1,0.7 -0.2,1.1 -0.2,1.1c-0.9,0.2 -1.5,-1.8 -1.5,-1.8l0.1,-22.1c1.2,-1.7 1.9,1.7 1.9,1.7l0,0l0,1.9zm-13,-3.3c0,0 -0.2,10.6 -0.1,10.9l-0.1,8.9l-0.3,3.1c0,0 0.4,0.6 0.8,0.2c0,0 2.2,-0.6 3.6,-0.3c0,0 4.5,0.4 5.4,-0.3c0,0 0.7,0.4 0.9,-0.8c0,0 0.3,-19.6 0.1,-20c0,0 0.3,-2.8 0.1,-3.1c0,0 -0.1,-0.6 -1.3,-0.1c0,0 0.1,0.6 -6.5,0.3c0,0.2 -2.5,0.1 -2.6,1.2l0,0zm-11.1,-1.1l-0.2,22.5c0,0 -0.1,1 1.7,1.3c0,0 2,0.2 2.5,0c0,0 1.3,-0.1 4.8,0.1c0,0 0.8,0.8 0.9,-0.2c0,0 0.6,-18.2 0.3,-22c0,0 -0.1,-1.6 -1.3,-1.7c0,0 -5.3,0.4 -5.8,0l-2.1,-0.6c0,0 -0.9,0 -0.8,0.6l0,0z" class="st2"/>
  <path id="svg_8" fill="#231F20" clip-rule="evenodd" fill-rule="evenodd" d="m62,20.70001c2.8,0.9 2.4,2.9 2.4,2.9c0.2,2 -2,2.9 -2,2.9l-0.1,1.1l2,3.2c0.3,0.3 0.3,0.6 0.3,0.6c-0.3,0.8 -1.4,0 -1.4,0l-2.5,-3.9c-0.2,-0.3 -0.6,0.2 -0.6,0.2l-0.1,2.2l0.6,1c0.4,0.6 -0.3,1 -0.3,1l-2.2,-0.2c-0.4,-0.2 0,-0.9 0,-0.9c0.6,-0.3 0.6,-1.3 0.6,-1.3l-0.1,-4.1l0.1,-2.9c0,-0.4 -0.6,-1 -0.6,-1c-0.5,-0.1 -0.3,-0.7 -0.3,-0.7c0.1,-0.4 1.3,-0.1 1.3,-0.1l2.9,0zm7.5,0.5c-0.2,-0.6 1.2,-0.6 1.2,-0.6l0.7,0.1c0.5,-0.1 1,0.1 1,0.1c0.5,0.8 -0.4,1.2 -0.4,1.2l-0.3,0.9c-0.1,0.8 0,7.4 0,7.4c0.1,0.3 0.7,1 0.7,1c0,0.6 -0.8,0.5 -0.8,0.5l-2,0.1c-0.6,-0.1 -0.4,-0.8 -0.4,-0.8c0.7,-0.3 0.9,-1.6 0.9,-1.6l0,-6.9l-0.6,-1.4zm-9.4,1c0.1,1.5 0.1,3.6 0.1,3.6c1.3,1.1 2.1,-0.4 2.1,-0.4c1.7,-1.7 0,-3.2 -0.3,-3.6c-0.3,-0.4 -1.7,-0.1 -1.7,-0.1l-0.2,0.5zm-14.6,32.7c0,0 0.5,-0.2 0.6,-0.6c0,0 1.5,-0.1 1.7,-0.4l4.6,0.4c0,0 4.6,0.3 6.5,-1.1c0,0 0.7,0 1.2,0.2c0,0 1,0.2 1.3,0.6l2.7,-0.1c0,0 1.5,0.5 1.4,1.5l0,1.3c0,0 -0.3,2.5 0.4,2.7l2,0c0,0 1.7,0.8 1.5,1.7c0,0 0.1,1.4 -1.4,1.7c0,0 -1.5,0.4 -2,0.4c0,0 -0.5,0.6 -0.6,1.4l-0.2,9.2c0,0 -0.1,1 1.3,0.8c0,0 2.2,-0.2 2.8,1c0,0 0.6,2 -0.6,2.4l-0.8,0.4l-1.8,0.3c0,0 -0.8,0.1 -0.8,1.4l0,2.4c0,0 0.1,1.7 -1.3,1.7l-2,0.1c0,0 -0.5,0.4 -1.5,0.1c0,0 -11.9,0.2 -12.3,0.1l-1.4,0.3c0,0 -1.5,1.4 -2.8,0.3l-1,-0.8c0,0 -0.7,0.1 -1,0.1c-0.3,-0.1 -13.2,0.1 -13.2,0.1s-2.7,0.3 -2.9,-0.6c0,0 -0.3,-3.6 -0.2,-4c0,0 0,-1 -0.6,-1.1c0,0 -2.7,-0.1 -2.8,-0.4c0,0 -1.5,-1 -1.1,-2.1c0,0 0.5,-1.4 2,-1.5c0,0 2.2,0.4 2.2,-0.3c0,0 0.1,-0.4 0.1,-1.1c0,0 0.1,-8.3 0.1,-8.9c0,0 0.2,-1.1 -0.7,-1.1c0,0 -1,0.3 -1.6,-0.1c0,0 -1.7,0.1 -2,-1.3c0,0 -0.3,-0.8 0.1,-1.5c0,0 0.8,-1.5 3,-1c0,0 1.3,0.4 1.4,-0.6l-0.1,-3.4c0,0 -0.3,-0.9 1.5,-1.4c0,0 2.2,0.6 2.9,-0.5c0,0 0.8,-1.5 1.4,-0.5c0,0 1.3,1.3 5,1.1c0,0 6.3,-0.5 6.4,-0.2c0,0 1.5,0.2 2,0.7l0.6,0.2z" class="st0"/>
  <path id="svg_9" fill="#FFFFFF" clip-rule="evenodd" fill-rule="evenodd" d="m45.1,81.10001c0,0 1.2,0.2 1.2,1.3c0,1.1 0.1,1.8 -0.6,1.9c-0.7,0.1 -1.5,-0.1 -1.7,-1c-0.2,-0.8 0.1,-2 1.1,-2.2zm-16.3,-25.3c0,0 -0.8,1.5 -0.8,1.9l-0.1,4.7c0,0 -0.1,3 0,3.4c0.1,0.3 -0.1,9.2 -0.1,9.2s-0.1,1.7 0,2.2l0,3.8c0,0 -0.1,1.7 1.1,1.3c0,0 12.3,-0.3 13.1,-0.1c0,0 1.1,0.2 0.7,0.8c0,0 0,0.5 -0.8,0.4c0,0 -5.8,0.6 -11.1,0.3c0,0 -3.5,0.2 -3.7,-0.2c0,0 -0.6,-0.1 -0.6,-2.1c0,0 0,-1.9 -0.1,-2.2c0,0 0.1,-1 -1.6,-1.2c0,0 -2.5,0.4 -2.5,-1c0,0 0.3,-1.1 2.7,-0.9c0,0 1.8,0.3 1.4,-1.1l0.2,-10.4c0,0 0.2,-1.8 -1,-1.9c0,0 -1.1,-0.1 -1.5,0.1c0,0 -2,0 -1.9,-1.2c0,0 0.7,-1.3 2.7,-1c0,0 1.5,0.3 1.6,-1.5c0,0 -0.1,-3.6 0.8,-3.7c0.2,-0.1 2,-0.1 1.5,0.4l0,0zm34.1,-0.5c0.2,-0.1 1.2,-0.3 1.4,0.1c0,0 0.6,1.7 0.1,2.7c0,0 -0.1,2 0.9,2c0,0 0.4,0.4 1.3,0.2c0,0 1.8,0.2 1.8,0.8c0,0 0,1.3 -1.3,1.1l-1.7,0.1c0,0 -1.1,0.2 -1,1.5c0.1,1.3 -0.1,10.9 -0.1,10.9s0,1.1 1.8,1.1c0,0 2.2,-0.1 2.2,0.6c0,0 0.6,1.4 -1,1.5c0,0 -2.9,-0.1 -2.7,0.8c0,0 -0.2,2 -0.4,2.3c0,0 0.3,1.6 -0.1,1.9c0,0 -0.2,0.9 -2.1,0.8c0,0 -12.1,-0.1 -13.9,0.1c0,0 -1.1,-0.1 -0.8,-1.1c0,0 0.8,-0.4 1.4,-0.3c0.6,0.1 8.8,-0.1 8.8,-0.1s3.6,0.3 4.1,-0.2l0.8,-0.3c0,0 0.4,-0.4 0.4,-1c0,-0.6 0.1,-2.5 0.1,-2.5l0.2,-0.7c0,0 -0.1,-0.7 0,-19.4c0,0 0.3,-1.5 -0.6,-2.4c0,0 0,-0.6 0.3,-0.5l0.1,0l0,0l0,0zm-5.5,24.6c0.1,0 1.7,0 2.2,-0.6c0,0 0.5,-0.1 0.8,0.4l1,1.1c0,0 0.1,0.7 -1.1,0.6l0,0c-0.2,0 -11.4,0 -11.8,0.1c0,0 -2.2,0.3 -2,-0.8c0,0 1.3,-0.8 1.8,-0.7c0,0 6.4,0.4 8.3,0.1c0.9,-0.2 1.1,-0.2 1.1,-0.2l-0.3,0zm-26.5,-0.9c0,0 0.2,0.2 0.5,0.4l0,0c0.4,0.3 1.2,0.6 2.1,0.6l9.5,0.1l0.1,0c0,0 1.1,0.1 1,0.6c0,0 -0.1,0.8 -1.4,0.6l-11.5,-0.1l-1.2,0.1l0,0l0,0c0,0 -0.8,-0.1 0.5,-1.8l0.4,-0.5l0,0zm-0.7,-1c0,0.5 -0.1,1.4 -1,2c0,0 -0.6,0.8 -0.6,-0.4l0.3,-21.6c0,0 0.1,-1.6 1.1,-2.3c0,0 0.5,0 0.4,0.8l-0.2,21.2l0,0.3zm31.4,2c-0.4,-0.2 -1.3,-1.8 -1.3,-1.8l0.1,-0.5l0.1,-21.5c0,-1.1 0.9,-0.4 0.9,-0.4l0.8,1.5c-0.2,1.1 0,1.8 0,1.8l-0.1,20.2c0.2,1.4 -0.4,0.8 -0.5,0.7l0,0zm-16.8,-11.5c0,0 0.1,1.7 -0.1,3.3c-0.1,0.9 0.3,5 -0.1,7.1c0,0 -0.1,0.7 -1.5,0.1c0,0 -9,0.2 -9.2,-0.1c0,0 -2.5,0.1 -2.7,-1.2c0,0 0.3,-9.6 0.1,-10c0,0 -0.1,-5.3 0,-5.7c0,0 0.2,-4.8 0.1,-5.4c0,0 0.1,-1.1 -0.1,-1.7c0,0 0,-0.7 1.2,-0.3c0,0 0.4,0.8 2.7,0.4c0,0 1.7,0.3 3.3,0.1c0,0 3.6,-0.3 4.5,0c0,0 1.4,-0.3 1.8,1.3l-0.1,4.3l0.4,1.4l0.5,-0.3l0.2,-1.1l0.1,-4.6c0,0 0.3,-0.8 1.4,-1c0,0 1.8,-0.2 2,-0.1c0.3,0.1 4.1,0.3 5.1,0.1c1,-0.2 1.3,0.7 4.4,-0.9c0,0 0.8,0.1 0.8,0.6c0,0 -0.3,6 0,7.1c0,0 0,10.9 -0.2,11.7l0.1,3.5c0,0 0.1,1.5 -2.3,1.7c0,0 1.5,0.2 -8.1,-0.1c0,0 -1.5,-0.1 -3.2,0.7c0,0 -0.3,-0.1 -0.3,-1c0,0 0.3,-3.3 0,-6.5l-0.1,-3.6l-0.7,0.2z" class="st2"/>
  <path id="svg_10" fill="#231F20" clip-rule="evenodd" fill-rule="evenodd" d="m38.5,63.50001c0,0 0.2,5.2 0,5.9l-0.1,1.1c0,0 0.3,0.8 0.7,1c0,0 0.4,1 -0.5,0.9c0,0 -1.7,-0.1 -2.2,-0.1c0,0 -1,0 0,-1.3c0,0 0.3,-0.5 0.3,-1.8c0,0 0,-5.9 0.1,-6.2c0,0 0.1,-0.8 -0.4,-1l-0.8,0.1l-1,1c0,0 -0.2,1.1 -0.7,-0.1l0,-0.6l0.6,-1.7l0.4,-0.1c0,0 0.6,0.4 1.2,0.6l3.3,0l1.2,-0.6c0,0 0.5,0.1 0.4,0.7c0,0 0.2,1.6 -0.7,1.8c0,0 -0.6,-0.2 -0.8,-1c-0.1,0.3 -1,-0.2 -1,1.4l0,0zm15.4,-1.8c0,0 -2.7,-0.2 -2.7,2.7c0,0 -0.3,2 2.7,3.2c0,0 2.2,1 2,2.4c0,0 -0.3,2.4 -2.6,1.2c0,0 -1.1,-0.6 -1,-1.2c0,0 -0.4,-0.8 -0.8,-0.6c0,0 -0.5,0.1 -0.3,2.5c0,0 0,0.9 1,0l0.6,0.1c0,0 1.9,1.5 3.5,-0.4c0,0 1.8,-1.6 0.5,-3.6c0,0 -0.9,-1.4 -2.5,-2.1c0,0 -1.5,-0.7 -1.9,-1.9c0,0 0.5,-2.1 2.4,-1c0,0 0.7,0.8 1.1,1c0,0 0.6,0 0.4,-1.3l-0.1,-1c0,0 -0.1,-0.8 -1.1,0c0,0 -0.9,0.3 -1.2,0l0,0zm-8.5,-1.5c0.5,0.4 0.6,1.1 0.6,1.1c1.4,3.7 2.6,9.1 2.6,9.1c0.3,0.7 1,1.3 1,1.3c1.2,0.4 0,0.8 0,0.8c-0.5,0.2 -2.1,-0.1 -2.1,-0.1c-0.8,-0.2 -0.5,-0.4 -0.5,-0.4c0.4,-0.3 0.1,-1.8 0.1,-1.8c-0.1,-0.6 -0.7,-1.5 -0.7,-1.5c-0.3,-0.1 -0.8,0.5 -0.8,0.5s-0.8,0.3 -0.8,0c-0.1,-0.3 -0.6,-0.5 -0.6,-0.5c-0.8,0 -1.2,2.1 -1.2,2.1c0.5,1.8 0,1.5 0,1.5c-0.4,0.6 -1.8,0.2 -1.8,0.2c-0.6,-0.2 -0.2,-0.6 -0.2,-0.6c0.8,-0.1 1,-1 1,-1c0.4,-0.5 2.6,-9.6 2.6,-9.6c0.2,-0.6 0.3,-1.5 0.8,-1.1l0,0zm-1.1,4.6c-0.1,0.4 -0.6,2.3 -0.6,2.3l0.4,0.7c0,0 1.1,0.1 1.5,0.1c0.4,0 0.5,-0.3 0.5,-0.7c0,-0.3 -0.8,-2.4 -0.8,-2.4l-0.4,-0.4l-0.6,0.4zm-17.9,-21.6c0,0 -0.8,2.5 -4.2,-0.1l-11.8,-0.3c0,0 -1.5,0.5 -1.8,-1.1c0,0 0.3,-3.2 0.1,-3.5c0,0 0.1,-0.9 -1.5,-0.9c0,0 -2.4,0.3 -2.4,-1.8c0,0 -0.4,-2.3 2.9,-2.2c0,0 1,0.5 1.1,-0.8c0,0 -0.1,-9.1 -0.1,-9.8c0,0 0.3,-0.8 -1.3,-1c0,0 -2.3,0.5 -2.6,-1.1c0,0 -0.1,-2.3 1.4,-2.5c0,0 1.9,0.1 2.2,-0.3c0,0 0.4,0.3 0.3,-1.4l0.1,-2.9c0,0 0.2,-0.8 1.4,-0.7c0,0 2.2,0.1 2.5,-0.1c0,0 0.5,-0.6 0.6,-0.9c0,0 1.1,-0.1 1.3,0.2c0,0 1.7,1.1 8.1,0.7c0,0 1,0 1.2,0.3c0,0 1.2,0.9 1.9,-0.1c0,0 1.1,-0.2 4.2,-0.1c0,0 3.4,0.9 5.8,-1l0.8,0.1c0,0 1,1.6 1.7,1.1c0,0 2.1,-0.2 2.5,0.2c0,0 0.7,1.1 0.3,3.8c0,0 -0.4,1.2 1.6,1.2c0,0 2.3,-0.4 2,1.7c0,0 0.6,2.5 -3.2,2.1c0,0 -0.5,0.7 -0.4,1.2c0,0 -0.1,8 -0.1,8.9c0,0 -0.1,1.3 1.6,1.2c0,0 2.2,-0.1 2.3,1.9c0,0 0.3,2.7 -2.9,2.2c0,0 -1,0.1 -1.1,0.8l-0.1,3.5c0,0 0.1,1.8 -1.9,1.3c-0.3,0 -10.9,0.2 -11.8,-0.1c-0.1,0.1 -0.5,0 -0.7,0.3" class="st0"/>
  <path id="svg_11" stroke-width="0.06055" stroke="#030404" fill="#231F20" clip-rule="evenodd" fill-rule="evenodd" d="m13.2,14.30001c0,0 0.1,1.4 0.1,1.7c0,0.3 -0.2,20.3 -0.2,20.3s0.2,1.5 -1.1,2.3c0,0 -0.3,0.1 -0.4,-0.8l0.1,-21c0,0 0.1,-2.6 1.5,-2.5l0,0zm23.2,0.3l-0.1,22.1c0,0 0.6,2 1.5,1.8c0,0 0.1,-0.4 0.2,-1.1l0.3,-21.1c0,-0.1 -0.7,-3.4 -1.9,-1.7z" class="st3"/>
  <path id="svg_12" fill="#FFFFFF" clip-rule="evenodd" fill-rule="evenodd" d="m24.7,40.00001c0,0 -1.3,0 -1.3,1.7c0,0 0.1,1.3 1.5,1.3c0,0 1.3,-0.2 1.1,-1.6c0.1,0.1 -0.6,-1.7 -1.3,-1.4l0,0zm16.1,-18.9c0,0 -0.7,0.4 -0.5,1.3l-0.2,10.2c0,0 -0.1,1.8 1.5,1.7c0,0 1.8,-0.1 2.1,0.5c0,0 1.2,1.8 -1.4,1.6c0,0 -1.6,-0.1 -2,0.2c0,0 -0.3,0.4 -0.5,3.6c0,0 0.1,2 -1.3,1.8c0,0 -9.7,0.1 -10.6,-0.1c0,0 -1,0.3 -1.1,-0.5c0,0 0,-0.6 1,-0.6l9.8,-0.1c0,0 0.9,0.5 0.9,-1.2c0,0 0.4,-7.6 0.4,-16.1c0,-2.5 0.1,-5.1 0,-7.6c0,0 -0.2,-1 -0.5,-1.3c0,0 0,-1.1 1.2,-0.7c0,0 1,0.1 0.8,1.7l0.1,2.5c0,0 -0.2,1 1.7,0.8c0,0 1.9,0.3 2,1c0,0 0.6,1.4 -1.7,1.3l-1.7,0zm-29.8,20.8c-1.4,-0.1 -1.3,-1.1 -1.3,-1.1l0,-2.7c0.1,-1.4 -1.4,-1.7 -1.4,-1.7c-2,0.4 -2.5,-0.8 -2.5,-0.8c-0.1,-1.5 2.3,-1.3 2.3,-1.3c2,0 1.4,-1.8 1.4,-1.8l0.1,-10.6c-0.1,-1 -2.7,-1 -2.7,-1c-1.6,0.3 -1.2,-1.3 -1.2,-1.3c0.8,-0.8 2.5,-0.7 2.5,-0.7c1.5,0.1 1.5,-1.5 1.5,-1.5l0.1,-2.9c1.6,-1.5 1.9,-0.3 1.9,-0.3c-0.9,1.4 -0.7,4.8 -0.7,4.8l-0.1,-0.3c0.1,0.4 -0.1,20.1 -0.1,20.1c0.1,2.2 1.6,1.7 1.6,1.7l9.1,0.1c0.8,0 0.9,0.6 0.9,0.6c0,0.7 -0.6,0.6 -0.6,0.6l-10.8,0.1zm2.5,-2.1c-1,0.2 -0.8,-0.8 -0.8,-0.8c0.6,-1.2 1.3,-0.9 1.3,-0.9c0.3,0.1 1.6,0.4 1.6,0.4c0.6,0.1 7,0.1 7,0.1c2,1.1 0,1.6 0,1.6l-2,-0.4l-7.1,0zm12.2,-0.5c0,0 0.6,-0.7 1.1,-0.7c0,0 7,0.6 8.2,-0.2c0,0 1.1,-0.2 1.3,0c0,0 1.1,0.8 1.1,1.3c0,0 -0.1,0.6 -1.3,0.3c0,0 -7.9,0.1 -8.3,0.1c-0.1,0 -2.3,0.5 -2.1,-0.8zm-12.5,-25c0,0 0.1,1.4 0.1,1.7s-0.2,20.3 -0.2,20.3s0.2,1.5 -1.1,2.3c0,0 -0.3,0.1 -0.4,-0.8l0.1,-21c0,0 0.1,-2.6 1.5,-2.5l0,0zm23.2,0.3l-0.1,22.1c0,0 0.6,2 1.5,1.8c0,0 0.1,-0.4 0.2,-1.1l0.3,-21.1c0,-0.1 -0.7,-3.4 -1.9,-1.7zm-11.1,0.1c0,0 -0.2,10.6 -0.1,10.9l-0.1,8.9l-0.3,3.1c0,0 0.4,0.6 0.8,0.2c0,0 2.2,-0.6 3.6,-0.3c0,0 4.5,0.4 5.4,-0.3c0,0 0.7,0.3 0.9,-0.8c0,0 0.3,-19.6 0.1,-20c0,0 0.3,-2.8 0.1,-3.1c0,0 -0.1,-0.6 -1.3,-0.1c0,0 0.1,0.6 -6.5,0.4c0.1,0.1 -2.5,0 -2.6,1.1zm-11.1,-1l-0.2,22.5c0,0 -0.1,1 1.7,1.3c0,0 2,0.2 2.5,0c0,0 1.3,-0.1 4.8,0.1c0,0 0.8,0.8 0.9,-0.2c0,0 0.6,-18.2 0.3,-22c0,0 -0.1,-1.6 -1.3,-1.7c0,0 -5.3,0.4 -5.8,0l-2.1,-0.6c0,0 -0.9,0 -0.8,0.6z" class="st2"/>
  <g id="svg_13">
   <path id="svg_14" fill="#231F20" clip-rule="evenodd" fill-rule="evenodd" d="m27.2,22.30001l-0.1,7.4l-0.2,0.6c0,0 -0.7,0.9 -0.2,1c0,0 -0.6,0.4 4.5,0.5c0,0 2,0.3 1.5,-2.2c0,0 -0.2,-0.9 -0.9,0.4c0,0 -0.2,1.1 -2.7,0.8c0,0 -0.6,-0.5 -0.6,-1l0,-3.1c0,0 -0.1,-0.8 1.1,-0.7c0,0 1.3,0.8 1.5,0.5c0,0 0.5,-1.1 0,-1.8c0,0 -0.6,-0.1 -0.7,0.2c0,0 -0.4,0.8 -1.6,0.3c0,0 -0.6,-1.1 -0.2,-2c0,0 -0.1,-1.8 1.1,-1.6c0,0 1.4,0.3 1.5,0.7c0,0 0.3,0.8 0.7,-0.1l-0.4,-1.2c0,0 -0.2,-0.5 -0.6,-0.4c0,0 -2.4,0.4 -2.7,0.1l-1.9,0.2c0,0 -0.3,0.7 0.6,1c0.1,0 0.3,0.2 0.3,0.4l0,0zm-4.1,-1.1l-0.6,1.3c0,0 -1.5,6.8 -2.4,8.2c0,0 -0.1,1.4 -1.3,0.3c0,0 -2.7,-8.6 -2.9,-8.9l-0.9,-0.6c0,0 -0.6,-0.8 0.4,-0.8l2.6,0.1c0,0 0.8,0.7 -0.3,1.5c0,0 0.1,1.1 1.6,5.4c0,0 0.4,1.6 0.9,0.4l1.4,-5l-0.4,-1.5c0,0 -0.4,-0.7 0.2,-0.8c0.1,0 1.5,-0.1 1.7,0.4z" class="st0"/>
   <path id="svg_15" fill="#231F20" clip-rule="evenodd" fill-rule="evenodd" d="m168.5,77.50001c0,-0.9 -0.6,-1.6 -1.9,-1.9l0,-0.6l3.7,0.1c0.6,0 2.8,-0.1 3.5,-0.1l0,0.6c-1.2,0.2 -1.8,0.9 -1.8,1.9l0,11.9c0,3.8 2.1,5.9 6.4,5.9c3.7,0 6.7,-1.7 6.7,-5.6l0,-12.3c0,-0.9 -0.6,-1.6 -2,-1.9l0,-0.6c0.5,0 2.4,0.1 3.1,0.1l3.1,-0.1l0,0.6c-1.4,0.3 -2,0.9 -2,1.9l0,11.6c0,5.2 -3,8.2 -9.6,8.2c-6.1,0 -9.2,-2.8 -9.2,-7.7l0,-12zm26.1,18.8c1.4,-0.3 2,-1 2,-1.9l0,-16.5c0,-1.4 -0.7,-2 -2,-2.4l0,-0.6c0.7,0.1 1.9,0.1 2.5,0.1c0.6,0 1.4,0 2,-0.1l14.3,16.8l0,-14.4c0,-0.9 -0.6,-1.6 -2,-1.9l0,-0.6c0.5,0 2.4,0.1 3,0.1l3.1,-0.1l0,0.6c-1.4,0.3 -2,0.9 -2,1.9l0,19.8l-0.9,0c-0.5,-0.1 -1.6,-0.7 -3.1,-2.4l-12.8,-14.9l0,14.5c0,0.9 0.5,1.6 1.9,1.9l0,0.6c-0.5,0 -2.4,-0.1 -3,-0.1l-3,0.1l0,-0.5zm112.9,-4.5l0.6,0c0.3,1.2 1,2.4 2,3c1,0.7 2.6,1.1 3.9,1.1c2.9,0 4.7,-1.4 4.7,-3.7c0,-2.3 -2.3,-3.5 -5.1,-4.9c-2.1,-1 -6.2,-2.8 -6.2,-6.7c0,-3.7 2.8,-6 7.3,-6c3,0 4.4,0.7 6.4,0.6l0,4.5l-0.6,0c-0.8,-2.6 -3.2,-3.6 -5.8,-3.6c-2.9,0 -4,1.7 -4,3.4c0,2.4 2.4,3.7 5.1,4.9c3,1.4 6.3,3.1 6.3,6.9c0,3.6 -2.8,6.2 -8,6.2c-3.1,0 -4.9,-0.9 -6.5,-1.1l-0.1,-4.6zm61.5,-4l-5.8,-9.3c-1,-1.6 -1.8,-2.5 -2.9,-2.9l0,-0.6c0.8,0 3,0.1 3.6,0.1c0.6,0 2.9,-0.1 3.7,-0.1l0,0.6c-0.7,0.1 -1.1,0.5 -1.1,1.1c0,0.5 0.3,1.1 0.7,1.7c0.3,0.5 4.3,7.1 4.3,7.1l4.1,-7.1c0.4,-0.7 0.7,-1.4 0.7,-1.9c0,-0.4 -0.3,-0.8 -1,-0.9l0,-0.6c0.7,0 2.2,0.1 2.6,0.1c0.5,0 2.2,-0.1 2.9,-0.1l0,0.6c-1.6,0.7 -2.6,2 -3.5,3.7l-5.3,8.9m0.3,-1.3l0,7.5c0,0.7 0.6,1.7 1.8,1.9l0,0.6l-3.7,-0.1c-0.6,0 -2.8,0.1 -3.6,0.1l0,-0.6c1.3,-0.2 1.9,-1.2 1.9,-1.9l0,-7.1" class="st0"/>
   <path id="svg_16" fill="#231F20" clip-rule="evenodd" fill-rule="evenodd" d="m260.7,74.90001l13.7,0c0.4,0 1.2,0 1.6,-0.2l0.6,0l-0.1,4.4l-0.6,0c-0.5,-1.4 -1.1,-2.5 -3.7,-2.5l-5.9,0l0,7.7l4.6,0c0.7,0 1.5,-0.1 1.8,-0.1c1,-0.2 1.5,-0.8 1.7,-1.7l0.6,0c0,0.7 0,2.2 0,2.6c0,0.5 0,2.1 0,2.8l-0.6,0c-0.3,-0.9 -0.7,-1.5 -1.7,-1.8c-0.3,-0.1 -1.2,-0.2 -1.8,-0.2l-4.6,0l0,9.1l6.4,0c2.8,0 3.6,-1.2 4.3,-2.8l0.6,0.1l-0.6,4.6c-2.1,-0.2 -3.4,-0.2 -5.7,-0.2l-6.8,0l-3.8,0.1l0,-0.6c1.2,-0.2 1.9,-0.8 1.9,-2l0,-16.8c0,-1 -0.6,-1.7 -1.9,-1.9l0,-0.6zm-34.9,2.7c0,-1.1 -0.7,-1.7 -2,-2l0,-0.6l3.8,0.1c0.6,0 3,-0.1 3.8,-0.1l0,0.6c-1.3,0.3 -2,0.8 -2,2l0,16.7c0,1.1 0.7,1.7 2,2l0,0.6l-3.8,-0.1c-0.6,0 -3.1,0.1 -3.8,0.1l0,-0.6c1.3,-0.3 2,-0.8 2,-2l0,-16.7zm103.7,0c0,-1.1 -0.7,-1.7 -2,-2l0,-0.6l3.8,0.1c0.6,0 3,-0.1 3.8,-0.1l0,0.6c-1.3,0.3 -2,0.8 -2,2l0,16.7c0,1.1 0.7,1.7 2,2l0,0.6l-3.8,-0.1c-0.6,0 -3.1,0.1 -3.8,0.1l0,-0.6c1.3,-0.3 2,-0.8 2,-2l0,-16.7zm19,-2.6c-7.5,0 -8.7,-0.1 -10.2,-0.2l0,4.5l0.6,0c0.6,-2 1.7,-2.5 3.1,-2.5l4.7,0l0,17.4c0,1.2 -0.6,1.8 -2,2l0,0.6c0.7,0 3.2,-0.1 3.8,-0.1l3.8,0.1l0,-0.6c-1.3,-0.3 -2,-0.9 -2,-2l0,-17.4l4.7,0c1.5,0 2.6,0.5 3.1,2.5l0.6,0l0,-4.5c-1.6,0.1 -2.8,0.2 -10.2,0.2" class="st0"/>
   <path id="svg_17" fill="#231F20" clip-rule="evenodd" fill-rule="evenodd" d="m288.7,94.30001c0,1.1 0.7,1.7 2,2l0,0.6l-3.8,-0.1c-0.6,0 -2.9,0.1 -3.7,0.1l0,-0.6c1.2,-0.2 1.9,-0.8 1.9,-2l0,-16.8c0,-1 -0.6,-1.7 -1.9,-1.9l0,-0.6l3.7,0.1c1.1,0 4.1,-0.2 5.3,-0.2c5.2,0 8.2,2.2 8.2,5.9c0,2.9 -2.2,4.9 -5.5,5.7c0,0 0.8,0.4 1.5,1.3c0.9,1.1 3.4,4.7 4.5,5.9c1,1.3 2.4,2.7 3.8,2.7l0,0.5c-0.7,0.1 -1.8,0.3 -2.6,0.3c-1.8,0 -3.2,-0.6 -4.6,-2.3c-1.2,-1.5 -3.2,-4.5 -4.4,-6c-0.8,-1 -1.7,-1.7 -3.4,-2c-0.3,-0.1 -0.6,-0.1 -1,-0.1l0,7.5zm0,-9c0.7,0.1 1.7,0.1 2.7,0.1c4.1,0 5.4,-2.4 5.4,-4.5c0,-3 -2,-4.8 -5.6,-4.8c-0.7,0 -1.8,0.1 -2.6,0.2l0,9l0.1,0zm-52,-7.6c-0.5,-1.1 -1.2,-1.8 -2.5,-2.1l0,-0.6c0.8,0 3.5,0.1 4.1,0.1c0.5,0 2.9,-0.1 3.7,-0.1l0,0.6c-0.7,0.1 -1.5,0.5 -1.5,1.3c0,0.5 0.3,1.2 0.9,2.6l5.7,12.9l5.4,-12.9c0.4,-1 0.7,-1.8 0.7,-2.5c0,-0.7 -0.6,-1.2 -1.5,-1.3l0,-0.6c0.7,0 2.5,0.1 3,0.1c0.5,0 2.5,-0.1 3.3,-0.1l0,0.6c-1.3,0.4 -2.1,1.1 -2.9,2.8l-7.9,18.6l-1.8,0l-8.7,-19.4z" class="st0"/>
  </g>
 </g>
</svg>