<svg id="language_black_24dp" xmlns="http://www.w3.org/2000/svg" width="36" height="36" viewBox="0 0 36 36">
  <path id="Path_27" data-name="Path 27" d="M0,0H36V36H0Z" fill="none"/>
  <path id="Path_28" data-name="Path 28" d="M17.984,2A16,16,0,1,0,34,18,15.992,15.992,0,0,0,17.984,2Zm11.088,9.6h-4.72a25.039,25.039,0,0,0-2.208-5.7A12.847,12.847,0,0,1,29.072,11.6ZM18,5.264A22.539,22.539,0,0,1,21.056,11.6H14.944A22.539,22.539,0,0,1,18,5.264ZM5.616,21.2a12.516,12.516,0,0,1,0-6.4h5.408A26.425,26.425,0,0,0,10.8,18a26.425,26.425,0,0,0,.224,3.2Zm1.312,3.2h4.72a25.039,25.039,0,0,0,2.208,5.7,12.779,12.779,0,0,1-6.928-5.7Zm4.72-12.8H6.928a12.779,12.779,0,0,1,6.928-5.7,25.039,25.039,0,0,0-2.208,5.7ZM18,30.736A22.539,22.539,0,0,1,14.944,24.4h6.112A22.539,22.539,0,0,1,18,30.736ZM21.744,21.2H14.256A23.54,23.54,0,0,1,14,18a23.336,23.336,0,0,1,.256-3.2h7.488A23.336,23.336,0,0,1,22,18,23.54,23.54,0,0,1,21.744,21.2Zm.4,8.9a25.039,25.039,0,0,0,2.208-5.7h4.72A12.847,12.847,0,0,1,22.144,30.1Zm2.832-8.9A26.424,26.424,0,0,0,25.2,18a26.424,26.424,0,0,0-.224-3.2h5.408a12.516,12.516,0,0,1,0,6.4Z"/>
</svg>
