<svg id="vpn_lock_black_24dp" xmlns="http://www.w3.org/2000/svg" width="36" height="36" viewBox="0 0 36 36">
  <path id="Path_23" data-name="Path 23" d="M0,0H36V36H0Z" fill="none"/>
  <path id="Path_24" data-name="Path 24" d="M28.695,18a12.759,12.759,0,0,1,.124,1.545,12.3,12.3,0,0,1-3.245,8.33,3.066,3.066,0,0,0-2.936-2.148H21.091V21.091a1.55,1.55,0,0,0-1.545-1.545H10.273V16.455h3.091a1.55,1.55,0,0,0,1.545-1.545V11.818H18a3.1,3.1,0,0,0,3.091-3.091V4.8A15.455,15.455,0,1,0,31.909,19.545c0-.525-.031-1.035-.077-1.545ZM14.909,31.8A12.346,12.346,0,0,1,4.091,19.545a12.546,12.546,0,0,1,.325-2.766l7.4,7.4v1.545a3.1,3.1,0,0,0,3.091,3.091ZM33.455,5.636V4.864a3.864,3.864,0,1,0-7.727,0v.773a1.55,1.55,0,0,0-1.545,1.545v6.182a1.55,1.55,0,0,0,1.545,1.545h7.727A1.55,1.55,0,0,0,35,13.364V7.182A1.55,1.55,0,0,0,33.455,5.636Zm-1.545,0H27.273V4.864a2.318,2.318,0,0,1,4.636,0Z" transform="translate(0 0)"/>
</svg>
