<?xml version="1.0" encoding="UTF-8" standalone="no"?>
<!-- Created with Inkscape (http://www.inkscape.org/) -->

<svg
   width="6000"
   height="2000"
   viewBox="0 0 1587.5 529.16668"
   version="1.1"
   id="svg1584"
   inkscape:version="1.1 (c68e22c387, 2021-05-23)"
   sodipodi:docname="Black_Logo_text_svg.svg"
   xmlns:inkscape="http://www.inkscape.org/namespaces/inkscape"
   xmlns:sodipodi="http://sodipodi.sourceforge.net/DTD/sodipodi-0.dtd"
   xmlns:xlink="http://www.w3.org/1999/xlink"
   xmlns="http://www.w3.org/2000/svg"
   xmlns:svg="http://www.w3.org/2000/svg">
  <sodipodi:namedview
     id="namedview1586"
     pagecolor="#ffffff"
     bordercolor="#666666"
     borderopacity="1.0"
     inkscape:pageshadow="2"
     inkscape:pageopacity="0.0"
     inkscape:pagecheckerboard="0"
     inkscape:document-units="mm"
     showgrid="false"
     inkscape:zoom="0.11464693"
     inkscape:cx="3994.8737"
     inkscape:cy="1277.8362"
     inkscape:window-width="1920"
     inkscape:window-height="1001"
     inkscape:window-x="-9"
     inkscape:window-y="-9"
     inkscape:window-maximized="1"
     inkscape:current-layer="g87978"
     units="px" />
  <defs
     id="defs1581">
    <rect
       x="574.34747"
       y="1588.5154"
       width="65.760933"
       height="58.866638"
       id="rect72424" />
    <linearGradient
       inkscape:collect="always"
       xlink:href="#linearGradient191025"
       id="linearGradient10023"
       gradientUnits="userSpaceOnUse"
       gradientTransform="matrix(2.4784657,0,0,2.4784657,-248.37825,-982.8605)"
       x1="156.52763"
       y1="417.44199"
       x2="177.22121"
       y2="417.44199" />
    <linearGradient
       inkscape:collect="always"
       id="linearGradient191025">
      <stop
         style="stop-color:#254fea;stop-opacity:1"
         offset="0"
         id="stop191021" />
      <stop
         style="stop-color:#55b6f3;stop-opacity:1"
         offset="1"
         id="stop191023" />
    </linearGradient>
    <linearGradient
       inkscape:collect="always"
       xlink:href="#linearGradient109529"
       id="linearGradient10031"
       gradientUnits="userSpaceOnUse"
       gradientTransform="matrix(0.74576996,0,0,0.74576996,63.822046,239.9706)"
       x1="107.91686"
       y1="-252.49857"
       x2="160.53526"
       y2="-252.64281" />
    <linearGradient
       inkscape:collect="always"
       id="linearGradient109529">
      <stop
         style="stop-color:#e6340a;stop-opacity:1"
         offset="0"
         id="stop109525" />
      <stop
         style="stop-color:#323568;stop-opacity:1"
         offset="1"
         id="stop109527" />
    </linearGradient>
    <linearGradient
       inkscape:collect="always"
       xlink:href="#linearGradient126768"
       id="linearGradient72702"
       gradientUnits="userSpaceOnUse"
       x1="132.02739"
       y1="-247.87659"
       x2="134.39149"
       y2="-244.81683"
       gradientTransform="matrix(0.74576996,0,0,0.74576996,63.822046,239.9706)" />
    <linearGradient
       inkscape:collect="always"
       id="linearGradient126768">
      <stop
         style="stop-color:#000000;stop-opacity:1;"
         offset="0"
         id="stop126764" />
      <stop
         style="stop-color:#000000;stop-opacity:0;"
         offset="1"
         id="stop126766" />
    </linearGradient>
    <linearGradient
       inkscape:collect="always"
       xlink:href="#linearGradient126768"
       id="linearGradient72706"
       gradientUnits="userSpaceOnUse"
       x1="130.58295"
       y1="-252.18291"
       x2="134.31125"
       y2="-264.13779"
       gradientTransform="matrix(0.74576996,0,0,0.74576996,63.822046,239.9706)" />
    <linearGradient
       inkscape:collect="always"
       xlink:href="#linearGradient126768"
       id="linearGradient72710"
       gradientUnits="userSpaceOnUse"
       x1="147.46953"
       y1="-254.89034"
       x2="152.19519"
       y2="-259.86658"
       gradientTransform="matrix(0.74576996,0,0,0.74576996,63.822046,239.9706)" />
    <linearGradient
       inkscape:collect="always"
       xlink:href="#linearGradient126768"
       id="linearGradient72714"
       gradientUnits="userSpaceOnUse"
       x1="148.98848"
       y1="-248.37965"
       x2="150.34581"
       y2="-243.57474"
       gradientTransform="matrix(0.74576996,0,0,0.74576996,63.822046,239.9706)" />
    <linearGradient
       inkscape:collect="always"
       xlink:href="#linearGradient191025"
       id="linearGradient2363"
       gradientUnits="userSpaceOnUse"
       gradientTransform="matrix(2.4784657,0,0,2.4784657,-248.37825,-982.8605)"
       x1="156.52763"
       y1="417.44199"
       x2="177.22121"
       y2="417.44199" />
    <linearGradient
       inkscape:collect="always"
       xlink:href="#linearGradient191025"
       id="linearGradient2365"
       gradientUnits="userSpaceOnUse"
       gradientTransform="matrix(2.4784657,0,0,2.4784657,-248.37825,-982.8605)"
       x1="156.52763"
       y1="417.44199"
       x2="177.22121"
       y2="417.44199" />
    <linearGradient
       inkscape:collect="always"
       xlink:href="#linearGradient191025"
       id="linearGradient2367"
       gradientUnits="userSpaceOnUse"
       gradientTransform="matrix(2.4784657,0,0,2.4784657,-248.37825,-982.8605)"
       x1="156.52763"
       y1="417.44199"
       x2="177.22121"
       y2="417.44199" />
    <linearGradient
       inkscape:collect="always"
       xlink:href="#linearGradient191025"
       id="linearGradient2369"
       gradientUnits="userSpaceOnUse"
       gradientTransform="matrix(2.4784657,0,0,2.4784657,-248.37825,-982.8605)"
       x1="156.52763"
       y1="417.44199"
       x2="177.22121"
       y2="417.44199" />
    <linearGradient
       inkscape:collect="always"
       xlink:href="#linearGradient109529"
       id="linearGradient2371"
       gradientUnits="userSpaceOnUse"
       gradientTransform="matrix(0.74576996,0,0,0.74576996,63.822046,239.9706)"
       x1="107.91686"
       y1="-252.49857"
       x2="160.53526"
       y2="-252.64281" />
    <linearGradient
       inkscape:collect="always"
       xlink:href="#linearGradient109529"
       id="linearGradient2373"
       gradientUnits="userSpaceOnUse"
       gradientTransform="matrix(0.74576996,0,0,0.74576996,63.822046,239.9706)"
       x1="107.91686"
       y1="-252.49857"
       x2="160.53526"
       y2="-252.64281" />
    <linearGradient
       inkscape:collect="always"
       xlink:href="#linearGradient109529"
       id="linearGradient2375"
       gradientUnits="userSpaceOnUse"
       gradientTransform="matrix(0.74576996,0,0,0.74576996,63.822046,239.9706)"
       x1="107.91686"
       y1="-252.49857"
       x2="160.53526"
       y2="-252.64281" />
    <linearGradient
       inkscape:collect="always"
       xlink:href="#linearGradient109529"
       id="linearGradient2377"
       gradientUnits="userSpaceOnUse"
       gradientTransform="matrix(0.74576996,0,0,0.74576996,63.822046,239.9706)"
       x1="107.91686"
       y1="-252.49857"
       x2="160.53526"
       y2="-252.64281" />
    <linearGradient
       inkscape:collect="always"
       xlink:href="#linearGradient109529"
       id="linearGradient2379"
       gradientUnits="userSpaceOnUse"
       gradientTransform="matrix(0.74576996,0,0,0.74576996,63.822046,239.9706)"
       x1="107.91686"
       y1="-252.49857"
       x2="160.53526"
       y2="-252.64281" />
    <linearGradient
       inkscape:collect="always"
       xlink:href="#linearGradient109529"
       id="linearGradient2381"
       gradientUnits="userSpaceOnUse"
       gradientTransform="matrix(0.74576996,0,0,0.74576996,63.822046,239.9706)"
       x1="107.91686"
       y1="-252.49857"
       x2="160.53526"
       y2="-252.64281" />
    <linearGradient
       inkscape:collect="always"
       xlink:href="#linearGradient109529"
       id="linearGradient2383"
       gradientUnits="userSpaceOnUse"
       gradientTransform="matrix(0.74576996,0,0,0.74576996,63.822046,239.9706)"
       x1="107.91686"
       y1="-252.49857"
       x2="160.53526"
       y2="-252.64281" />
    <linearGradient
       inkscape:collect="always"
       xlink:href="#linearGradient109529"
       id="linearGradient2385"
       gradientUnits="userSpaceOnUse"
       gradientTransform="matrix(0.74576996,0,0,0.74576996,63.822046,239.9706)"
       x1="107.91686"
       y1="-252.49857"
       x2="160.53526"
       y2="-252.64281" />
    <linearGradient
       inkscape:collect="always"
       xlink:href="#linearGradient109529"
       id="linearGradient2387"
       gradientUnits="userSpaceOnUse"
       gradientTransform="matrix(0.74576996,0,0,0.74576996,63.822046,239.9706)"
       x1="107.91686"
       y1="-252.49857"
       x2="160.53526"
       y2="-252.64281" />
  </defs>
  <g
     inkscape:label="Layer 1"
     inkscape:groupmode="layer"
     id="layer1">
    <g
       id="g1384"
       transform="matrix(13.096672,0,0,13.096672,-913.84999,-412.0325)">
      <rect
         style="fill:#df350f;fill-opacity:1;stroke:none;stroke-width:2.04669;stroke-linejoin:round"
         id="rect72028"
         width="2.2283115"
         height="2.2283115"
         x="86.410004"
         y="43.851212"
         ry="0.65538567"
         inkscape:export-filename="E:\Inkscape\clients\NimbleEdge\36.png"
         inkscape:export-xdpi="800"
         inkscape:export-ydpi="800" />
      <g
         id="g87978"
         transform="translate(0.1560163,-330.42238)">
        <path
           d="m 69.753411,388.23574 v -16.80869 h 0.365658 l 11.175374,12.86648 V 371.2893 h 1.656813 v 16.94644 h -0.377067 l -11.083901,-12.7065 v 12.7065 z"
           id="path72020"
           style="font-size:40px;line-height:1.25;font-family:'Century Gothic';-inkscape-font-specification:'Century Gothic, Normal';letter-spacing:0px;word-spacing:0px;white-space:pre;fill:#000000;fill-opacity:1;stroke-width:0.585048"
           sodipodi:nodetypes="ccccccccccc"
           inkscape:export-filename="E:\Inkscape\clients\NimbleEdge\36.png"
           inkscape:export-xdpi="800"
           inkscape:export-ydpi="800" />
        <path
           id="path72022"
           style="font-size:40px;line-height:1.25;font-family:'Century Gothic';-inkscape-font-specification:'Century Gothic, Normal';letter-spacing:0px;word-spacing:0px;white-space:pre;fill:#000000;fill-opacity:1;stroke-width:2.21121"
           d="m 354.28125,1419.1504 c -3.25345,0 -6.11964,0.8197 -8.5957,2.4609 -2.50488,1.6413 -4.36107,3.9305 -5.57032,6.8672 -1.04189,2.5304 -1.6332,6.1544 -1.77734,10.8653 0.67435,0.026 1.2409,0.2281 1.63477,0.457 0.3042,0.1767 0.42317,0.3235 0.54101,0.4453 0.89104,0.7504 1.29875,1.7982 1.32031,2.5605 0.0221,0.7819 -0.25781,1.4141 -0.25781,1.4141 a 1.5951288,1.5951288 0 0 1 -0.0898,0.1699 l -3.18555,5.3555 v 17.6016 h 6.17578 v -25.6543 c 0,-5.0383 0.35996,-8.4915 1.08008,-10.3633 0.72013,-1.9002 1.95898,-3.4264 3.71484,-4.5781 1.72763,-1.1515 3.80041,-1.7286 6.21875,-1.7286 2.93673,0 5.62886,0.8646 8.07618,2.5918 2.41849,1.7277 4.18956,4.031 5.3125,6.9102 1.12286,2.8792 1.68359,7.6865 1.68359,14.4238 v 18.3985 h 6.00391 v -24.0547 c 0,-5.6721 0.35874,-9.5159 1.07812,-11.5313 0.69139,-2.0443 1.91596,-3.6716 3.67188,-4.8808 1.75632,-1.238 3.84317,-1.8575 6.26171,-1.8575 2.7928,0 5.41214,0.8502 7.85938,2.5489 2.41854,1.6697 4.21791,3.9288 5.39844,6.7793 1.15159,2.8504 1.72851,7.2124 1.72851,13.0859 v 19.9102 h 6.00196 v -46.9883 h -6.00196 v 8.1191 c -2.10177,-2.9944 -4.26154,-5.1825 -6.47851,-6.5644 -3.05187,-1.8429 -6.26212,-2.7637 -9.63086,-2.7637 -2.27445,0 -4.4343,0.4453 -6.47852,1.3379 -2.04427,0.8924 -3.71413,2.0884 -5.00976,3.5859 -1.29563,1.4683 -2.41905,3.5837 -3.36914,6.3477 -2.01546,-3.6853 -4.53353,-6.4766 -7.55664,-8.377 -3.02319,-1.9291 -6.27599,-2.8945 -9.75977,-2.8945 z"
           transform="scale(0.26458333)" />
        <path
           d="M 109.17755,388.23574 V 371.2893 h 1.58836 v 6.65101 c 0.67035,-0.82273 1.42068,-1.4359 2.25105,-1.83973 0.83034,-0.4113 1.74068,-0.61706 2.73097,-0.61706 1.75976,0 3.26045,0.63995 4.50214,1.91977 1.24932,1.27213 1.87398,2.81856 1.87398,4.63913 0,1.79783 -0.62846,3.33285 -1.88536,4.60498 -1.25699,1.27221 -2.76915,1.90828 -4.53648,1.90828 -1.01314,0 -1.93109,-0.21702 -2.75385,-0.65128 -0.82273,-0.43419 -1.55021,-1.08554 -2.18245,-1.95392 v 2.28526 z m 6.39896,-1.22269 c 0.8913,0 1.71401,-0.21672 2.46817,-0.65128 0.75416,-0.44187 1.3522,-1.05884 1.79401,-1.85107 0.44944,-0.79231 0.67418,-1.63026 0.67418,-2.51392 0,-0.88366 -0.22466,-1.72541 -0.67418,-2.52532 -0.44941,-0.79984 -1.05506,-1.4207 -1.81683,-1.86257 -0.75416,-0.4494 -1.56165,-0.6741 -2.42247,-0.6741 -0.87606,0 -1.71023,0.22493 -2.50248,0.6741 -0.78462,0.44187 -1.39026,1.03983 -1.81683,1.79403 -0.41898,0.75412 -0.62846,1.60355 -0.62846,2.54815 0,1.43978 0.47228,2.64345 1.41688,3.61086 0.95221,0.96742 2.12155,1.45112 3.50801,1.45112 z"
           id="path72024"
           style="font-size:40px;line-height:1.25;font-family:'Century Gothic';-inkscape-font-specification:'Century Gothic, Normal';letter-spacing:0px;word-spacing:0px;white-space:pre;fill:#000000;fill-opacity:1;stroke-width:0.585048"
           sodipodi:nodetypes="cccccscsssscccsccsscsccscs"
           inkscape:export-filename="E:\Inkscape\clients\NimbleEdge\36.png"
           inkscape:export-xdpi="800"
           inkscape:export-ydpi="800" />
        <path
           d="m 123.02919,371.2893 h 1.59977 v 16.98135 h -1.59977 z"
           id="path72026"
           style="font-size:40px;line-height:1.25;font-family:'Century Gothic';-inkscape-font-specification:'Century Gothic, Normal';letter-spacing:0px;word-spacing:0px;white-space:pre;fill:#000000;fill-opacity:1;stroke-width:0.580788"
           inkscape:export-filename="E:\Inkscape\clients\NimbleEdge\36.png"
           inkscape:export-xdpi="800"
           inkscape:export-ydpi="800" />
        <g
           aria-label="e"
           transform="matrix(0.54421498,0,0,0.54421498,-188.04786,-496.2492)"
           id="text72032"
           style="font-size:40px;line-height:1.25;font-family:'Century Gothic';-inkscape-font-specification:'Century Gothic, Normal';letter-spacing:0px;word-spacing:0px;white-space:pre;shape-inside:url(#rect72424)">
          <path
             d="m 595.28516,1617.7798 2.30468,1.211 q -1.13281,2.2265 -2.61718,3.5937 -1.48438,1.3672 -3.33985,2.0899 -1.85547,0.7031 -4.19922,0.7031 -5.19531,0 -8.125,-3.3985 -2.92968,-3.4179 -2.92968,-7.7148 0,-4.043 2.48046,-7.207 3.14454,-4.0235 8.41797,-4.0235 5.42969,0 8.67188,4.1211 2.30469,2.9102 2.34375,7.2657 h -19.10156 q 0.0781,3.7109 2.36328,6.0937 2.28515,2.3633 5.64453,2.3633 1.62109,0 3.14453,-0.5664 1.54297,-0.5664 2.61719,-1.5039 1.07422,-0.9375 2.32422,-3.0274 z m 0,-5.7226 q -0.54688,-2.1875 -1.60157,-3.4961 -1.03515,-1.3086 -2.7539,-2.1094 -1.71875,-0.8008 -3.61328,-0.8008 -3.125,0 -5.3711,2.0117 -1.64062,1.4649 -2.48047,4.3946 z"
             id="path909" />
        </g>
        <path
           style="fill:#000000;stroke:none;stroke-width:0.0642942px;stroke-linecap:butt;stroke-linejoin:miter;stroke-opacity:1"
           d="m 87.443253,381.24684 0.105151,-3.32099 c 0,0 -0.04381,-0.34179 -0.306689,-0.33299 0,0 -0.315451,-0.12268 -0.665953,0.40309 l -3.119462,5.0998 c 0,0 -0.332977,0.69222 0.289163,0.68342 h 2.225684 l -0.429364,3.89933 c 0,0 -0.05258,0.482 0.289164,0.5433 0,0 0.376789,0.12268 0.639665,-0.35924 l 3.518794,-5.91619 c 0,0 0.14251,-0.32225 -0.167293,-0.57007 0,0 -0.105333,-0.12946 -0.340783,-0.12946 z"
           id="path72050"
           inkscape:export-filename="E:\Inkscape\clients\NimbleEdge\36.png"
           inkscape:export-xdpi="800"
           inkscape:export-ydpi="800" />
      </g>
      <path
         id="path72034"
         style="fill:url(#linearGradient2363);fill-opacity:1;stroke:none;stroke-width:0.245662;stroke-linejoin:round"
         d="m 161.36755,46.31188 a 6.1168595,6.1147892 0 0 1 0.0588,0.0291 6.1168595,6.1147892 0 0 1 0.0263,0.0149 6.1168595,6.1147892 0 0 1 0.11263,0.0582 6.1168595,6.1147892 0 0 1 0.0878,0.0485 6.1172585,6.1145006 0 0 0 -0.28668,-0.14885 z"
         inkscape:export-filename="E:\Inkscape\clients\NimbleEdge\36.png"
         inkscape:export-xdpi="800"
         inkscape:export-ydpi="800" />
      <path
         id="path72036"
         style="fill:url(#linearGradient2365);fill-opacity:1;stroke:none;stroke-width:0.245662;stroke-linejoin:round"
         d="m 160.95447,46.12782 a 6.1168595,6.1147892 0 0 1 0.10823,0.0447 6.1168595,6.1147892 0 0 1 0.006,0.007 6.1168595,6.1147892 0 0 1 0.009,0.007 6.1168595,6.1147892 0 0 1 0.1018,0.0447 6.1168595,6.1147892 0 0 1 0.0374,0.0179 6.1172585,6.1145006 0 0 0 -0.26533,-0.1147 z"
         inkscape:export-filename="E:\Inkscape\clients\NimbleEdge\36.png"
         inkscape:export-xdpi="800"
         inkscape:export-ydpi="800" />
      <path
         id="path72038"
         style="fill:url(#linearGradient2367);fill-opacity:1;stroke:none;stroke-width:0.245662;stroke-linejoin:round"
         d="m 154.10715,55.84088 a 6.1168595,6.1147892 0 0 1 -0.10911,-0.12522 6.1168595,6.1147892 0 0 1 -0.12521,-0.15855 6.1172585,6.1145006 0 0 0 0.23432,0.28347 z"
         inkscape:export-filename="E:\Inkscape\clients\NimbleEdge\36.png"
         inkscape:export-xdpi="800"
         inkscape:export-ydpi="800" />
      <path
         id="path72040"
         style="fill:url(#linearGradient2369);fill-opacity:1;stroke:none;stroke-width:0.245662;stroke-linejoin:round"
         d="m 153.56995,55.13031 a 6.1172585,6.1145006 0 0 0 0.24924,0.35744 6.1168595,6.1147892 0 0 1 -0.10911,-0.14773 6.1168595,6.1147892 0 0 1 -0.14013,-0.20979 z"
         inkscape:export-filename="E:\Inkscape\clients\NimbleEdge\36.png"
         inkscape:export-xdpi="800"
         inkscape:export-ydpi="800" />
      <path
         id="path72046"
         style="fill:url(#linearGradient10023);fill-opacity:1;stroke:none;stroke-width:0.245662;stroke-linejoin:round"
         d="m 174.46406,46.35685 a 6.1168595,6.1147892 0 0 1 0.0292,0.0149 6.1168595,6.1147892 0 0 1 0.0845,0.0447 6.1172573,6.1145006 0 0 0 -0.1135,-0.0589 z"
         inkscape:export-filename="E:\Inkscape\clients\NimbleEdge\36.png"
         inkscape:export-xdpi="800"
         inkscape:export-ydpi="800" />
      <path
         id="path72052"
         style="fill:url(#linearGradient2371);fill-opacity:1;stroke:none;stroke-width:0.245662;stroke-linejoin:round"
         d="m 164.80781,52.75585 -0.0623,0.007 a 6.1168595,6.1147892 0 0 1 -0.0354,0.18077 6.1168595,6.1147892 0 0 1 -0.0503,0.25155 6.1168595,6.1147892 0 0 1 -0.0597,0.22903 6.1168595,6.1147892 0 0 1 -0.0652,0.23312 6.1168595,6.1147892 0 0 1 -0.0846,0.23962 6.1168595,6.1147892 0 0 1 -0.0676,0.18197 6.1168595,6.1147892 0 0 1 -0.11555,0.26527 6.1168595,6.1147892 0 0 1 -0.0772,0.16795 6.1168595,6.1147892 0 0 1 -0.11349,0.215 6.1168595,6.1147892 0 0 1 -0.11994,0.21299 6.1168595,6.1147892 0 0 1 -0.1176,0.18719 6.1168595,6.1147892 0 0 1 -0.13164,0.19688 6.1168595,6.1147892 0 0 1 -0.1445,0.19361 6.1168595,6.1147892 0 0 1 -0.14451,0.18316 6.1168595,6.1147892 0 0 1 -0.14451,0.16787 6.1168595,6.1147892 0 0 1 -0.17756,0.19166 6.1168595,6.1147892 0 0 1 -0.14246,0.14245 6.1168595,6.1147892 0 0 1 -0.18722,0.17316 6.1168595,6.1147892 0 0 1 -0.17961,0.15386 6.1168595,6.1147892 0 0 1 -0.1723,0.13602 6.1168595,6.1147892 0 0 1 -0.19775,0.14655 6.1168595,6.1147892 0 0 1 -0.19687,0.13163 6.1168595,6.1147892 0 0 1 -0.0781,0.0492 v 0.53829 0.31569 h 2.86566 v -3.59006 z m -0.0234,1.56977 a 6.5942352,6.592003 0 0 1 -0.21705,0.46976 6.5942352,6.592003 0 0 1 -0.25245,0.45157 6.5942352,6.592003 0 0 1 -0.28785,0.4312 6.5942352,6.592003 0 0 1 -0.31996,0.40562 6.5942352,6.592003 0 0 1 -0.35203,0.38094 6.5942352,6.592003 0 0 1 -0.37988,0.35096 6.5942352,6.592003 0 0 1 -0.40664,0.31994 6.5942352,6.592003 0 0 1 -0.43016,0.28787 6.5942352,6.592003 0 0 0 0.43016,-0.28787 6.5942352,6.592003 0 0 0 0.40664,-0.31994 6.5942352,6.592003 0 0 0 0.37988,-0.35096 6.5942352,6.592003 0 0 0 0.35203,-0.38094 6.5942352,6.592003 0 0 0 0.31996,-0.40562 6.5942352,6.592003 0 0 0 0.28785,-0.4312 6.5942352,6.592003 0 0 0 0.25245,-0.45157 6.5942352,6.592003 0 0 0 0.21705,-0.46976 z"
         inkscape:export-filename="E:\Inkscape\clients\NimbleEdge\36.png"
         inkscape:export-xdpi="800"
         inkscape:export-ydpi="800" />
      <path
         id="path72054"
         style="fill:url(#linearGradient72702);fill-opacity:1;stroke:none;stroke-width:0.245662;stroke-linejoin:round"
         d="m 164.80781,52.75585 -0.0623,0.007 a 6.1168595,6.1147892 0 0 1 -0.0354,0.18077 6.1168595,6.1147892 0 0 1 -0.0503,0.25155 6.1168595,6.1147892 0 0 1 -0.0597,0.22903 6.1168595,6.1147892 0 0 1 -0.0652,0.23312 6.1168595,6.1147892 0 0 1 -0.0846,0.23962 6.1168595,6.1147892 0 0 1 -0.0676,0.18197 6.1168595,6.1147892 0 0 1 -0.11555,0.26527 6.1168595,6.1147892 0 0 1 -0.0772,0.16795 6.1168595,6.1147892 0 0 1 -0.11349,0.215 6.1168595,6.1147892 0 0 1 -0.11994,0.21299 6.1168595,6.1147892 0 0 1 -0.1176,0.18719 6.1168595,6.1147892 0 0 1 -0.13164,0.19688 6.1168595,6.1147892 0 0 1 -0.1445,0.19361 6.1168595,6.1147892 0 0 1 -0.14451,0.18316 6.1168595,6.1147892 0 0 1 -0.14451,0.16787 6.1168595,6.1147892 0 0 1 -0.17756,0.19166 6.1168595,6.1147892 0 0 1 -0.14246,0.14245 6.1168595,6.1147892 0 0 1 -0.18722,0.17316 6.1168595,6.1147892 0 0 1 -0.17961,0.15386 6.1168595,6.1147892 0 0 1 -0.1723,0.13602 6.1168595,6.1147892 0 0 1 -0.19775,0.14655 6.1168595,6.1147892 0 0 1 -0.19687,0.13163 6.1168595,6.1147892 0 0 1 -0.0781,0.0492 v 0.53829 0.31569 h 2.86566 v -3.59006 z m -0.0234,1.56977 a 6.5942352,6.592003 0 0 1 -0.21705,0.46976 6.5942352,6.592003 0 0 1 -0.25245,0.45157 6.5942352,6.592003 0 0 1 -0.28785,0.4312 6.5942352,6.592003 0 0 1 -0.31996,0.40562 6.5942352,6.592003 0 0 1 -0.35203,0.38094 6.5942352,6.592003 0 0 1 -0.37988,0.35096 6.5942352,6.592003 0 0 1 -0.40664,0.31994 6.5942352,6.592003 0 0 1 -0.43016,0.28787 6.5942352,6.592003 0 0 0 0.43016,-0.28787 6.5942352,6.592003 0 0 0 0.40664,-0.31994 6.5942352,6.592003 0 0 0 0.37988,-0.35096 6.5942352,6.592003 0 0 0 0.35203,-0.38094 6.5942352,6.592003 0 0 0 0.31996,-0.40562 6.5942352,6.592003 0 0 0 0.28785,-0.4312 6.5942352,6.592003 0 0 0 0.25245,-0.45157 6.5942352,6.592003 0 0 0 0.21705,-0.46976 z"
         inkscape:export-filename="E:\Inkscape\clients\NimbleEdge\36.png"
         inkscape:export-xdpi="800"
         inkscape:export-ydpi="800" />
      <path
         id="path72056"
         style="fill:url(#linearGradient2373);fill-opacity:1;stroke:none;stroke-width:0.245662;stroke-linejoin:round"
         d="m 161.94216,40.86741 v 5.20045 0.55866 a 6.1172585,6.1145006 0 0 0 -0.1018,-0.0574 6.1168595,6.1147892 0 0 1 0.0962,0.0574 6.1168595,6.1147892 0 0 1 0.0374,0.0231 6.1168595,6.1147892 0 0 1 0.0263,0.0179 6.1168595,6.1147892 0 0 1 0.10706,0.0694 6.1168595,6.1147892 0 0 1 0.1018,0.0694 6.1168595,6.1147892 0 0 1 0.0263,0.0179 6.1168595,6.1147892 0 0 1 0.10356,0.0761 6.1168595,6.1147892 0 0 1 0.0234,0.0179 6.1168595,6.1147892 0 0 1 0.1252,0.0963 6.1168595,6.1147892 0 0 1 0.10823,0.0877 6.1168595,6.1147892 0 0 1 0.0146,0.0119 6.1168595,6.1147892 0 0 1 0.10911,0.0933 6.1168595,6.1147892 0 0 1 0.009,0.007 6.1168595,6.1147892 0 0 1 0.11116,0.1006 6.1168595,6.1147892 0 0 1 0.006,0.007 6.1168595,6.1147892 0 0 1 0.11467,0.10709 6.1168595,6.1147892 0 0 1 0.11233,0.11262 6.1168595,6.1147892 0 0 1 0.002,0 6.1168595,6.1147892 0 0 1 0.10619,0.11261 6.1168595,6.1147892 0 0 1 0.006,0.007 6.1168595,6.1147892 0 0 1 0.10062,0.11001 6.1168595,6.1147892 0 0 1 0.009,0.009 6.1168595,6.1147892 0 0 1 0.0933,0.10911 6.1168595,6.1147892 0 0 1 0.0117,0.0149 6.1168595,6.1147892 0 0 1 0.0877,0.10709 6.1168595,6.1147892 0 0 1 0.0146,0.0179 6.1168595,6.1147892 0 0 1 0.0804,0.1059 6.1168595,6.1147892 0 0 1 0.0933,0.12752 6.1168595,6.1147892 0 0 1 0.0813,0.11463 6.1168595,6.1147892 0 0 1 0.009,0.0149 6.1168595,6.1147892 0 0 1 0.0234,0.0336 6.1168595,6.1147892 0 0 1 0.0644,0.0998 6.1168595,6.1147892 0 0 1 0.006,0.0119 6.1168595,6.1147892 0 0 1 0.0749,0.12201 6.1168595,6.1147892 0 0 1 0.0737,0.12633 6.1168595,6.1147892 0 0 1 0.006,0.009 6.1168595,6.1147892 0 0 1 0.0263,0.0492 6.1168595,6.1147892 0 0 1 0.0482,0.0887 6.1168595,6.1147892 0 0 1 0.006,0.0179 6.1168595,6.1147892 0 0 1 0.0632,0.12283 6.1168595,6.1147892 0 0 1 0.0298,0.0597 6.1168595,6.1147892 0 0 1 0.009,0.0209 6.1168595,6.1147892 0 0 1 0.0559,0.1156 6.1168595,6.1147892 0 0 1 0.006,0.009 6.1168595,6.1147892 0 0 1 0.0342,0.0772 6.1168595,6.1147892 0 0 1 0.009,0.0209 6.1168595,6.1147892 0 0 1 0.048,0.11641 6.1168595,6.1147892 0 0 1 0.006,0.007 6.1168595,6.1147892 0 0 1 0.031,0.0773 6.1168595,6.1147892 0 0 1 0.0263,0.0694 6.1168595,6.1147892 0 0 1 0.0117,0.0321 6.1168595,6.1147892 0 0 1 0.0395,0.11351 6.1168595,6.1147892 0 0 1 7.5e-4,0 6.1168595,6.1147892 0 0 1 7.5e-4,0 6.1168595,6.1147892 0 0 1 0.0447,0.13484 6.1168595,6.1147892 0 0 1 0.006,0.0119 6.1168595,6.1147892 0 0 1 0.0292,0.0942 6.1168595,6.1147892 0 0 1 7.5e-4,0.007 6.1168595,6.1147892 0 0 1 0.0438,0.14855 6.1168595,6.1147892 0 0 1 0.0146,0.05 6.1168595,6.1147892 0 0 1 0.009,0.0418 6.1168595,6.1147892 0 0 1 0.0263,0.10508 6.1168595,6.1147892 0 0 1 7.5e-4,0.007 6.1168595,6.1147892 0 0 1 0.006,0.0179 6.1168595,6.1147892 0 0 1 0.0263,0.13043 6.1168595,6.1147892 0 0 1 0.002,0.007 6.1168595,6.1147892 0 0 1 0.006,0.0231 6.1168595,6.1147892 0 0 1 0.0234,0.12611 6.1168595,6.1147892 0 0 1 7.5e-4,0.007 6.1168595,6.1147892 0 0 1 0.002,0.0149 6.1168595,6.1147892 0 0 1 0.0175,0.0953 l 0.074,-0.007 -0.006,-1.46812 v -8.48133 z"
         inkscape:export-filename="E:\Inkscape\clients\NimbleEdge\36.png"
         inkscape:export-xdpi="800"
         inkscape:export-ydpi="800" />
      <path
         id="path72058"
         style="fill:url(#linearGradient72706);fill-opacity:1;stroke:none;stroke-width:0.245662;stroke-linejoin:round"
         d="m 161.94216,40.86741 v 5.20045 0.55866 a 6.1172585,6.1145006 0 0 0 -0.1018,-0.0574 6.1168595,6.1147892 0 0 1 0.0962,0.0574 6.1168595,6.1147892 0 0 1 0.0374,0.0231 6.1168595,6.1147892 0 0 1 0.0263,0.0179 6.1168595,6.1147892 0 0 1 0.10706,0.0694 6.1168595,6.1147892 0 0 1 0.1018,0.0694 6.1168595,6.1147892 0 0 1 0.0263,0.0179 6.1168595,6.1147892 0 0 1 0.10356,0.0761 6.1168595,6.1147892 0 0 1 0.0234,0.0179 6.1168595,6.1147892 0 0 1 0.1252,0.0963 6.1168595,6.1147892 0 0 1 0.10823,0.0877 6.1168595,6.1147892 0 0 1 0.0146,0.0119 6.1168595,6.1147892 0 0 1 0.10911,0.0933 6.1168595,6.1147892 0 0 1 0.009,0.007 6.1168595,6.1147892 0 0 1 0.11116,0.1006 6.1168595,6.1147892 0 0 1 0.006,0.007 6.1168595,6.1147892 0 0 1 0.11467,0.10709 6.1168595,6.1147892 0 0 1 0.11233,0.11262 6.1168595,6.1147892 0 0 1 0.002,0 6.1168595,6.1147892 0 0 1 0.10619,0.11261 6.1168595,6.1147892 0 0 1 0.006,0.007 6.1168595,6.1147892 0 0 1 0.10062,0.11001 6.1168595,6.1147892 0 0 1 0.009,0.009 6.1168595,6.1147892 0 0 1 0.0933,0.10911 6.1168595,6.1147892 0 0 1 0.0117,0.0149 6.1168595,6.1147892 0 0 1 0.0877,0.10709 6.1168595,6.1147892 0 0 1 0.0146,0.0179 6.1168595,6.1147892 0 0 1 0.0804,0.1059 6.1168595,6.1147892 0 0 1 0.0933,0.12752 6.1168595,6.1147892 0 0 1 0.0813,0.11463 6.1168595,6.1147892 0 0 1 0.009,0.0149 6.1168595,6.1147892 0 0 1 0.0234,0.0336 6.1168595,6.1147892 0 0 1 0.0644,0.0998 6.1168595,6.1147892 0 0 1 0.006,0.0119 6.1168595,6.1147892 0 0 1 0.0749,0.12201 6.1168595,6.1147892 0 0 1 0.0737,0.12633 6.1168595,6.1147892 0 0 1 0.006,0.009 6.1168595,6.1147892 0 0 1 0.0263,0.0492 6.1168595,6.1147892 0 0 1 0.0482,0.0887 6.1168595,6.1147892 0 0 1 0.006,0.0179 6.1168595,6.1147892 0 0 1 0.0632,0.12283 6.1168595,6.1147892 0 0 1 0.0298,0.0597 6.1168595,6.1147892 0 0 1 0.009,0.0209 6.1168595,6.1147892 0 0 1 0.0559,0.1156 6.1168595,6.1147892 0 0 1 0.006,0.009 6.1168595,6.1147892 0 0 1 0.0342,0.0772 6.1168595,6.1147892 0 0 1 0.009,0.0209 6.1168595,6.1147892 0 0 1 0.048,0.11641 6.1168595,6.1147892 0 0 1 0.006,0.007 6.1168595,6.1147892 0 0 1 0.031,0.0773 6.1168595,6.1147892 0 0 1 0.0263,0.0694 6.1168595,6.1147892 0 0 1 0.0117,0.0321 6.1168595,6.1147892 0 0 1 0.0395,0.11351 6.1168595,6.1147892 0 0 1 7.5e-4,0 6.1168595,6.1147892 0 0 1 7.5e-4,0 6.1168595,6.1147892 0 0 1 0.0447,0.13484 6.1168595,6.1147892 0 0 1 0.006,0.0119 6.1168595,6.1147892 0 0 1 0.0292,0.0942 6.1168595,6.1147892 0 0 1 7.5e-4,0.007 6.1168595,6.1147892 0 0 1 0.0438,0.14855 6.1168595,6.1147892 0 0 1 0.0146,0.05 6.1168595,6.1147892 0 0 1 0.009,0.0418 6.1168595,6.1147892 0 0 1 0.0263,0.10508 6.1168595,6.1147892 0 0 1 7.5e-4,0.007 6.1168595,6.1147892 0 0 1 0.006,0.0179 6.1168595,6.1147892 0 0 1 0.0263,0.13043 6.1168595,6.1147892 0 0 1 0.002,0.007 6.1168595,6.1147892 0 0 1 0.006,0.0231 6.1168595,6.1147892 0 0 1 0.0234,0.12611 6.1168595,6.1147892 0 0 1 7.5e-4,0.007 6.1168595,6.1147892 0 0 1 0.002,0.0149 6.1168595,6.1147892 0 0 1 0.0175,0.0953 l 0.074,-0.007 -0.006,-1.46812 v -8.48133 z"
         inkscape:export-filename="E:\Inkscape\clients\NimbleEdge\36.png"
         inkscape:export-xdpi="800"
         inkscape:export-ydpi="800" />
      <path
         id="path72060"
         style="fill:url(#linearGradient2375);fill-opacity:1;stroke:none;stroke-width:0.245662;stroke-linejoin:round"
         d="m 174.94454,45.66127 v 0.41203 0.55322 a 6.1172573,6.1145006 0 0 0 -0.0685,-0.0395 6.1168595,6.1147892 0 0 1 0.0632,0.038 6.1168595,6.1147892 0 0 1 0.1445,0.0934 6.1168595,6.1147892 0 0 1 0.14129,0.0974 6.1168595,6.1147892 0 0 1 0.13807,0.1018 6.1168595,6.1147892 0 0 1 0.13603,0.105 6.1168595,6.1147892 0 0 1 0.13252,0.10911 6.1168595,6.1147892 0 0 1 0.12929,0.11231 6.1168595,6.1147892 0 0 1 0.12608,0.1156 6.1168595,6.1147892 0 0 1 0.12287,0.11992 6.1168595,6.1147892 0 0 1 0.11993,0.1229 6.1168595,6.1147892 0 0 1 0.11555,0.12604 6.1168595,6.1147892 0 0 1 0.11233,0.12931 6.1168595,6.1147892 0 0 1 0.10911,0.13282 6.1168595,6.1147892 0 0 1 0.10501,0.13603 6.1168595,6.1147892 0 0 1 0.10181,0.13804 6.1168595,6.1147892 0 0 1 0.0974,0.14133 6.1168595,6.1147892 0 0 1 0.0933,0.14445 6.1168595,6.1147892 0 0 1 0.0886,0.14543 6.1168595,6.1147892 0 0 1 0.0854,0.15005 6.1168595,6.1147892 0 0 1 0.0813,0.15094 6.1168595,6.1147892 0 0 1 0.0758,0.15296 6.1168595,6.1147892 0 0 1 0.0726,0.15624 6.1168595,6.1147892 0 0 1 0.0494,0.11552 l 0.49119,-0.0544 v -0.007 -3.69701 z"
         inkscape:export-filename="E:\Inkscape\clients\NimbleEdge\36.png"
         inkscape:export-xdpi="800"
         inkscape:export-ydpi="800" />
      <path
         id="path72062"
         style="fill:url(#linearGradient72710);fill-opacity:1;stroke:none;stroke-width:0.245662;stroke-linejoin:round"
         d="m 174.94454,45.66127 v 0.41203 0.55322 a 6.1172573,6.1145006 0 0 0 -0.0685,-0.0395 6.1168595,6.1147892 0 0 1 0.0632,0.038 6.1168595,6.1147892 0 0 1 0.1445,0.0934 6.1168595,6.1147892 0 0 1 0.14129,0.0974 6.1168595,6.1147892 0 0 1 0.13807,0.1018 6.1168595,6.1147892 0 0 1 0.13603,0.105 6.1168595,6.1147892 0 0 1 0.13252,0.10911 6.1168595,6.1147892 0 0 1 0.12929,0.11231 6.1168595,6.1147892 0 0 1 0.12608,0.1156 6.1168595,6.1147892 0 0 1 0.12287,0.11992 6.1168595,6.1147892 0 0 1 0.11993,0.1229 6.1168595,6.1147892 0 0 1 0.11555,0.12604 6.1168595,6.1147892 0 0 1 0.11233,0.12931 6.1168595,6.1147892 0 0 1 0.10911,0.13282 6.1168595,6.1147892 0 0 1 0.10501,0.13603 6.1168595,6.1147892 0 0 1 0.10181,0.13804 6.1168595,6.1147892 0 0 1 0.0974,0.14133 6.1168595,6.1147892 0 0 1 0.0933,0.14445 6.1168595,6.1147892 0 0 1 0.0886,0.14543 6.1168595,6.1147892 0 0 1 0.0854,0.15005 6.1168595,6.1147892 0 0 1 0.0813,0.15094 6.1168595,6.1147892 0 0 1 0.0758,0.15296 6.1168595,6.1147892 0 0 1 0.0726,0.15624 6.1168595,6.1147892 0 0 1 0.0494,0.11552 l 0.49119,-0.0544 v -0.007 -3.69701 z"
         inkscape:export-filename="E:\Inkscape\clients\NimbleEdge\36.png"
         inkscape:export-xdpi="800"
         inkscape:export-ydpi="800" />
      <path
         id="path72064"
         style="fill:url(#linearGradient2377);fill-opacity:1;stroke:none;stroke-width:0.245662;stroke-linejoin:round"
         d="m 177.80896,51.28087 -0.0292,0.007 a 6.1168595,6.1147889 0 0 1 0.0117,0.17175 6.1168595,6.1147889 0 0 1 0.009,0.17168 6.1168595,6.1147889 0 0 1 0.001,0 6.1168595,6.1147889 0 0 1 -0.0234,0.50519 6.1168595,6.1147889 0 0 1 -0.0611,0.50018 6.1168595,6.1147889 0 0 1 -0.10414,0.49542 6.1168595,6.1147889 0 0 1 -0.1448,0.48438 6.1168595,6.1147889 0 0 1 -0.184,0.4708 6.1168595,6.1147889 0 0 1 -0.22203,0.45358 6.1168595,6.1147889 0 0 1 -0.25859,0.43404 6.1168595,6.1147889 0 0 1 -0.29305,0.41203 6.1168595,6.1147889 0 0 1 -0.32737,0.38505 6.1168595,6.1147889 0 0 1 -0.3568,0.35796 6.1168595,6.1147889 0 0 1 -0.38625,0.3262 6.1168595,6.1147889 0 0 1 -0.41197,0.29302 6.1168595,6.1147889 0 0 1 -0.30777,0.18398 6.117257,6.1145003 0 0 0 0.11292,-0.0626 2.9166596,2.9153447 0 0 1 -0.10414,0.6008 6.5942352,6.592003 0 0 1 -0.002,0 2.9166596,2.9153447 0 0 1 -2.80536,2.13103 2.9166596,2.9153447 0 0 1 -0.12637,-0.0149 c -4.4e-4,0 -0.001,0.0149 -0.001,0.0149 h -3.04567 -0.53828 -0.098 v 2.83967 c 0,0.009 9e-5,0.0172 0,0.0261 h 0.098 0.53828 3.04567 v -0.0119 a 6.117257,6.1145003 0 0 0 6.01169,-6.11106 v -2.2781 -2.43875 z"
         inkscape:export-filename="E:\Inkscape\clients\NimbleEdge\36.png"
         inkscape:export-xdpi="800"
         inkscape:export-ydpi="800" />
      <path
         id="path72066"
         style="fill:url(#linearGradient72714);fill-opacity:1;stroke:none;stroke-width:0.245662;stroke-linejoin:round"
         d="m 177.80896,51.28087 -0.0292,0.007 a 6.1168595,6.1147889 0 0 1 0.0117,0.17175 6.1168595,6.1147889 0 0 1 0.009,0.17168 6.1168595,6.1147889 0 0 1 0.001,0 6.1168595,6.1147889 0 0 1 -0.0234,0.50519 6.1168595,6.1147889 0 0 1 -0.0611,0.50018 6.1168595,6.1147889 0 0 1 -0.10414,0.49542 6.1168595,6.1147889 0 0 1 -0.1448,0.48438 6.1168595,6.1147889 0 0 1 -0.184,0.4708 6.1168595,6.1147889 0 0 1 -0.22203,0.45358 6.1168595,6.1147889 0 0 1 -0.25859,0.43404 6.1168595,6.1147889 0 0 1 -0.29305,0.41203 6.1168595,6.1147889 0 0 1 -0.32737,0.38505 6.1168595,6.1147889 0 0 1 -0.3568,0.35796 6.1168595,6.1147889 0 0 1 -0.38625,0.3262 6.1168595,6.1147889 0 0 1 -0.41197,0.29302 6.1168595,6.1147889 0 0 1 -0.30777,0.18398 6.117257,6.1145003 0 0 0 0.11292,-0.0626 2.9166596,2.9153447 0 0 1 -0.10414,0.6008 6.5942352,6.592003 0 0 1 -0.002,0 2.9166596,2.9153447 0 0 1 -2.80536,2.13103 2.9166596,2.9153447 0 0 1 -0.12637,-0.0149 c -4.4e-4,0 -0.001,0.0149 -0.001,0.0149 h -3.04567 -0.53828 -0.098 v 2.83967 c 0,0.009 9e-5,0.0172 0,0.0261 h 0.098 0.53828 3.04567 v -0.0119 a 6.117257,6.1145003 0 0 0 6.01169,-6.11106 v -2.2781 -2.43875 z"
         inkscape:export-filename="E:\Inkscape\clients\NimbleEdge\36.png"
         inkscape:export-xdpi="800"
         inkscape:export-ydpi="800" />
      <path
         id="path72068"
         style="fill:url(#linearGradient2379);fill-opacity:1;stroke:none;stroke-width:0.245662;stroke-linejoin:round"
         d="m 164.73717,50.82326 a 6.1168595,6.1147892 0 0 0 -0.0175,-0.0951 6.1168595,6.1147892 0 0 0 -0.002,-0.0149 6.1168595,6.1147892 0 0 0 -7.4e-4,-0.007 6.1168595,6.1147892 0 0 0 -0.0234,-0.12633 6.1168595,6.1147892 0 0 0 -0.006,-0.0231 6.1168595,6.1147892 0 0 0 -0.002,-0.007 6.1168595,6.1147892 0 0 0 -0.0263,-0.13051 6.1168595,6.1147892 0 0 0 -0.006,-0.0179 6.1168595,6.1147892 0 0 0 -7.4e-4,-0.007 6.1168595,6.1147892 0 0 0 -0.0263,-0.10501 6.1168595,6.1147892 0 0 0 -0.009,-0.0418 6.1168595,6.1147892 0 0 0 -0.0146,-0.05 6.1168595,6.1147892 0 0 0 -0.043,-0.14885 6.1168595,6.1147892 0 0 0 -0.002,-0.007 6.1168595,6.1147892 0 0 0 -0.0292,-0.0942 6.1168595,6.1147892 0 0 0 -0.006,-0.0119 6.1168595,6.1147892 0 0 0 -0.0447,-0.13491 6.1168595,6.1147892 0 0 0 -7.5e-4,0 6.1168595,6.1147892 0 0 0 -7.4e-4,0 6.1168595,6.1147892 0 0 0 -0.0395,-0.11351 6.1168595,6.1147892 0 0 0 -0.0117,-0.0321 6.1168595,6.1147892 0 0 0 -0.0263,-0.0694 6.1168595,6.1147892 0 0 0 -0.031,-0.0772 6.1168595,6.1147892 0 0 0 -0.006,-0.007 6.1168595,6.1147892 0 0 0 -0.048,-0.11641 6.1168595,6.1147892 0 0 0 -0.009,-0.0209 6.1168595,6.1147892 0 0 0 -0.0342,-0.0773 6.1168595,6.1147892 0 0 0 -0.006,-0.009 6.1168595,6.1147892 0 0 0 -0.0559,-0.11552 6.1168595,6.1147892 0 0 0 -0.009,-0.0201 6.1168595,6.1147892 0 0 0 -0.0301,-0.0597 6.1168595,6.1147892 0 0 0 -0.0632,-0.12291 6.1168595,6.1147892 0 0 0 -0.006,-0.0179 6.1168595,6.1147892 0 0 0 -0.0482,-0.0886 6.1168595,6.1147892 0 0 0 -0.0263,-0.0492 6.1168595,6.1147892 0 0 0 -0.006,-0.009 6.1168595,6.1147892 0 0 0 -0.0737,-0.12641 6.1168595,6.1147892 0 0 0 -0.0749,-0.12193 6.1168595,6.1147892 0 0 0 -0.006,-0.0119 6.1168595,6.1147892 0 0 0 -0.0644,-0.0998 6.1168595,6.1147892 0 0 0 -0.0234,-0.0336 6.1168595,6.1147892 0 0 0 -0.009,-0.0149 6.1168595,6.1147892 0 0 0 -0.0813,-0.11463 6.1168595,6.1147892 0 0 0 -0.0933,-0.1276 6.1168595,6.1147892 0 0 0 -0.0804,-0.1059 6.1168595,6.1147892 0 0 0 -0.0146,-0.0179 6.1168595,6.1147892 0 0 0 -0.0878,-0.10702 6.1168595,6.1147892 0 0 0 -0.0117,-0.0149 6.1168595,6.1147892 0 0 0 -0.0933,-0.10911 6.1168595,6.1147892 0 0 0 -0.009,-0.009 6.1168595,6.1147892 0 0 0 -0.10064,-0.11 6.1168595,6.1147892 0 0 0 -0.006,-0.007 6.1168595,6.1147892 0 0 0 -0.10619,-0.11261 6.1168595,6.1147892 0 0 0 -0.002,0 6.1168595,6.1147892 0 0 0 -0.11234,-0.11261 6.1168595,6.1147892 0 0 0 -0.11467,-0.10709 6.1168595,6.1147892 0 0 0 -0.006,-0.007 6.1168595,6.1147892 0 0 0 -0.11117,-0.1006 6.1168595,6.1147892 0 0 0 -0.009,-0.007 6.1168595,6.1147892 0 0 0 -0.10998,-0.0934 6.1168595,6.1147892 0 0 0 -0.0146,-0.0119 6.1168595,6.1147892 0 0 0 -0.10794,-0.0877 6.1168595,6.1147892 0 0 0 -0.1252,-0.0963 6.1168595,6.1147892 0 0 0 -0.0234,-0.0179 6.1168595,6.1147892 0 0 0 -0.10356,-0.0761 6.1168595,6.1147892 0 0 0 -0.0263,-0.0172 6.1168595,6.1147892 0 0 0 -0.1018,-0.0694 6.1168595,6.1147892 0 0 0 -0.10707,-0.0694 6.1168595,6.1147892 0 0 0 -0.0263,-0.0179 6.1168595,6.1147892 0 0 0 -0.0374,-0.0231 6.1168595,6.1147892 0 0 0 -0.0962,-0.0574 6.1172585,6.1145006 0 0 0 -0.043,-0.0261 6.1172585,6.1145006 0 0 0 -0.14362,-0.0822 6.1168595,6.1147892 0 0 0 -0.0878,-0.0485 6.1168595,6.1147892 0 0 0 -0.11232,-0.0574 6.1168595,6.1147892 0 0 0 -0.0263,-0.0149 6.1168595,6.1147892 0 0 0 -0.0588,-0.0291 6.1172585,6.1145006 0 0 0 -0.14773,-0.0694 6.1168595,6.1147892 0 0 0 -0.0374,-0.0179 6.1168595,6.1147892 0 0 0 -0.10151,-0.0447 6.1168595,6.1147892 0 0 0 -0.009,-0.007 6.1168595,6.1147892 0 0 0 -0.006,-0.007 6.1168595,6.1147892 0 0 0 -0.10823,-0.0447 6.1172585,6.1145006 0 0 0 -0.22057,-0.0834 6.1172585,6.1145006 0 0 0 -0.009,-0.007 6.1172585,6.1145006 0 0 0 -0.0494,-0.0179 6.1172585,6.1145006 0 0 0 -0.006,-7.5e-4 6.1168595,6.1147892 0 0 0 -0.1018,-0.0336 6.1168595,6.1147892 0 0 0 -0.0175,-0.007 6.1172585,6.1145006 0 0 0 -0.0263,-0.007 6.1172585,6.1145006 0 0 0 -0.31455,-0.0898 6.1168595,6.1147892 0 0 0 -0.0661,-0.0179 6.1168595,6.1147892 0 0 0 -0.0292,-0.007 6.1172585,6.1145006 0 0 0 -0.41088,-0.0845 6.1168595,6.1147892 0 0 0 -0.0383,-0.007 6.1168595,6.1147892 0 0 0 -0.006,0 6.1168595,6.1147892 0 0 0 -0.0418,-0.007 6.1172585,6.1145006 0 0 0 -0.43551,-0.0522 6.1172585,6.1145006 0 0 0 -0.48902,-0.0179 l 0.0117,0.009 a 6.1168595,6.1147892 0 0 0 -0.47404,0.0179 6.1168595,6.1147892 0 0 0 -0.006,0 6.1168595,6.1147892 0 0 0 -0.10911,0.0119 6.1168595,6.1147892 0 0 0 -0.33921,0.0395 6.1168595,6.1147892 0 0 0 -0.25363,0.0485 6.1168595,6.1147892 0 0 0 -0.20535,0.041 6.1168595,6.1147892 0 0 0 -0.20769,0.0559 6.1168595,6.1147892 0 0 0 -0.25801,0.0723 6.1168595,6.1147892 0 0 0 -0.17435,0.0611 6.1168595,6.1147892 0 0 0 -0.26327,0.0974 6.1168595,6.1147892 0 0 0 -0.18956,0.0822 6.1168595,6.1147892 0 0 0 -0.23753,0.10911 6.1168595,6.1147892 0 0 0 -0.19892,0.1062 6.1168595,6.1147892 0 0 0 -0.2033,0.1135 6.1168595,6.1147892 0 0 0 -0.20653,0.13044 6.1168595,6.1147892 0 0 0 -0.1881,0.12521 6.1168595,6.1147892 0 0 0 -0.19364,0.14334 6.1168595,6.1147892 0 0 0 -0.18284,0.14453 6.1168595,6.1147892 0 0 0 -0.17317,0.14975 6.1168595,6.1147892 0 0 0 -0.17669,0.16295 6.1168595,6.1147892 0 0 0 -0.16586,0.16586 6.1168595,6.1147892 0 0 0 -0.14977,0.16146 6.1168595,6.1147892 0 0 0 -0.16674,0.19457 6.1168595,6.1147892 0 0 0 -0.13369,0.16907 6.1168595,6.1147892 0 0 0 -0.14656,0.198 6.1168595,6.1147892 0 0 0 -0.12929,0.19368 6.1168595,6.1147892 0 0 0 -0.12199,0.19367 6.1168595,6.1147892 0 0 0 -0.1211,0.21613 6.1168595,6.1147892 0 0 0 -0.10151,0.19278 6.1168595,6.1147892 0 0 0 -0.10911,0.23752 6.1168595,6.1147892 0 0 0 -0.0834,0.19167 6.1168595,6.1147892 0 0 0 -0.0834,0.22462 6.1168595,6.1147892 0 0 0 -0.0781,0.2247 6.1168595,6.1147892 0 0 0 -0.0717,0.25357 6.1168595,6.1147892 0 0 0 -0.0495,0.18316 6.1168595,6.1147892 0 0 0 -0.0547,0.27377 6.1168595,6.1147892 0 0 0 -0.0374,0.20009 6.1168595,6.1147892 0 0 0 -0.0234,0.19897 6.1168595,6.1147892 0 0 0 -0.031,0.26848 6.1168595,6.1147892 0 0 0 -0.0175,0.46014 6.1168595,6.1147892 0 0 0 0.0117,0.35953 l 2.85813,-0.31777 a 3.2360103,3.2345518 0 0 1 -7.4e-4,-0.0522 3.2360103,3.2345518 0 0 1 3.23587,-3.23485 3.2360103,3.2345518 0 0 1 3.16739,2.57462 z"
         inkscape:export-filename="E:\Inkscape\clients\NimbleEdge\36.png"
         inkscape:export-xdpi="800"
         inkscape:export-ydpi="800" />
      <path
         id="path72070"
         style="fill:url(#linearGradient2381);fill-opacity:1;stroke:none;stroke-width:0.245662;stroke-linejoin:round"
         d="m 145.68711,45.68878 a 6.1172582,6.1145006 0 0 0 -5.53343,3.51832 l 4.05041,-0.45089 c 0,0 3.11442,-0.59289 4.12782,1.43307 l -8.71698,0.98919 a 6.1172582,6.1145006 0 0 0 -0.0447,0.62488 6.1172582,6.1145006 0 0 0 6.11703,6.11457 6.1172582,6.1145006 0 0 0 5.58331,-3.62571 l -4.70565,0.53397 c 0,0 -2.76832,0.24693 -3.58403,-1.58133 l 8.80617,-0.98039 a 6.1172582,6.1145006 0 0 0 0.0175,-0.46111 6.1172582,6.1145006 0 0 0 -6.11732,-6.11457 z"
         inkscape:export-filename="E:\Inkscape\clients\NimbleEdge\36.png"
         inkscape:export-xdpi="800"
         inkscape:export-ydpi="800" />
      <path
         id="path72072"
         style="fill:url(#linearGradient2383);fill-opacity:1;stroke:none;stroke-width:0.245662;stroke-linejoin:round"
         d="m 153.0296,54.09234 a 6.1168595,6.1147892 0 0 0 0.002,0.007 6.1168595,6.1147892 0 0 0 0.091,0.2077 6.1168595,6.1147892 0 0 0 0.10385,0.2238 6.1168595,6.1147892 0 0 0 0.1059,0.20009 6.1168595,6.1147892 0 0 0 0.1135,0.2033 6.1168595,6.1147892 0 0 0 0.12403,0.19771 6.1168595,6.1147892 0 0 0 0.14012,0.20978 6.1168595,6.1147892 0 0 0 0.10911,0.14774 6.1172585,6.1145006 0 0 0 0.0533,0.0693 6.1168595,6.1147892 0 0 0 0.1252,0.15855 6.1168595,6.1147892 0 0 0 0.10912,0.12515 6.1172585,6.1145006 0 0 0 0.18721,0.20538 6.1172585,6.1145006 0 0 0 0.006,0.007 6.1168595,6.1147892 0 0 0 0.1018,0.10269 6.1172585,6.1145006 0 0 0 0.26211,0.24513 6.1168595,6.1147892 0 0 0 0.0737,0.0634 6.1172585,6.1145006 0 0 0 0.33921,0.26967 6.1172585,6.1145006 0 0 0 0.40024,0.27093 6.1172585,6.1145006 0 0 0 3.21551,0.91596 6.1172585,6.1145006 0 0 0 3.25085,-0.93743 v 0.0149 a 6.1168595,6.1147892 0 0 0 0.0781,-0.0492 6.1168595,6.1147892 0 0 0 0.19687,-0.13163 6.1168595,6.1147892 0 0 0 0.19774,-0.14654 6.1168595,6.1147892 0 0 0 0.17231,-0.13603 6.1168595,6.1147892 0 0 0 0.17961,-0.15385 6.1168595,6.1147892 0 0 0 0.18722,-0.17317 6.1168595,6.1147892 0 0 0 0.14216,-0.14244 6.1168595,6.1147892 0 0 0 0.17756,-0.19137 6.1168595,6.1147892 0 0 0 0.14451,-0.16787 6.1168595,6.1147892 0 0 0 0.14451,-0.18286 6.1168595,6.1147892 0 0 0 0.14451,-0.1936 6.1168595,6.1147892 0 0 0 0.13164,-0.19689 6.1168595,6.1147892 0 0 0 0.11759,-0.18726 6.1168595,6.1147892 0 0 0 0.11994,-0.21292 6.1168595,6.1147892 0 0 0 0.1135,-0.215 6.1168595,6.1147892 0 0 0 0.0772,-0.16795 6.1168595,6.1147892 0 0 0 0.11555,-0.26527 6.1168595,6.1147892 0 0 0 0.0673,-0.18197 6.1168595,6.1147892 0 0 0 0.0845,-0.23961 6.1168595,6.1147892 0 0 0 0.0652,-0.23313 6.1168595,6.1147892 0 0 0 0.0597,-0.22903 6.1168595,6.1147892 0 0 0 0.0503,-0.25162 6.1168595,6.1147892 0 0 0 0.0354,-0.18078 l -3.09681,0.35104 a 3.2360103,3.2345518 0 0 1 -2.95765,1.92394 3.2360103,3.2345518 0 0 1 -2.58527,-1.29481 z"
         inkscape:export-filename="E:\Inkscape\clients\NimbleEdge\36.png"
         inkscape:export-xdpi="800"
         inkscape:export-ydpi="800" />
      <path
         id="path72074"
         style="fill:url(#linearGradient2385);fill-opacity:1;stroke:none;stroke-width:0.245662;stroke-linejoin:round"
         d="m 184.7429,45.68878 a 6.1172582,6.1145006 0 0 0 -5.53821,3.52332 l 4.16439,-0.46372 c 0,0 3.11439,-0.59281 4.12781,1.43315 l -8.83574,1.00268 a 6.1172582,6.1145006 0 0 0 -0.0354,0.61914 6.1172582,6.1145006 0 0 0 6.11732,6.11457 6.1172582,6.1145006 0 0 0 5.5703,-3.59118 l -4.6205,0.5242 c 0,0 -2.76832,0.24715 -3.58398,-1.58125 l 8.72971,-0.97189 a 6.1172582,6.1145006 0 0 0 0.0205,-0.49445 6.1172582,6.1145006 0 0 0 -6.11733,-6.11457 z"
         inkscape:export-filename="E:\Inkscape\clients\NimbleEdge\36.png"
         inkscape:export-xdpi="800"
         inkscape:export-ydpi="800" />
      <path
         id="path72076"
         style="fill:url(#linearGradient2387);fill-opacity:1;stroke:none;stroke-width:0.245662;stroke-linejoin:round"
         d="m 169.32563,57.44055 a 6.1172573,6.1145006 0 0 0 0.45476,0.16996 6.1172573,6.1145006 0 0 0 0.45801,0.13163 6.1168595,6.1147892 0 0 0 0.0749,0.0149 6.1172573,6.1145006 0 0 0 0.40982,0.0823 6.1172573,6.1145006 0 0 0 0.48048,0.0589 6.1172573,6.1145006 0 0 0 0.48688,0.0179 6.1168595,6.1147892 0 0 0 0.48366,-0.0209 6.1172573,6.1145006 0 0 0 0.18518,-0.0231 6.1168595,6.1147892 0 0 0 0.29743,-0.0365 6.1172573,6.1145006 0 0 0 0.22261,-0.044 6.1168595,6.1147892 0 0 0 0.25685,-0.053 6.1172573,6.1145006 0 0 0 0.21617,-0.0597 6.1168595,6.1147892 0 0 0 0.25567,-0.0761 6.1172573,6.1145006 0 0 0 0.23959,-0.0878 6.1168595,6.1147892 0 0 0 0.19686,-0.0773 6.1172573,6.1145006 0 0 0 0.2621,-0.11873 6.1168595,6.1147892 0 0 0 0.1881,-0.0919 6.1172573,6.1145006 0 0 0 0.22671,-0.12402 6.1168595,6.1147892 0 0 0 0.3082,-0.18398 6.1168595,6.1147892 0 0 0 0.41197,-0.29324 6.1168595,6.1147892 0 0 0 0.38523,-0.32627 6.1168595,6.1147892 0 0 0 0.35741,-0.35745 6.1168595,6.1147892 0 0 0 0.32742,-0.38526 6.1168595,6.1147892 0 0 0 0.2932,-0.41197 6.1168595,6.1147892 0 0 0 0.25889,-0.43441 6.1168595,6.1147892 0 0 0 0.22173,-0.45372 6.1168595,6.1147892 0 0 0 0.18401,-0.47081 6.1168595,6.1147892 0 0 0 0.1445,-0.4837 6.1168595,6.1147892 0 0 0 0.10355,-0.49542 6.1168595,6.1147892 0 0 0 0.0624,-0.50078 6.1168595,6.1147892 0 0 0 0.0205,-0.50511 6.1168595,6.1147892 0 0 0 -0.002,-0.17138 6.1168595,6.1147892 0 0 0 -0.006,-0.17145 6.1168595,6.1147892 0 0 0 -0.0117,-0.17138 6.1168595,6.1147892 0 0 0 0,-0.007 l -2.85817,0.32419 a 3.2360103,3.2345518 0 0 1 0.006,0.19487 3.2360103,3.2345518 0 0 1 -3.23584,3.23477 3.2360103,3.2345518 0 0 1 -3.18668,-2.70192 l -2.86562,0.3253 a 6.1172573,6.1145006 0 0 0 3.68742,4.7789 z"
         inkscape:export-filename="E:\Inkscape\clients\NimbleEdge\36.png"
         inkscape:export-xdpi="800"
         inkscape:export-ydpi="800" />
      <path
         id="path72078"
         style="fill:url(#linearGradient10031);fill-opacity:1;stroke:none;stroke-width:0.245662;stroke-linejoin:round"
         d="m 177.31795,49.42151 a 6.1168595,6.1147892 0 0 0 -0.0494,-0.11559 6.1168595,6.1147892 0 0 0 -0.0726,-0.15617 6.1168595,6.1147892 0 0 0 -0.0761,-0.15303 6.1168595,6.1147892 0 0 0 -0.0813,-0.15094 6.1168595,6.1147892 0 0 0 -0.0854,-0.15005 6.1168595,6.1147892 0 0 0 -0.0886,-0.14543 6.1168595,6.1147892 0 0 0 -0.0933,-0.14445 6.1168595,6.1147892 0 0 0 -0.0974,-0.14132 6.1168595,6.1147892 0 0 0 -0.1018,-0.13805 6.1168595,6.1147892 0 0 0 -0.10502,-0.13603 6.1168595,6.1147892 0 0 0 -0.10911,-0.13252 6.1168595,6.1147892 0 0 0 -0.11233,-0.12961 6.1168595,6.1147892 0 0 0 -0.11555,-0.12634 6.1168595,6.1147892 0 0 0 -0.11993,-0.1229 6.1168595,6.1147892 0 0 0 -0.12286,-0.11992 6.1168595,6.1147892 0 0 0 -0.12608,-0.11552 6.1168595,6.1147892 0 0 0 -0.12959,-0.11239 6.1168595,6.1147892 0 0 0 -0.13252,-0.1091 6.1168595,6.1147892 0 0 0 -0.13602,-0.10501 6.1168595,6.1147892 0 0 0 -0.13807,-0.1015 6.1168595,6.1147892 0 0 0 -0.1413,-0.0974 6.1168595,6.1147892 0 0 0 -0.1445,-0.0933 6.1168595,6.1147892 0 0 0 -0.0632,-0.038 6.1172573,6.1145006 0 0 0 -0.29855,-0.17146 6.1168595,6.1147892 0 0 0 -0.0845,-0.0447 6.1168595,6.1147892 0 0 0 -0.0292,-0.0149 6.1172573,6.1145006 0 0 0 -0.34349,-0.16265 6.1168595,6.1147892 0 0 0 -0.0708,-0.0298 6.1172573,6.1145006 0 0 0 -0.40983,-0.15385 6.1168595,6.1147892 0 0 0 -0.0406,-0.0149 6.1172573,6.1145006 0 0 0 -0.44836,-0.12961 6.1172573,6.1145006 0 0 0 -0.006,0 6.1172573,6.1145006 0 0 0 -0.47618,-0.0962 6.1172573,6.1145006 0 0 0 -0.9759,-0.079 6.1172573,6.1145006 0 0 0 -0.47298,0.0179 6.1172573,6.1145006 0 0 0 -0.46974,0.0559 6.1172573,6.1145006 0 0 0 -0.46333,0.091 6.1172573,6.1145006 0 0 0 -0.45584,0.12603 6.1172573,6.1145006 0 0 0 -0.87531,0.35641 6.1172573,6.1145006 0 0 0 -3.28083,4.38184 l 3.11816,-0.34775 a 3.2360103,3.2345518 0 0 1 2.89987,-1.802 3.2360103,3.2345518 0 0 1 2.51469,1.19957 z"
         inkscape:export-filename="E:\Inkscape\clients\NimbleEdge\36.png"
         inkscape:export-xdpi="800"
         inkscape:export-ydpi="800" />
    </g>
  </g>
</svg>
