<svg xmlns="http://www.w3.org/2000/svg" xmlns:xlink="http://www.w3.org/1999/xlink" width="36" height="36" viewBox="0 0 36 36">
  <defs>
    <linearGradient id="linear-gradient" y1="0.5" x2="1" y2="0.5" gradientUnits="objectBoundingBox">
      <stop offset="0" stop-color="#c93418"/>
      <stop offset="0.5" stop-color="#773544"/>
      <stop offset="1" stop-color="#323568"/>
    </linearGradient>
  </defs>
  <g id="Group_269" data-name="Group 269" transform="translate(-289 -626)">
    <rect id="Rectangle_63" data-name="Rectangle 63" width="36" height="36" rx="8" transform="translate(289 626)" fill="url(#linear-gradient)"/>
    <path id="Path_1245" data-name="Path 1245" d="M160.008,1821.311a8.346,8.346,0,0,1-2.048.584c.33-.055.813-.651,1.007-.893a3.754,3.754,0,0,0,.68-1.24c.018-.035.031-.08,0-.107a.116.116,0,0,0-.108.009,10.468,10.468,0,0,1-2.429.929.163.163,0,0,1-.167-.044,1.97,1.97,0,0,0-.212-.217,4.3,4.3,0,0,0-1.176-.72,4.1,4.1,0,0,0-1.8-.291,4.31,4.31,0,0,0-1.712.483,4.415,4.415,0,0,0-1.381,1.128,4.245,4.245,0,0,0-.825,1.651,4.475,4.475,0,0,0-.044,1.744c.013.1,0,.111-.084.1a12.968,12.968,0,0,1-8.343-4.247c-.1-.111-.15-.111-.23.009a4.231,4.231,0,0,0,.721,5c.163.155.332.31.513.451a4.251,4.251,0,0,1-1.61-.451c-.1-.062-.146-.026-.155.084a2.533,2.533,0,0,0,.026.478,4.278,4.278,0,0,0,2.637,3.411,2.491,2.491,0,0,0,.535.164,4.768,4.768,0,0,1-1.579.049c-.115-.022-.159.035-.115.146a4.442,4.442,0,0,0,3.318,2.778c.15.026.3.026.452.062-.009.014-.018.014-.027.027a5.257,5.257,0,0,1-2.266,1.2,8.114,8.114,0,0,1-3.441.44c-.185-.027-.224-.025-.274,0s-.006.076.053.124c.234.155.473.292.717.425a11.372,11.372,0,0,0,2.3.92,12.253,12.253,0,0,0,11.895-2.781c2.438-2.422,3.292-5.762,3.292-9.106,0-.131.155-.2.246-.272a8.047,8.047,0,0,0,1.619-1.683.512.512,0,0,0,.107-.323v-.018C160.091,1821.257,160.09,1821.273,160.008,1821.311Z" transform="translate(157.034 -1183.241)" fill="#fff"/>
  </g>
</svg>
