<?xml version="1.0" encoding="UTF-8" standalone="no"?>
<!-- Created with Inkscape (http://www.inkscape.org/) -->

<svg
   width="6000"
   height="2000"
   viewBox="0 0 1587.5 529.16668"
   version="1.1"
   id="svg3573"
   inkscape:version="1.1 (c68e22c387, 2021-05-23)"
   sodipodi:docname="White_Logo_text_svg.svg"
   xmlns:inkscape="http://www.inkscape.org/namespaces/inkscape"
   xmlns:sodipodi="http://sodipodi.sourceforge.net/DTD/sodipodi-0.dtd"
   xmlns:xlink="http://www.w3.org/1999/xlink"
   xmlns="http://www.w3.org/2000/svg"
   xmlns:svg="http://www.w3.org/2000/svg">
  <sodipodi:namedview
     id="namedview3575"
     pagecolor="#ffffff"
     bordercolor="#666666"
     borderopacity="1.0"
     inkscape:pageshadow="2"
     inkscape:pageopacity="0.0"
     inkscape:pagecheckerboard="0"
     inkscape:document-units="mm"
     showgrid="false"
     inkscape:zoom="0.081067622"
     inkscape:cx="4095.3465"
     inkscape:cy="1683.7795"
     inkscape:window-width="1920"
     inkscape:window-height="1001"
     inkscape:window-x="-9"
     inkscape:window-y="-9"
     inkscape:window-maximized="1"
     inkscape:current-layer="g2887"
     units="px" />
  <defs
     id="defs3570">
    <rect
       x="574.34747"
       y="1588.5154"
       width="65.760933"
       height="58.866638"
       id="rect2977" />
    <linearGradient
       inkscape:collect="always"
       xlink:href="#linearGradient191025"
       id="linearGradient2979"
       gradientUnits="userSpaceOnUse"
       gradientTransform="matrix(2.4784656,0,0,2.4784656,-248.37825,-886.41915)"
       x1="156.52763"
       y1="417.44199"
       x2="177.22121"
       y2="417.44199" />
    <linearGradient
       inkscape:collect="always"
       id="linearGradient191025">
      <stop
         style="stop-color:#254fea;stop-opacity:1"
         offset="0"
         id="stop191021" />
      <stop
         style="stop-color:#55b6f3;stop-opacity:1"
         offset="1"
         id="stop191023" />
    </linearGradient>
    <linearGradient
       inkscape:collect="always"
       xlink:href="#linearGradient109529"
       id="linearGradient2989"
       gradientUnits="userSpaceOnUse"
       gradientTransform="matrix(0.74576996,0,0,0.74576996,63.822048,336.41188)"
       x1="107.91686"
       y1="-252.49857"
       x2="160.53526"
       y2="-252.64281" />
    <linearGradient
       inkscape:collect="always"
       id="linearGradient109529">
      <stop
         style="stop-color:#e6340a;stop-opacity:1"
         offset="0"
         id="stop109525" />
      <stop
         style="stop-color:#323568;stop-opacity:1"
         offset="1"
         id="stop109527" />
    </linearGradient>
    <linearGradient
       inkscape:collect="always"
       xlink:href="#linearGradient126768"
       id="linearGradient2991"
       gradientUnits="userSpaceOnUse"
       gradientTransform="matrix(0.74576996,0,0,0.74576996,63.822048,336.41188)"
       x1="132.02739"
       y1="-247.87659"
       x2="134.39149"
       y2="-244.81683" />
    <linearGradient
       inkscape:collect="always"
       id="linearGradient126768">
      <stop
         style="stop-color:#000000;stop-opacity:1;"
         offset="0"
         id="stop126764" />
      <stop
         style="stop-color:#000000;stop-opacity:0;"
         offset="1"
         id="stop126766" />
    </linearGradient>
    <linearGradient
       inkscape:collect="always"
       xlink:href="#linearGradient126768"
       id="linearGradient2995"
       gradientUnits="userSpaceOnUse"
       gradientTransform="matrix(0.74576996,0,0,0.74576996,63.822048,336.41188)"
       x1="130.58295"
       y1="-252.18291"
       x2="134.31125"
       y2="-264.13779" />
    <linearGradient
       inkscape:collect="always"
       xlink:href="#linearGradient126768"
       id="linearGradient2999"
       gradientUnits="userSpaceOnUse"
       gradientTransform="matrix(0.74576996,0,0,0.74576996,63.822048,336.41188)"
       x1="147.46953"
       y1="-254.89034"
       x2="152.19519"
       y2="-259.86658" />
    <linearGradient
       inkscape:collect="always"
       xlink:href="#linearGradient126768"
       id="linearGradient3003"
       gradientUnits="userSpaceOnUse"
       gradientTransform="matrix(0.74576996,0,0,0.74576996,63.822048,336.41188)"
       x1="148.98848"
       y1="-248.37965"
       x2="150.34581"
       y2="-243.57474" />
    <linearGradient
       inkscape:collect="always"
       xlink:href="#linearGradient191025"
       id="linearGradient4349"
       gradientUnits="userSpaceOnUse"
       gradientTransform="matrix(2.4784656,0,0,2.4784656,-248.37825,-886.41915)"
       x1="156.52763"
       y1="417.44199"
       x2="177.22121"
       y2="417.44199" />
    <linearGradient
       inkscape:collect="always"
       xlink:href="#linearGradient191025"
       id="linearGradient4351"
       gradientUnits="userSpaceOnUse"
       gradientTransform="matrix(2.4784656,0,0,2.4784656,-248.37825,-886.41915)"
       x1="156.52763"
       y1="417.44199"
       x2="177.22121"
       y2="417.44199" />
    <linearGradient
       inkscape:collect="always"
       xlink:href="#linearGradient191025"
       id="linearGradient4353"
       gradientUnits="userSpaceOnUse"
       gradientTransform="matrix(2.4784656,0,0,2.4784656,-248.37825,-886.41915)"
       x1="156.52763"
       y1="417.44199"
       x2="177.22121"
       y2="417.44199" />
    <linearGradient
       inkscape:collect="always"
       xlink:href="#linearGradient191025"
       id="linearGradient4355"
       gradientUnits="userSpaceOnUse"
       gradientTransform="matrix(2.4784656,0,0,2.4784656,-248.37825,-886.41915)"
       x1="156.52763"
       y1="417.44199"
       x2="177.22121"
       y2="417.44199" />
    <linearGradient
       inkscape:collect="always"
       xlink:href="#linearGradient109529"
       id="linearGradient4357"
       gradientUnits="userSpaceOnUse"
       gradientTransform="matrix(0.74576996,0,0,0.74576996,63.822048,336.41188)"
       x1="107.91686"
       y1="-252.49857"
       x2="160.53526"
       y2="-252.64281" />
    <linearGradient
       inkscape:collect="always"
       xlink:href="#linearGradient109529"
       id="linearGradient4359"
       gradientUnits="userSpaceOnUse"
       gradientTransform="matrix(0.74576996,0,0,0.74576996,63.822048,336.41188)"
       x1="107.91686"
       y1="-252.49857"
       x2="160.53526"
       y2="-252.64281" />
    <linearGradient
       inkscape:collect="always"
       xlink:href="#linearGradient109529"
       id="linearGradient4361"
       gradientUnits="userSpaceOnUse"
       gradientTransform="matrix(0.74576996,0,0,0.74576996,63.822048,336.41188)"
       x1="107.91686"
       y1="-252.49857"
       x2="160.53526"
       y2="-252.64281" />
    <linearGradient
       inkscape:collect="always"
       xlink:href="#linearGradient109529"
       id="linearGradient4363"
       gradientUnits="userSpaceOnUse"
       gradientTransform="matrix(0.74576996,0,0,0.74576996,63.822048,336.41188)"
       x1="107.91686"
       y1="-252.49857"
       x2="160.53526"
       y2="-252.64281" />
    <linearGradient
       inkscape:collect="always"
       xlink:href="#linearGradient109529"
       id="linearGradient4365"
       gradientUnits="userSpaceOnUse"
       gradientTransform="matrix(0.74576996,0,0,0.74576996,63.822048,336.41188)"
       x1="107.91686"
       y1="-252.49857"
       x2="160.53526"
       y2="-252.64281" />
    <linearGradient
       inkscape:collect="always"
       xlink:href="#linearGradient109529"
       id="linearGradient4367"
       gradientUnits="userSpaceOnUse"
       gradientTransform="matrix(0.74576996,0,0,0.74576996,63.822048,336.41188)"
       x1="107.91686"
       y1="-252.49857"
       x2="160.53526"
       y2="-252.64281" />
    <linearGradient
       inkscape:collect="always"
       xlink:href="#linearGradient109529"
       id="linearGradient4369"
       gradientUnits="userSpaceOnUse"
       gradientTransform="matrix(0.74576996,0,0,0.74576996,63.822048,336.41188)"
       x1="107.91686"
       y1="-252.49857"
       x2="160.53526"
       y2="-252.64281" />
    <linearGradient
       inkscape:collect="always"
       xlink:href="#linearGradient109529"
       id="linearGradient4371"
       gradientUnits="userSpaceOnUse"
       gradientTransform="matrix(0.74576996,0,0,0.74576996,63.822048,336.41188)"
       x1="107.91686"
       y1="-252.49857"
       x2="160.53526"
       y2="-252.64281" />
    <linearGradient
       inkscape:collect="always"
       xlink:href="#linearGradient109529"
       id="linearGradient4373"
       gradientUnits="userSpaceOnUse"
       gradientTransform="matrix(0.74576996,0,0,0.74576996,63.822048,336.41188)"
       x1="107.91686"
       y1="-252.49857"
       x2="160.53526"
       y2="-252.64281" />
  </defs>
  <g
     inkscape:label="Layer 1"
     inkscape:groupmode="layer"
     id="layer1">
    <g
       id="g2887"
       transform="matrix(13.112439,0,0,13.112439,-915.90567,-1677.4535)">
      <rect
         style="fill:#df350f;fill-opacity:1;stroke:none;stroke-width:2.04668;stroke-linejoin:round"
         id="rect2833"
         width="2.2283115"
         height="2.2283115"
         x="86.410011"
         y="140.29251"
         ry="0.65538567"
         inkscape:export-filename="E:\Inkscape\clients\NimbleEdge\36.png"
         inkscape:export-xdpi="800"
         inkscape:export-ydpi="800" />
      <path
         d="m 69.909429,154.25465 v -16.8087 h 0.365658 l 11.175374,12.86648 v -13.00422 h 1.656813 v 16.94644 h -0.377067 l -11.0839,-12.70651 v 12.70651 z"
         id="path2835"
         style="font-size:40px;line-height:1.25;font-family:'Century Gothic';-inkscape-font-specification:'Century Gothic, Normal';letter-spacing:0px;word-spacing:0px;white-space:pre;fill:#ffffff;fill-opacity:1;stroke-width:0.585047"
         sodipodi:nodetypes="ccccccccccc"
         inkscape:export-filename="E:\Inkscape\clients\NimbleEdge\36.png"
         inkscape:export-xdpi="800"
         inkscape:export-ydpi="800" />
      <path
         id="path2837"
         style="font-size:40px;line-height:1.25;font-family:'Century Gothic';-inkscape-font-specification:'Century Gothic, Normal';letter-spacing:0px;word-spacing:0px;white-space:pre;fill:#ffffff;fill-opacity:1;stroke-width:0.585047"
         d="m 93.892929,141.50265 c -0.860808,0 -1.619155,0.21688 -2.274279,0.65111 -0.662749,0.43424 -1.153866,1.03998 -1.473814,1.81695 -0.275666,0.6695 -0.432117,1.62835 -0.470254,2.87478 0.178422,0.007 0.328321,0.0598 0.432533,0.12038 0.08049,0.0468 0.111964,0.0861 0.143142,0.11835 0.235754,0.19855 0.343628,0.47527 0.349332,0.67696 0.0058,0.20688 -0.06821,0.37465 -0.06821,0.37465 a 0.42204449,0.42204449 0 0 1 -0.02376,0.045 l -0.842843,1.41697 v 4.65709 h 1.634008 v -6.7877 c 0,-1.33305 0.09524,-2.24724 0.285771,-2.74248 0.190535,-0.50274 0.518314,-0.90657 0.982885,-1.21129 0.457102,-0.30467 1.005525,-0.45683 1.645378,-0.45683 0.777012,0 1.489305,0.22823 2.136822,0.68524 0.639892,0.4571 1.108488,1.06704 1.405599,1.82883 0.297088,0.76176 0.44545,2.03372 0.44545,3.8163 v 4.86793 h 1.588535 v -6.365 c 0,-1.50074 0.09492,-2.51775 0.285246,-3.05096 0.18293,-0.54086 0.50693,-0.97094 0.97152,-1.29088 0.46469,-0.32755 1.01683,-0.49146 1.65675,-0.49146 0.73892,0 1.43196,0.22495 2.07946,0.6744 0.63991,0.44177 1.11599,1.03952 1.42833,1.79369 0.3047,0.75416 0.45734,1.90828 0.45734,3.46231 v 5.2679 h 1.58802 v -12.43232 h -1.58802 v 2.14818 c -0.55609,-0.79224 -1.12753,-1.3712 -1.71411,-1.73683 -0.80747,-0.4876 -1.65685,-0.73123 -2.54816,-0.73123 -0.60179,0 -1.17324,0.11782 -1.71411,0.35399 -0.54088,0.23611 -0.982694,0.55205 -1.325497,0.94826 -0.342804,0.38849 -0.639524,0.94869 -0.890902,1.68 -0.533257,-0.97507 -1.200012,-1.71413 -1.999877,-2.21691 -0.799885,-0.51041 -1.660522,-0.76534 -2.582272,-0.76534 z" />
      <path
         d="m 109.33357,154.25465 v -16.94644 h 1.58836 v 6.65101 c 0.67035,-0.82275 1.42069,-1.43591 2.25105,-1.83975 0.83034,-0.41128 1.74069,-0.61705 2.73098,-0.61705 1.75975,0 3.26044,0.63995 4.50214,1.91977 1.24932,1.27213 1.87398,2.81856 1.87398,4.63913 0,1.79783 -0.62847,3.33285 -1.88537,4.60497 -1.25698,1.27222 -2.76914,1.9083 -4.53648,1.9083 -1.01313,0 -1.93108,-0.21704 -2.75384,-0.65129 -0.82273,-0.43417 -1.55022,-1.08555 -2.18246,-1.95391 v 2.28526 z m 6.39896,-1.2227 c 0.89131,0 1.71401,-0.21672 2.46817,-0.65127 0.75416,-0.44188 1.35221,-1.05885 1.79401,-1.85108 0.44944,-0.79232 0.67419,-1.63025 0.67419,-2.51392 0,-0.88367 -0.22467,-1.72541 -0.67419,-2.52532 -0.4494,-0.79984 -1.05505,-1.42069 -1.81683,-1.86256 -0.75416,-0.44941 -1.56165,-0.6741 -2.42247,-0.6741 -0.87605,0 -1.71023,0.22492 -2.50248,0.6741 -0.78461,0.44187 -1.39026,1.03983 -1.81682,1.79402 -0.41899,0.75413 -0.62847,1.60356 -0.62847,2.54815 0,1.43979 0.47229,2.64345 1.41689,3.61086 0.9522,0.96741 2.12155,1.45112 3.508,1.45112 z"
         id="path2839"
         style="font-size:40px;line-height:1.25;font-family:'Century Gothic';-inkscape-font-specification:'Century Gothic, Normal';letter-spacing:0px;word-spacing:0px;white-space:pre;fill:#ffffff;fill-opacity:1;stroke-width:0.585047"
         sodipodi:nodetypes="cccccscsssscccsccsscsccscs"
         inkscape:export-filename="E:\Inkscape\clients\NimbleEdge\36.png"
         inkscape:export-xdpi="800"
         inkscape:export-ydpi="800" />
      <path
         d="m 123.18521,137.30821 h 1.59978 v 16.98133 h -1.59978 z"
         id="path2841"
         style="font-size:40px;line-height:1.25;font-family:'Century Gothic';-inkscape-font-specification:'Century Gothic, Normal';letter-spacing:0px;word-spacing:0px;white-space:pre;fill:#ffffff;fill-opacity:1;stroke-width:0.580788"
         inkscape:export-filename="E:\Inkscape\clients\NimbleEdge\36.png"
         inkscape:export-xdpi="800"
         inkscape:export-ydpi="800" />
      <g
         aria-label="e"
         transform="matrix(0.54421498,0,0,0.54421498,-187.89183,-730.2303)"
         id="text2845"
         style="font-size:40px;line-height:1.25;font-family:'Century Gothic';-inkscape-font-specification:'Century Gothic, Normal';letter-spacing:0px;word-spacing:0px;white-space:pre;shape-inside:url(#rect2977);fill:#ffffff">
        <path
           d="m 595.28516,1617.7798 2.30468,1.211 q -1.13281,2.2265 -2.61718,3.5937 -1.48438,1.3672 -3.33985,2.0899 -1.85547,0.7031 -4.19922,0.7031 -5.19531,0 -8.125,-3.3985 -2.92968,-3.4179 -2.92968,-7.7148 0,-4.043 2.48046,-7.207 3.14454,-4.0235 8.41797,-4.0235 5.42969,0 8.67188,4.1211 2.30469,2.9102 2.34375,7.2657 h -19.10156 q 0.0781,3.7109 2.36328,6.0937 2.28515,2.3633 5.64453,2.3633 1.62109,0 3.14453,-0.5664 1.54297,-0.5664 2.61719,-1.5039 1.07422,-0.9375 2.32422,-3.0274 z m 0,-5.7226 q -0.54688,-2.1875 -1.60157,-3.4961 -1.03515,-1.3086 -2.7539,-2.1094 -1.71875,-0.8008 -3.61328,-0.8008 -3.125,0 -5.3711,2.0117 -1.64062,1.4649 -2.48047,4.3946 z"
           id="path1112" />
      </g>
      <path
         style="fill:#ffffff;stroke:none;stroke-width:0.0642942px;stroke-linecap:butt;stroke-linejoin:miter;stroke-opacity:1"
         d="m 87.599272,147.26573 0.10515,-3.32098 c 0,0 -0.04381,-0.3418 -0.306689,-0.333 0,0 -0.31545,-0.12267 -0.665953,0.40311 l -3.119462,5.09979 c 0,0 -0.332976,0.69223 0.289164,0.68343 h 2.225684 l -0.429365,3.89932 c 0,0 -0.05258,0.48199 0.289164,0.5433 0,0 0.376789,0.12268 0.639665,-0.35924 l 3.518794,-5.91619 c 0,0 0.142509,-0.32224 -0.167292,-0.57008 0,0 -0.105334,-0.12946 -0.340784,-0.12946 z"
         id="path2847"
         inkscape:export-filename="E:\Inkscape\clients\NimbleEdge\36.png"
         inkscape:export-xdpi="800"
         inkscape:export-ydpi="800" />
      <path
         id="path2849"
         style="fill:url(#linearGradient4349);fill-opacity:1;stroke:none;stroke-width:0.245661;stroke-linejoin:round"
         d="m 161.36756,142.75316 a 6.1168596,6.1147893 0 0 1 0.0588,0.0291 6.1168596,6.1147893 0 0 1 0.0263,0.015 6.1168596,6.1147893 0 0 1 0.11262,0.0582 6.1168596,6.1147893 0 0 1 0.0878,0.0485 6.1172585,6.1145006 0 0 0 -0.28668,-0.14885 z"
         inkscape:export-filename="E:\Inkscape\clients\NimbleEdge\36.png"
         inkscape:export-xdpi="800"
         inkscape:export-ydpi="800" />
      <path
         id="path2851"
         style="fill:url(#linearGradient4351);fill-opacity:1;stroke:none;stroke-width:0.245661;stroke-linejoin:round"
         d="m 160.95447,142.56911 a 6.1168596,6.1147893 0 0 1 0.10824,0.0447 6.1168596,6.1147893 0 0 1 0.006,0.008 6.1168596,6.1147893 0 0 1 0.009,0.008 6.1168596,6.1147893 0 0 1 0.1018,0.0447 6.1168596,6.1147893 0 0 1 0.0374,0.018 6.1172585,6.1145006 0 0 0 -0.26532,-0.1147 z"
         inkscape:export-filename="E:\Inkscape\clients\NimbleEdge\36.png"
         inkscape:export-xdpi="800"
         inkscape:export-ydpi="800" />
      <path
         id="path2853"
         style="fill:url(#linearGradient4353);fill-opacity:1;stroke:none;stroke-width:0.245661;stroke-linejoin:round"
         d="m 154.10715,152.28216 a 6.1168596,6.1147893 0 0 1 -0.10911,-0.12522 6.1168596,6.1147893 0 0 1 -0.1252,-0.15854 6.1172585,6.1145006 0 0 0 0.23431,0.28347 z"
         inkscape:export-filename="E:\Inkscape\clients\NimbleEdge\36.png"
         inkscape:export-xdpi="800"
         inkscape:export-ydpi="800" />
      <path
         id="path2855"
         style="fill:url(#linearGradient4355);fill-opacity:1;stroke:none;stroke-width:0.245661;stroke-linejoin:round"
         d="m 153.56996,151.57159 a 6.1172585,6.1145006 0 0 0 0.24923,0.35745 6.1168596,6.1147893 0 0 1 -0.10911,-0.14774 6.1168596,6.1147893 0 0 1 -0.14012,-0.20978 z"
         inkscape:export-filename="E:\Inkscape\clients\NimbleEdge\36.png"
         inkscape:export-xdpi="800"
         inkscape:export-ydpi="800" />
      <path
         id="path2857"
         style="fill:url(#linearGradient2979);fill-opacity:1;stroke:none;stroke-width:0.245661;stroke-linejoin:round"
         d="m 174.46407,142.79813 a 6.1168596,6.1147893 0 0 1 0.0292,0.015 6.1168596,6.1147893 0 0 1 0.0845,0.0447 6.1172574,6.1145006 0 0 0 -0.1135,-0.0589 z"
         inkscape:export-filename="E:\Inkscape\clients\NimbleEdge\36.png"
         inkscape:export-xdpi="800"
         inkscape:export-ydpi="800" />
      <path
         id="path2859"
         style="fill:url(#linearGradient4357);fill-opacity:1;stroke:none;stroke-width:0.245661;stroke-linejoin:round"
         d="m 164.80781,149.19713 -0.0623,0.008 a 6.1168596,6.1147893 0 0 1 -0.0354,0.18078 6.1168596,6.1147893 0 0 1 -0.0503,0.25154 6.1168596,6.1147893 0 0 1 -0.0597,0.22903 6.1168596,6.1147893 0 0 1 -0.0652,0.23314 6.1168596,6.1147893 0 0 1 -0.0845,0.2396 6.1168596,6.1147893 0 0 1 -0.0676,0.18199 6.1168596,6.1147893 0 0 1 -0.11555,0.26525 6.1168596,6.1147893 0 0 1 -0.0772,0.16796 6.1168596,6.1147893 0 0 1 -0.1135,0.215 6.1168596,6.1147893 0 0 1 -0.11994,0.21298 6.1168596,6.1147893 0 0 1 -0.1176,0.1872 6.1168596,6.1147893 0 0 1 -0.13163,0.19688 6.1168596,6.1147893 0 0 1 -0.14451,0.19361 6.1168596,6.1147893 0 0 1 -0.14451,0.18315 6.1168596,6.1147893 0 0 1 -0.14451,0.16788 6.1168596,6.1147893 0 0 1 -0.17756,0.19166 6.1168596,6.1147893 0 0 1 -0.14246,0.14244 6.1168596,6.1147893 0 0 1 -0.18722,0.17317 6.1168596,6.1147893 0 0 1 -0.17961,0.15384 6.1168596,6.1147893 0 0 1 -0.1723,0.13604 6.1168596,6.1147893 0 0 1 -0.19774,0.14654 6.1168596,6.1147893 0 0 1 -0.19688,0.13164 6.1168596,6.1147893 0 0 1 -0.0781,0.0492 v 0.5383 0.31569 h 2.86565 v -3.59006 z m -0.0234,1.56979 a 6.5942351,6.592003 0 0 1 -0.21706,0.46975 6.5942351,6.592003 0 0 1 -0.25245,0.45156 6.5942351,6.592003 0 0 1 -0.28784,0.4312 6.5942351,6.592003 0 0 1 -0.31997,0.40563 6.5942351,6.592003 0 0 1 -0.35203,0.38094 6.5942351,6.592003 0 0 1 -0.37988,0.35096 6.5942351,6.592003 0 0 1 -0.40663,0.31993 6.5942351,6.592003 0 0 1 -0.43016,0.28787 6.5942351,6.592003 0 0 0 0.43016,-0.28787 6.5942351,6.592003 0 0 0 0.40663,-0.31993 6.5942351,6.592003 0 0 0 0.37988,-0.35096 6.5942351,6.592003 0 0 0 0.35203,-0.38094 6.5942351,6.592003 0 0 0 0.31997,-0.40563 6.5942351,6.592003 0 0 0 0.28784,-0.4312 6.5942351,6.592003 0 0 0 0.25245,-0.45156 6.5942351,6.592003 0 0 0 0.21706,-0.46975 z"
         inkscape:export-filename="E:\Inkscape\clients\NimbleEdge\36.png"
         inkscape:export-xdpi="800"
         inkscape:export-ydpi="800" />
      <path
         id="path2861"
         style="fill:url(#linearGradient2991);fill-opacity:1;stroke:none;stroke-width:0.245661;stroke-linejoin:round"
         d="m 164.80781,149.19713 -0.0623,0.008 a 6.1168596,6.1147893 0 0 1 -0.0354,0.18078 6.1168596,6.1147893 0 0 1 -0.0503,0.25154 6.1168596,6.1147893 0 0 1 -0.0597,0.22903 6.1168596,6.1147893 0 0 1 -0.0652,0.23314 6.1168596,6.1147893 0 0 1 -0.0845,0.2396 6.1168596,6.1147893 0 0 1 -0.0676,0.18199 6.1168596,6.1147893 0 0 1 -0.11555,0.26525 6.1168596,6.1147893 0 0 1 -0.0772,0.16796 6.1168596,6.1147893 0 0 1 -0.1135,0.215 6.1168596,6.1147893 0 0 1 -0.11994,0.21298 6.1168596,6.1147893 0 0 1 -0.1176,0.1872 6.1168596,6.1147893 0 0 1 -0.13163,0.19688 6.1168596,6.1147893 0 0 1 -0.14451,0.19361 6.1168596,6.1147893 0 0 1 -0.14451,0.18315 6.1168596,6.1147893 0 0 1 -0.14451,0.16788 6.1168596,6.1147893 0 0 1 -0.17756,0.19166 6.1168596,6.1147893 0 0 1 -0.14246,0.14244 6.1168596,6.1147893 0 0 1 -0.18722,0.17317 6.1168596,6.1147893 0 0 1 -0.17961,0.15384 6.1168596,6.1147893 0 0 1 -0.1723,0.13604 6.1168596,6.1147893 0 0 1 -0.19774,0.14654 6.1168596,6.1147893 0 0 1 -0.19688,0.13164 6.1168596,6.1147893 0 0 1 -0.0781,0.0492 v 0.5383 0.31569 h 2.86565 v -3.59006 z m -0.0234,1.56979 a 6.5942351,6.592003 0 0 1 -0.21706,0.46975 6.5942351,6.592003 0 0 1 -0.25245,0.45156 6.5942351,6.592003 0 0 1 -0.28784,0.4312 6.5942351,6.592003 0 0 1 -0.31997,0.40563 6.5942351,6.592003 0 0 1 -0.35203,0.38094 6.5942351,6.592003 0 0 1 -0.37988,0.35096 6.5942351,6.592003 0 0 1 -0.40663,0.31993 6.5942351,6.592003 0 0 1 -0.43016,0.28787 6.5942351,6.592003 0 0 0 0.43016,-0.28787 6.5942351,6.592003 0 0 0 0.40663,-0.31993 6.5942351,6.592003 0 0 0 0.37988,-0.35096 6.5942351,6.592003 0 0 0 0.35203,-0.38094 6.5942351,6.592003 0 0 0 0.31997,-0.40563 6.5942351,6.592003 0 0 0 0.28784,-0.4312 6.5942351,6.592003 0 0 0 0.25245,-0.45156 6.5942351,6.592003 0 0 0 0.21706,-0.46975 z"
         inkscape:export-filename="E:\Inkscape\clients\NimbleEdge\36.png"
         inkscape:export-xdpi="800"
         inkscape:export-ydpi="800" />
      <path
         id="path2863"
         style="fill:url(#linearGradient4359);fill-opacity:1;stroke:none;stroke-width:0.245661;stroke-linejoin:round"
         d="m 161.94216,137.3087 v 5.20044 0.55865 a 6.1172585,6.1145006 0 0 0 -0.10179,-0.0574 6.1168596,6.1147893 0 0 1 0.0962,0.0574 6.1168596,6.1147893 0 0 1 0.0374,0.0231 6.1168596,6.1147893 0 0 1 0.0263,0.018 6.1168596,6.1147893 0 0 1 0.10706,0.0694 6.1168596,6.1147893 0 0 1 0.1018,0.0694 6.1168596,6.1147893 0 0 1 0.0263,0.018 6.1168596,6.1147893 0 0 1 0.10355,0.0761 6.1168596,6.1147893 0 0 1 0.0234,0.018 6.1168596,6.1147893 0 0 1 0.1252,0.0963 6.1168596,6.1147893 0 0 1 0.10823,0.0877 6.1168596,6.1147893 0 0 1 0.0146,0.0119 6.1168596,6.1147893 0 0 1 0.10911,0.0933 6.1168596,6.1147893 0 0 1 0.009,0.007 6.1168596,6.1147893 0 0 1 0.11116,0.10061 6.1168596,6.1147893 0 0 1 0.006,0.008 6.1168596,6.1147893 0 0 1 0.11467,0.10708 6.1168596,6.1147893 0 0 1 0.11233,0.11261 6.1168596,6.1147893 0 0 1 0.002,0 6.1168596,6.1147893 0 0 1 0.10619,0.1126 6.1168596,6.1147893 0 0 1 0.006,0.008 6.1168596,6.1147893 0 0 1 0.10062,0.11 6.1168596,6.1147893 0 0 1 0.009,0.009 6.1168596,6.1147893 0 0 1 0.0933,0.10909 6.1168596,6.1147893 0 0 1 0.0117,0.015 6.1168596,6.1147893 0 0 1 0.0878,0.10712 6.1168596,6.1147893 0 0 1 0.0146,0.018 6.1168596,6.1147893 0 0 1 0.0804,0.10589 6.1168596,6.1147893 0 0 1 0.0933,0.12754 6.1168596,6.1147893 0 0 1 0.0813,0.11463 6.1168596,6.1147893 0 0 1 0.009,0.015 6.1168596,6.1147893 0 0 1 0.0234,0.0335 6.1168596,6.1147893 0 0 1 0.0644,0.0998 6.1168596,6.1147893 0 0 1 0.006,0.012 6.1168596,6.1147893 0 0 1 0.0749,0.122 6.1168596,6.1147893 0 0 1 0.0737,0.12634 6.1168596,6.1147893 0 0 1 0.006,0.009 6.1168596,6.1147893 0 0 1 0.0263,0.0492 6.1168596,6.1147893 0 0 1 0.0482,0.0887 6.1168596,6.1147893 0 0 1 0.006,0.018 6.1168596,6.1147893 0 0 1 0.0632,0.12282 6.1168596,6.1147893 0 0 1 0.0298,0.0597 6.1168596,6.1147893 0 0 1 0.009,0.0209 6.1168596,6.1147893 0 0 1 0.0559,0.11559 6.1168596,6.1147893 0 0 1 0.006,0.009 6.1168596,6.1147893 0 0 1 0.0342,0.0772 6.1168596,6.1147893 0 0 1 0.009,0.0209 6.1168596,6.1147893 0 0 1 0.048,0.11639 6.1168596,6.1147893 0 0 1 0.006,0.008 6.1168596,6.1147893 0 0 1 0.031,0.0773 6.1168596,6.1147893 0 0 1 0.0263,0.0694 6.1168596,6.1147893 0 0 1 0.0117,0.0321 6.1168596,6.1147893 0 0 1 0.0395,0.11351 6.1168596,6.1147893 0 0 1 7.4e-4,0 6.1168596,6.1147893 0 0 1 7.5e-4,0 6.1168596,6.1147893 0 0 1 0.0447,0.13482 6.1168596,6.1147893 0 0 1 0.006,0.012 6.1168596,6.1147893 0 0 1 0.0292,0.0942 6.1168596,6.1147893 0 0 1 7.4e-4,0.008 6.1168596,6.1147893 0 0 1 0.0439,0.14856 6.1168596,6.1147893 0 0 1 0.0146,0.05 6.1168596,6.1147893 0 0 1 0.009,0.0418 6.1168596,6.1147893 0 0 1 0.0263,0.10507 6.1168596,6.1147893 0 0 1 7.4e-4,0.007 6.1168596,6.1147893 0 0 1 0.006,0.018 6.1168596,6.1147893 0 0 1 0.0263,0.13045 6.1168596,6.1147893 0 0 1 0.002,0.007 6.1168596,6.1147893 0 0 1 0.006,0.0231 6.1168596,6.1147893 0 0 1 0.0234,0.12611 6.1168596,6.1147893 0 0 1 7.5e-4,0.007 6.1168596,6.1147893 0 0 1 0.002,0.015 6.1168596,6.1147893 0 0 1 0.0175,0.0953 l 0.074,-0.008 -0.006,-1.4681 v -8.48133 z"
         inkscape:export-filename="E:\Inkscape\clients\NimbleEdge\36.png"
         inkscape:export-xdpi="800"
         inkscape:export-ydpi="800" />
      <path
         id="path2865"
         style="fill:url(#linearGradient2995);fill-opacity:1;stroke:none;stroke-width:0.245661;stroke-linejoin:round"
         d="m 161.94216,137.3087 v 5.20044 0.55865 a 6.1172585,6.1145006 0 0 0 -0.10179,-0.0574 6.1168596,6.1147893 0 0 1 0.0962,0.0574 6.1168596,6.1147893 0 0 1 0.0374,0.0231 6.1168596,6.1147893 0 0 1 0.0263,0.018 6.1168596,6.1147893 0 0 1 0.10706,0.0694 6.1168596,6.1147893 0 0 1 0.1018,0.0694 6.1168596,6.1147893 0 0 1 0.0263,0.018 6.1168596,6.1147893 0 0 1 0.10355,0.0761 6.1168596,6.1147893 0 0 1 0.0234,0.018 6.1168596,6.1147893 0 0 1 0.1252,0.0963 6.1168596,6.1147893 0 0 1 0.10823,0.0877 6.1168596,6.1147893 0 0 1 0.0146,0.0119 6.1168596,6.1147893 0 0 1 0.10911,0.0933 6.1168596,6.1147893 0 0 1 0.009,0.007 6.1168596,6.1147893 0 0 1 0.11116,0.10061 6.1168596,6.1147893 0 0 1 0.006,0.008 6.1168596,6.1147893 0 0 1 0.11467,0.10708 6.1168596,6.1147893 0 0 1 0.11233,0.11261 6.1168596,6.1147893 0 0 1 0.002,0 6.1168596,6.1147893 0 0 1 0.10619,0.1126 6.1168596,6.1147893 0 0 1 0.006,0.008 6.1168596,6.1147893 0 0 1 0.10062,0.11 6.1168596,6.1147893 0 0 1 0.009,0.009 6.1168596,6.1147893 0 0 1 0.0933,0.10909 6.1168596,6.1147893 0 0 1 0.0117,0.015 6.1168596,6.1147893 0 0 1 0.0878,0.10712 6.1168596,6.1147893 0 0 1 0.0146,0.018 6.1168596,6.1147893 0 0 1 0.0804,0.10589 6.1168596,6.1147893 0 0 1 0.0933,0.12754 6.1168596,6.1147893 0 0 1 0.0813,0.11463 6.1168596,6.1147893 0 0 1 0.009,0.015 6.1168596,6.1147893 0 0 1 0.0234,0.0335 6.1168596,6.1147893 0 0 1 0.0644,0.0998 6.1168596,6.1147893 0 0 1 0.006,0.012 6.1168596,6.1147893 0 0 1 0.0749,0.122 6.1168596,6.1147893 0 0 1 0.0737,0.12634 6.1168596,6.1147893 0 0 1 0.006,0.009 6.1168596,6.1147893 0 0 1 0.0263,0.0492 6.1168596,6.1147893 0 0 1 0.0482,0.0887 6.1168596,6.1147893 0 0 1 0.006,0.018 6.1168596,6.1147893 0 0 1 0.0632,0.12282 6.1168596,6.1147893 0 0 1 0.0298,0.0597 6.1168596,6.1147893 0 0 1 0.009,0.0209 6.1168596,6.1147893 0 0 1 0.0559,0.11559 6.1168596,6.1147893 0 0 1 0.006,0.009 6.1168596,6.1147893 0 0 1 0.0342,0.0772 6.1168596,6.1147893 0 0 1 0.009,0.0209 6.1168596,6.1147893 0 0 1 0.048,0.11639 6.1168596,6.1147893 0 0 1 0.006,0.008 6.1168596,6.1147893 0 0 1 0.031,0.0773 6.1168596,6.1147893 0 0 1 0.0263,0.0694 6.1168596,6.1147893 0 0 1 0.0117,0.0321 6.1168596,6.1147893 0 0 1 0.0395,0.11351 6.1168596,6.1147893 0 0 1 7.4e-4,0 6.1168596,6.1147893 0 0 1 7.5e-4,0 6.1168596,6.1147893 0 0 1 0.0447,0.13482 6.1168596,6.1147893 0 0 1 0.006,0.012 6.1168596,6.1147893 0 0 1 0.0292,0.0942 6.1168596,6.1147893 0 0 1 7.4e-4,0.008 6.1168596,6.1147893 0 0 1 0.0439,0.14856 6.1168596,6.1147893 0 0 1 0.0146,0.05 6.1168596,6.1147893 0 0 1 0.009,0.0418 6.1168596,6.1147893 0 0 1 0.0263,0.10507 6.1168596,6.1147893 0 0 1 7.4e-4,0.007 6.1168596,6.1147893 0 0 1 0.006,0.018 6.1168596,6.1147893 0 0 1 0.0263,0.13045 6.1168596,6.1147893 0 0 1 0.002,0.007 6.1168596,6.1147893 0 0 1 0.006,0.0231 6.1168596,6.1147893 0 0 1 0.0234,0.12611 6.1168596,6.1147893 0 0 1 7.5e-4,0.007 6.1168596,6.1147893 0 0 1 0.002,0.015 6.1168596,6.1147893 0 0 1 0.0175,0.0953 l 0.074,-0.008 -0.006,-1.4681 v -8.48133 z"
         inkscape:export-filename="E:\Inkscape\clients\NimbleEdge\36.png"
         inkscape:export-xdpi="800"
         inkscape:export-ydpi="800" />
      <path
         id="path2867"
         style="fill:url(#linearGradient4361);fill-opacity:1;stroke:none;stroke-width:0.245661;stroke-linejoin:round"
         d="m 174.94454,142.10255 v 0.41204 0.5532 a 6.1172574,6.1145006 0 0 0 -0.0685,-0.0395 6.1168596,6.1147893 0 0 1 0.0632,0.038 6.1168596,6.1147893 0 0 1 0.14451,0.0934 6.1168596,6.1147893 0 0 1 0.14128,0.0974 6.1168596,6.1147893 0 0 1 0.13807,0.10179 6.1168596,6.1147893 0 0 1 0.13603,0.105 6.1168596,6.1147893 0 0 1 0.13252,0.10912 6.1168596,6.1147893 0 0 1 0.12929,0.11231 6.1168596,6.1147893 0 0 1 0.12608,0.11559 6.1168596,6.1147893 0 0 1 0.12287,0.11993 6.1168596,6.1147893 0 0 1 0.11993,0.12289 6.1168596,6.1147893 0 0 1 0.11555,0.12605 6.1168596,6.1147893 0 0 1 0.11233,0.1293 6.1168596,6.1147893 0 0 1 0.10911,0.13284 6.1168596,6.1147893 0 0 1 0.10502,0.13602 6.1168596,6.1147893 0 0 1 0.1018,0.13805 6.1168596,6.1147893 0 0 1 0.0974,0.14132 6.1168596,6.1147893 0 0 1 0.0933,0.14446 6.1168596,6.1147893 0 0 1 0.0886,0.14542 6.1168596,6.1147893 0 0 1 0.0854,0.15004 6.1168596,6.1147893 0 0 1 0.0813,0.15095 6.1168596,6.1147893 0 0 1 0.0758,0.15296 6.1168596,6.1147893 0 0 1 0.0726,0.15624 6.1168596,6.1147893 0 0 1 0.0495,0.1155 l 0.49118,-0.0544 v -0.007 -3.697 z"
         inkscape:export-filename="E:\Inkscape\clients\NimbleEdge\36.png"
         inkscape:export-xdpi="800"
         inkscape:export-ydpi="800" />
      <path
         id="path2869"
         style="fill:url(#linearGradient2999);fill-opacity:1;stroke:none;stroke-width:0.245661;stroke-linejoin:round"
         d="m 174.94454,142.10255 v 0.41204 0.5532 a 6.1172574,6.1145006 0 0 0 -0.0685,-0.0395 6.1168596,6.1147893 0 0 1 0.0632,0.038 6.1168596,6.1147893 0 0 1 0.14451,0.0934 6.1168596,6.1147893 0 0 1 0.14128,0.0974 6.1168596,6.1147893 0 0 1 0.13807,0.10179 6.1168596,6.1147893 0 0 1 0.13603,0.105 6.1168596,6.1147893 0 0 1 0.13252,0.10912 6.1168596,6.1147893 0 0 1 0.12929,0.11231 6.1168596,6.1147893 0 0 1 0.12608,0.11559 6.1168596,6.1147893 0 0 1 0.12287,0.11993 6.1168596,6.1147893 0 0 1 0.11993,0.12289 6.1168596,6.1147893 0 0 1 0.11555,0.12605 6.1168596,6.1147893 0 0 1 0.11233,0.1293 6.1168596,6.1147893 0 0 1 0.10911,0.13284 6.1168596,6.1147893 0 0 1 0.10502,0.13602 6.1168596,6.1147893 0 0 1 0.1018,0.13805 6.1168596,6.1147893 0 0 1 0.0974,0.14132 6.1168596,6.1147893 0 0 1 0.0933,0.14446 6.1168596,6.1147893 0 0 1 0.0886,0.14542 6.1168596,6.1147893 0 0 1 0.0854,0.15004 6.1168596,6.1147893 0 0 1 0.0813,0.15095 6.1168596,6.1147893 0 0 1 0.0758,0.15296 6.1168596,6.1147893 0 0 1 0.0726,0.15624 6.1168596,6.1147893 0 0 1 0.0495,0.1155 l 0.49118,-0.0544 v -0.007 -3.697 z"
         inkscape:export-filename="E:\Inkscape\clients\NimbleEdge\36.png"
         inkscape:export-xdpi="800"
         inkscape:export-ydpi="800" />
      <path
         id="path2871"
         style="fill:url(#linearGradient4363);fill-opacity:1;stroke:none;stroke-width:0.245661;stroke-linejoin:round"
         d="m 177.80896,147.72215 -0.0292,0.007 a 6.1168596,6.1147889 0 0 1 0.0117,0.17175 6.1168596,6.1147889 0 0 1 0.009,0.17166 6.1168596,6.1147889 0 0 1 0.001,0 6.1168596,6.1147889 0 0 1 -0.0234,0.5052 6.1168596,6.1147889 0 0 1 -0.0611,0.50018 6.1168596,6.1147889 0 0 1 -0.10414,0.49543 6.1168596,6.1147889 0 0 1 -0.1448,0.48438 6.1168596,6.1147889 0 0 1 -0.184,0.47081 6.1168596,6.1147889 0 0 1 -0.22203,0.45357 6.1168596,6.1147889 0 0 1 -0.25859,0.43404 6.1168596,6.1147889 0 0 1 -0.29305,0.41204 6.1168596,6.1147889 0 0 1 -0.32737,0.38503 6.1168596,6.1147889 0 0 1 -0.35679,0.35797 6.1168596,6.1147889 0 0 1 -0.38626,0.32621 6.1168596,6.1147889 0 0 1 -0.41196,0.293 6.1168596,6.1147889 0 0 1 -0.30778,0.184 6.117257,6.1145002 0 0 0 0.11292,-0.0626 2.9166596,2.9153448 0 0 1 -0.10414,0.60079 6.5942351,6.592003 0 0 1 -0.002,0 2.9166596,2.9153448 0 0 1 -2.80537,2.13104 2.9166596,2.9153448 0 0 1 -0.12637,-0.015 c -3.9e-4,0 -0.001,0.015 -0.001,0.015 h -3.04567 -0.53828 -0.098 v 2.83967 c 0,0.009 9e-5,0.0172 0,0.0261 h 0.098 0.53828 3.04567 v -0.012 a 6.117257,6.1145002 0 0 0 6.01169,-6.11107 v -2.27809 -2.43876 z"
         inkscape:export-filename="E:\Inkscape\clients\NimbleEdge\36.png"
         inkscape:export-xdpi="800"
         inkscape:export-ydpi="800" />
      <path
         id="path2873"
         style="fill:url(#linearGradient3003);fill-opacity:1;stroke:none;stroke-width:0.245661;stroke-linejoin:round"
         d="m 177.80896,147.72215 -0.0292,0.007 a 6.1168596,6.1147889 0 0 1 0.0117,0.17175 6.1168596,6.1147889 0 0 1 0.009,0.17166 6.1168596,6.1147889 0 0 1 0.001,0 6.1168596,6.1147889 0 0 1 -0.0234,0.5052 6.1168596,6.1147889 0 0 1 -0.0611,0.50018 6.1168596,6.1147889 0 0 1 -0.10414,0.49543 6.1168596,6.1147889 0 0 1 -0.1448,0.48438 6.1168596,6.1147889 0 0 1 -0.184,0.47081 6.1168596,6.1147889 0 0 1 -0.22203,0.45357 6.1168596,6.1147889 0 0 1 -0.25859,0.43404 6.1168596,6.1147889 0 0 1 -0.29305,0.41204 6.1168596,6.1147889 0 0 1 -0.32737,0.38503 6.1168596,6.1147889 0 0 1 -0.35679,0.35797 6.1168596,6.1147889 0 0 1 -0.38626,0.32621 6.1168596,6.1147889 0 0 1 -0.41196,0.293 6.1168596,6.1147889 0 0 1 -0.30778,0.184 6.117257,6.1145002 0 0 0 0.11292,-0.0626 2.9166596,2.9153448 0 0 1 -0.10414,0.60079 6.5942351,6.592003 0 0 1 -0.002,0 2.9166596,2.9153448 0 0 1 -2.80537,2.13104 2.9166596,2.9153448 0 0 1 -0.12637,-0.015 c -3.9e-4,0 -0.001,0.015 -0.001,0.015 h -3.04567 -0.53828 -0.098 v 2.83967 c 0,0.009 9e-5,0.0172 0,0.0261 h 0.098 0.53828 3.04567 v -0.012 a 6.117257,6.1145002 0 0 0 6.01169,-6.11107 v -2.27809 -2.43876 z"
         inkscape:export-filename="E:\Inkscape\clients\NimbleEdge\36.png"
         inkscape:export-xdpi="800"
         inkscape:export-ydpi="800" />
      <path
         id="path2875"
         style="fill:url(#linearGradient4365);fill-opacity:1;stroke:none;stroke-width:0.245661;stroke-linejoin:round"
         d="m 164.73717,147.26456 a 6.1168596,6.1147893 0 0 0 -0.0175,-0.0951 6.1168596,6.1147893 0 0 0 -0.002,-0.015 6.1168596,6.1147893 0 0 0 -7.4e-4,-0.007 6.1168596,6.1147893 0 0 0 -0.0234,-0.12635 6.1168596,6.1147893 0 0 0 -0.006,-0.0231 6.1168596,6.1147893 0 0 0 -0.002,-0.008 6.1168596,6.1147893 0 0 0 -0.0263,-0.1305 6.1168596,6.1147893 0 0 0 -0.006,-0.018 6.1168596,6.1147893 0 0 0 -7.5e-4,-0.008 6.1168596,6.1147893 0 0 0 -0.0263,-0.10498 6.1168596,6.1147893 0 0 0 -0.009,-0.0418 6.1168596,6.1147893 0 0 0 -0.0146,-0.05 6.1168596,6.1147893 0 0 0 -0.043,-0.14887 6.1168596,6.1147893 0 0 0 -0.002,-0.008 6.1168596,6.1147893 0 0 0 -0.0292,-0.0942 6.1168596,6.1147893 0 0 0 -0.006,-0.012 6.1168596,6.1147893 0 0 0 -0.0447,-0.1349 6.1168596,6.1147893 0 0 0 -7.4e-4,0 6.1168596,6.1147893 0 0 0 -7.5e-4,0 6.1168596,6.1147893 0 0 0 -0.0395,-0.11351 6.1168596,6.1147893 0 0 0 -0.0117,-0.0321 6.1168596,6.1147893 0 0 0 -0.0263,-0.0694 6.1168596,6.1147893 0 0 0 -0.031,-0.0772 6.1168596,6.1147893 0 0 0 -0.006,-0.007 6.1168596,6.1147893 0 0 0 -0.048,-0.1164 6.1168596,6.1147893 0 0 0 -0.009,-0.0209 6.1168596,6.1147893 0 0 0 -0.0342,-0.0772 6.1168596,6.1147893 0 0 0 -0.006,-0.009 6.1168596,6.1147893 0 0 0 -0.0559,-0.11551 6.1168596,6.1147893 0 0 0 -0.009,-0.0201 6.1168596,6.1147893 0 0 0 -0.0301,-0.0597 6.1168596,6.1147893 0 0 0 -0.0632,-0.12291 6.1168596,6.1147893 0 0 0 -0.006,-0.018 6.1168596,6.1147893 0 0 0 -0.0482,-0.0886 6.1168596,6.1147893 0 0 0 -0.0263,-0.0492 6.1168596,6.1147893 0 0 0 -0.006,-0.009 6.1168596,6.1147893 0 0 0 -0.0737,-0.12642 6.1168596,6.1147893 0 0 0 -0.0749,-0.12192 6.1168596,6.1147893 0 0 0 -0.006,-0.012 6.1168596,6.1147893 0 0 0 -0.0644,-0.0998 6.1168596,6.1147893 0 0 0 -0.0234,-0.0336 6.1168596,6.1147893 0 0 0 -0.009,-0.015 6.1168596,6.1147893 0 0 0 -0.0813,-0.11462 6.1168596,6.1147893 0 0 0 -0.0933,-0.12759 6.1168596,6.1147893 0 0 0 -0.0804,-0.10589 6.1168596,6.1147893 0 0 0 -0.0146,-0.018 6.1168596,6.1147893 0 0 0 -0.0877,-0.10703 6.1168596,6.1147893 0 0 0 -0.0117,-0.015 6.1168596,6.1147893 0 0 0 -0.0933,-0.1091 6.1168596,6.1147893 0 0 0 -0.009,-0.009 6.1168596,6.1147893 0 0 0 -0.10063,-0.11 6.1168596,6.1147893 0 0 0 -0.006,-0.008 6.1168596,6.1147893 0 0 0 -0.10619,-0.1126 6.1168596,6.1147893 0 0 0 -0.002,0 6.1168596,6.1147893 0 0 0 -0.11233,-0.11261 6.1168596,6.1147893 0 0 0 -0.11467,-0.10709 6.1168596,6.1147893 0 0 0 -0.006,-0.008 6.1168596,6.1147893 0 0 0 -0.11116,-0.10061 6.1168596,6.1147893 0 0 0 -0.009,-0.008 6.1168596,6.1147893 0 0 0 -0.10999,-0.0934 6.1168596,6.1147893 0 0 0 -0.0146,-0.0119 6.1168596,6.1147893 0 0 0 -0.10794,-0.0877 6.1168596,6.1147893 0 0 0 -0.1252,-0.0963 6.1168596,6.1147893 0 0 0 -0.0234,-0.018 6.1168596,6.1147893 0 0 0 -0.10355,-0.0761 6.1168596,6.1147893 0 0 0 -0.0263,-0.0172 6.1168596,6.1147893 0 0 0 -0.1018,-0.0694 6.1168596,6.1147893 0 0 0 -0.10707,-0.0694 6.1168596,6.1147893 0 0 0 -0.0263,-0.018 6.1168596,6.1147893 0 0 0 -0.0374,-0.0231 6.1168596,6.1147893 0 0 0 -0.0962,-0.0574 6.1172585,6.1145006 0 0 0 -0.043,-0.0261 6.1172585,6.1145006 0 0 0 -0.14363,-0.0822 6.1168596,6.1147893 0 0 0 -0.0878,-0.0485 6.1168596,6.1147893 0 0 0 -0.11233,-0.0574 6.1168596,6.1147893 0 0 0 -0.0263,-0.015 6.1168596,6.1147893 0 0 0 -0.0588,-0.0291 6.1172585,6.1145006 0 0 0 -0.14773,-0.0693 6.1168596,6.1147893 0 0 0 -0.0374,-0.018 6.1168596,6.1147893 0 0 0 -0.10151,-0.0447 6.1168596,6.1147893 0 0 0 -0.009,-0.008 6.1168596,6.1147893 0 0 0 -0.006,-0.008 6.1168596,6.1147893 0 0 0 -0.10824,-0.0447 6.1172585,6.1145006 0 0 0 -0.22057,-0.0834 6.1172585,6.1145006 0 0 0 -0.009,-0.007 6.1172585,6.1145006 0 0 0 -0.0494,-0.018 6.1172585,6.1145006 0 0 0 -0.006,0 6.1168596,6.1147893 0 0 0 -0.10179,-0.0336 6.1168596,6.1147893 0 0 0 -0.0175,-0.008 6.1172585,6.1145006 0 0 0 -0.0263,-0.008 6.1172585,6.1145006 0 0 0 -0.31455,-0.0898 6.1168596,6.1147893 0 0 0 -0.0661,-0.018 6.1168596,6.1147893 0 0 0 -0.0292,-0.008 6.1172585,6.1145006 0 0 0 -0.41088,-0.0845 6.1168596,6.1147893 0 0 0 -0.0383,-0.008 6.1168596,6.1147893 0 0 0 -0.006,0 6.1168596,6.1147893 0 0 0 -0.0418,-0.008 6.1172585,6.1145006 0 0 0 -0.43552,-0.0522 6.1172585,6.1145006 0 0 0 -0.48902,-0.018 l 0.0117,0.009 a 6.1168596,6.1147893 0 0 0 -0.47404,0.018 6.1168596,6.1147893 0 0 0 -0.006,0 6.1168596,6.1147893 0 0 0 -0.10912,0.0119 6.1168596,6.1147893 0 0 0 -0.33921,0.0395 6.1168596,6.1147893 0 0 0 -0.25362,0.0485 6.1168596,6.1147893 0 0 0 -0.20536,0.041 6.1168596,6.1147893 0 0 0 -0.20769,0.0559 6.1168596,6.1147893 0 0 0 -0.25801,0.0723 6.1168596,6.1147893 0 0 0 -0.17435,0.0612 6.1168596,6.1147893 0 0 0 -0.26327,0.0974 6.1168596,6.1147893 0 0 0 -0.18956,0.0822 6.1168596,6.1147893 0 0 0 -0.23753,0.10911 6.1168596,6.1147893 0 0 0 -0.19892,0.1062 6.1168596,6.1147893 0 0 0 -0.2033,0.1135 6.1168596,6.1147893 0 0 0 -0.20653,0.13044 6.1168596,6.1147893 0 0 0 -0.18809,0.12522 6.1168596,6.1147893 0 0 0 -0.19365,0.14333 6.1168596,6.1147893 0 0 0 -0.18283,0.14454 6.1168596,6.1147893 0 0 0 -0.17318,0.14974 6.1168596,6.1147893 0 0 0 -0.17669,0.16295 6.1168596,6.1147893 0 0 0 -0.16586,0.16586 6.1168596,6.1147893 0 0 0 -0.14977,0.16145 6.1168596,6.1147893 0 0 0 -0.16674,0.19458 6.1168596,6.1147893 0 0 0 -0.13369,0.16905 6.1168596,6.1147893 0 0 0 -0.14655,0.19801 6.1168596,6.1147893 0 0 0 -0.1293,0.1937 6.1168596,6.1147893 0 0 0 -0.12198,0.19366 6.1168596,6.1147893 0 0 0 -0.12111,0.21613 6.1168596,6.1147893 0 0 0 -0.10151,0.19277 6.1168596,6.1147893 0 0 0 -0.10911,0.23754 6.1168596,6.1147893 0 0 0 -0.0834,0.19165 6.1168596,6.1147893 0 0 0 -0.0834,0.22463 6.1168596,6.1147893 0 0 0 -0.0781,0.22471 6.1168596,6.1147893 0 0 0 -0.0717,0.25355 6.1168596,6.1147893 0 0 0 -0.0495,0.18317 6.1168596,6.1147893 0 0 0 -0.0547,0.27378 6.1168596,6.1147893 0 0 0 -0.0374,0.20008 6.1168596,6.1147893 0 0 0 -0.0234,0.19897 6.1168596,6.1147893 0 0 0 -0.031,0.26848 6.1168596,6.1147893 0 0 0 -0.0175,0.46014 6.1168596,6.1147893 0 0 0 0.0117,0.35954 l 2.85814,-0.31778 a 3.2360102,3.2345518 0 0 1 -7.5e-4,-0.0522 3.2360102,3.2345518 0 0 1 3.23587,-3.23486 3.2360102,3.2345518 0 0 1 3.16739,2.57461 z"
         inkscape:export-filename="E:\Inkscape\clients\NimbleEdge\36.png"
         inkscape:export-xdpi="800"
         inkscape:export-ydpi="800" />
      <path
         id="path2877"
         style="fill:url(#linearGradient4367);fill-opacity:1;stroke:none;stroke-width:0.245661;stroke-linejoin:round"
         d="m 145.68712,142.13007 a 6.1172582,6.1145006 0 0 0 -5.53344,3.51831 l 4.05041,-0.45089 c 0,0 3.11442,-0.59289 4.12782,1.43308 l -8.71697,0.98917 a 6.1172582,6.1145006 0 0 0 -0.0447,0.62489 6.1172582,6.1145006 0 0 0 6.11703,6.11458 6.1172582,6.1145006 0 0 0 5.58331,-3.62573 l -4.70564,0.53399 c 0,0 -2.76833,0.24692 -3.58404,-1.58133 l 8.80617,-0.9804 a 6.1172582,6.1145006 0 0 0 0.0175,-0.46111 6.1172582,6.1145006 0 0 0 -6.11732,-6.11456 z"
         inkscape:export-filename="E:\Inkscape\clients\NimbleEdge\36.png"
         inkscape:export-xdpi="800"
         inkscape:export-ydpi="800" />
      <path
         id="path2879"
         style="fill:url(#linearGradient4369);fill-opacity:1;stroke:none;stroke-width:0.245661;stroke-linejoin:round"
         d="m 153.0296,150.53363 a 6.1168596,6.1147893 0 0 0 0.002,0.008 6.1168596,6.1147893 0 0 0 0.091,0.20769 6.1168596,6.1147893 0 0 0 0.10385,0.2238 6.1168596,6.1147893 0 0 0 0.1059,0.20011 6.1168596,6.1147893 0 0 0 0.1135,0.20329 6.1168596,6.1147893 0 0 0 0.12403,0.19769 6.1168596,6.1147893 0 0 0 0.14012,0.20979 6.1168596,6.1147893 0 0 0 0.10912,0.14773 6.1172585,6.1145006 0 0 0 0.0532,0.0694 6.1168596,6.1147893 0 0 0 0.1252,0.15857 6.1168596,6.1147893 0 0 0 0.10912,0.12514 6.1172585,6.1145006 0 0 0 0.18722,0.20539 6.1172585,6.1145006 0 0 0 0.006,0.007 6.1168596,6.1147893 0 0 0 0.10181,0.10268 6.1172585,6.1145006 0 0 0 0.2621,0.24512 6.1168596,6.1147893 0 0 0 0.0737,0.0634 6.1172585,6.1145006 0 0 0 0.33921,0.26968 6.1172585,6.1145006 0 0 0 0.40024,0.27094 6.1172585,6.1145006 0 0 0 3.21551,0.91594 6.1172585,6.1145006 0 0 0 3.25085,-0.93744 v 0.015 a 6.1168596,6.1147893 0 0 0 0.0781,-0.0492 6.1168596,6.1147893 0 0 0 0.19688,-0.13163 6.1168596,6.1147893 0 0 0 0.19775,-0.14655 6.1168596,6.1147893 0 0 0 0.17229,-0.13603 6.1168596,6.1147893 0 0 0 0.17961,-0.15385 6.1168596,6.1147893 0 0 0 0.18722,-0.17317 6.1168596,6.1147893 0 0 0 0.14217,-0.14244 6.1168596,6.1147893 0 0 0 0.17756,-0.19136 6.1168596,6.1147893 0 0 0 0.14451,-0.16788 6.1168596,6.1147893 0 0 0 0.1445,-0.18285 6.1168596,6.1147893 0 0 0 0.14453,-0.19361 6.1168596,6.1147893 0 0 0 0.13163,-0.19689 6.1168596,6.1147893 0 0 0 0.1176,-0.18725 6.1168596,6.1147893 0 0 0 0.11992,-0.21293 6.1168596,6.1147893 0 0 0 0.11351,-0.215 6.1168596,6.1147893 0 0 0 0.0772,-0.16795 6.1168596,6.1147893 0 0 0 0.11555,-0.26528 6.1168596,6.1147893 0 0 0 0.0673,-0.18196 6.1168596,6.1147893 0 0 0 0.0846,-0.23961 6.1168596,6.1147893 0 0 0 0.0652,-0.23313 6.1168596,6.1147893 0 0 0 0.0597,-0.22903 6.1168596,6.1147893 0 0 0 0.0503,-0.25162 6.1168596,6.1147893 0 0 0 0.0354,-0.18078 l -3.0968,0.35103 a 3.2360102,3.2345518 0 0 1 -2.95765,1.92395 3.2360102,3.2345518 0 0 1 -2.58527,-1.29481 z"
         inkscape:export-filename="E:\Inkscape\clients\NimbleEdge\36.png"
         inkscape:export-xdpi="800"
         inkscape:export-ydpi="800" />
      <path
         id="path2881"
         style="fill:url(#linearGradient4371);fill-opacity:1;stroke:none;stroke-width:0.245661;stroke-linejoin:round"
         d="m 184.7429,142.13007 a 6.1172582,6.1145006 0 0 0 -5.53821,3.52332 l 4.16439,-0.46372 c 0,0 3.11439,-0.59281 4.12782,1.43315 l -8.83575,1.00268 a 6.1172582,6.1145006 0 0 0 -0.0354,0.61913 6.1172582,6.1145006 0 0 0 6.11732,6.11458 6.1172582,6.1145006 0 0 0 5.5703,-3.59119 l -4.62049,0.52422 c 0,0 -2.76833,0.24714 -3.58399,-1.58127 l 8.72971,-0.9719 a 6.1172582,6.1145006 0 0 0 0.0205,-0.49444 6.1172582,6.1145006 0 0 0 -6.11733,-6.11456 z"
         inkscape:export-filename="E:\Inkscape\clients\NimbleEdge\36.png"
         inkscape:export-xdpi="800"
         inkscape:export-ydpi="800" />
      <path
         id="path2883"
         style="fill:url(#linearGradient4373);fill-opacity:1;stroke:none;stroke-width:0.245661;stroke-linejoin:round"
         d="m 169.32563,153.88184 a 6.1172574,6.1145006 0 0 0 0.45476,0.16995 6.1172574,6.1145006 0 0 0 0.45801,0.13163 6.1168596,6.1147893 0 0 0 0.0749,0.015 6.1172574,6.1145006 0 0 0 0.40982,0.0823 6.1172574,6.1145006 0 0 0 0.48048,0.0589 6.1172574,6.1145006 0 0 0 0.48688,0.018 6.1168596,6.1147893 0 0 0 0.48366,-0.0209 6.1172574,6.1145006 0 0 0 0.18518,-0.0231 6.1168596,6.1147893 0 0 0 0.29743,-0.0366 6.1172574,6.1145006 0 0 0 0.22262,-0.044 6.1168596,6.1147893 0 0 0 0.25684,-0.053 6.1172574,6.1145006 0 0 0 0.21618,-0.0597 6.1168596,6.1147893 0 0 0 0.25566,-0.0761 6.1172574,6.1145006 0 0 0 0.23959,-0.0878 6.1168596,6.1147893 0 0 0 0.19687,-0.0773 6.1172574,6.1145006 0 0 0 0.2621,-0.11872 6.1168596,6.1147893 0 0 0 0.18809,-0.0919 6.1172574,6.1145006 0 0 0 0.22671,-0.12401 6.1168596,6.1147893 0 0 0 0.30821,-0.18398 6.1168596,6.1147893 0 0 0 0.41197,-0.29324 6.1168596,6.1147893 0 0 0 0.38522,-0.32628 6.1168596,6.1147893 0 0 0 0.35741,-0.35745 6.1168596,6.1147893 0 0 0 0.32743,-0.38525 6.1168596,6.1147893 0 0 0 0.2932,-0.41196 6.1168596,6.1147893 0 0 0 0.25888,-0.43442 6.1168596,6.1147893 0 0 0 0.22174,-0.45371 6.1168596,6.1147893 0 0 0 0.184,-0.47082 6.1168596,6.1147893 0 0 0 0.14451,-0.48371 6.1168596,6.1147893 0 0 0 0.10355,-0.4954 6.1168596,6.1147893 0 0 0 0.0623,-0.5008 6.1168596,6.1147893 0 0 0 0.0205,-0.5051 6.1168596,6.1147893 0 0 0 -0.002,-0.17138 6.1168596,6.1147893 0 0 0 -0.006,-0.17146 6.1168596,6.1147893 0 0 0 -0.0117,-0.17137 6.1168596,6.1147893 0 0 0 0,-0.008 l -2.85816,0.32419 a 3.2360102,3.2345518 0 0 1 0.006,0.19485 3.2360102,3.2345518 0 0 1 -3.23584,3.23478 3.2360102,3.2345518 0 0 1 -3.18668,-2.70192 l -2.86562,0.3253 a 6.1172574,6.1145006 0 0 0 3.68742,4.77892 z"
         inkscape:export-filename="E:\Inkscape\clients\NimbleEdge\36.png"
         inkscape:export-xdpi="800"
         inkscape:export-ydpi="800" />
      <path
         id="path2885"
         style="fill:url(#linearGradient2989);fill-opacity:1;stroke:none;stroke-width:0.245661;stroke-linejoin:round"
         d="m 177.31796,145.8628 a 6.1168596,6.1147893 0 0 0 -0.0494,-0.11561 6.1168596,6.1147893 0 0 0 -0.0726,-0.15616 6.1168596,6.1147893 0 0 0 -0.0761,-0.15304 6.1168596,6.1147893 0 0 0 -0.0813,-0.15092 6.1168596,6.1147893 0 0 0 -0.0854,-0.15006 6.1168596,6.1147893 0 0 0 -0.0886,-0.14543 6.1168596,6.1147893 0 0 0 -0.0933,-0.14445 6.1168596,6.1147893 0 0 0 -0.0974,-0.14133 6.1168596,6.1147893 0 0 0 -0.1018,-0.13804 6.1168596,6.1147893 0 0 0 -0.10501,-0.13603 6.1168596,6.1147893 0 0 0 -0.10912,-0.13252 6.1168596,6.1147893 0 0 0 -0.11233,-0.12961 6.1168596,6.1147893 0 0 0 -0.11555,-0.12633 6.1168596,6.1147893 0 0 0 -0.11993,-0.12291 6.1168596,6.1147893 0 0 0 -0.12286,-0.11991 6.1168596,6.1147893 0 0 0 -0.12608,-0.11553 6.1168596,6.1147893 0 0 0 -0.12959,-0.11239 6.1168596,6.1147893 0 0 0 -0.13252,-0.1091 6.1168596,6.1147893 0 0 0 -0.13602,-0.10501 6.1168596,6.1147893 0 0 0 -0.13807,-0.1015 6.1168596,6.1147893 0 0 0 -0.14129,-0.0974 6.1168596,6.1147893 0 0 0 -0.14451,-0.0933 6.1168596,6.1147893 0 0 0 -0.0632,-0.038 6.1172574,6.1145006 0 0 0 -0.29855,-0.17146 6.1168596,6.1147893 0 0 0 -0.0845,-0.0447 6.1168596,6.1147893 0 0 0 -0.0292,-0.015 6.1172574,6.1145006 0 0 0 -0.34348,-0.16265 6.1168596,6.1147893 0 0 0 -0.0708,-0.0298 6.1172574,6.1145006 0 0 0 -0.40983,-0.15384 6.1168596,6.1147893 0 0 0 -0.0406,-0.015 6.1172574,6.1145006 0 0 0 -0.44836,-0.12963 6.1172574,6.1145006 0 0 0 -0.006,0 6.1172574,6.1145006 0 0 0 -0.47619,-0.0962 6.1172574,6.1145006 0 0 0 -0.9759,-0.079 6.1172574,6.1145006 0 0 0 -0.47298,0.018 6.1172574,6.1145006 0 0 0 -0.46974,0.0559 6.1172574,6.1145006 0 0 0 -0.46333,0.091 6.1172574,6.1145006 0 0 0 -0.45584,0.12603 6.1172574,6.1145006 0 0 0 -0.87531,0.35639 6.1172574,6.1145006 0 0 0 -3.28083,4.38185 l 3.11816,-0.34775 a 3.2360102,3.2345518 0 0 1 2.89987,-1.80199 3.2360102,3.2345518 0 0 1 2.51469,1.19955 z"
         inkscape:export-filename="E:\Inkscape\clients\NimbleEdge\36.png"
         inkscape:export-xdpi="800"
         inkscape:export-ydpi="800" />
    </g>
  </g>
</svg>
